{
.appVersion = "116";
DisplayStrings = (
A,
r
);
copyright = "Copyright © 2024 gbgk + The Inter Project Authors";
customParameters = (
{
name = license;
value = "OFL 1.1";
}
);
date = "2023-11-20 00:06:37 +0000";
designer = gbgk;
designerURL = "https://gbgk.me";
familyName = "Dag Round";
featurePrefixes = (
{
automatic = 1;
code = "languagesystem DFLT dflt;\012languagesystem latn dflt;\012languagesystem hebr dflt;\012languagesystem latn ROM;\012languagesystem latn MOL;\012languagesystem latn CAT;\012";
name = Languagesystems;
}
);
features = (
{
automatic = 1;
code = "feature locl;\012feature frac;\012feature ordn;\012feature smcp;\012";
name = aalt;
},
{
automatic = 1;
code = "script latn;\012language ROM;\012sub Scedilla by Scommaaccent;\012sub scedilla by scommaaccent;\012sub tcedilla by tcommaaccent;\012language MOL;\012sub Scedilla by Scommaaccent;\012sub scedilla by scommaaccent;\012sub tcedilla by tcommaaccent;\012language CAT;\012sub  l' periodcentered' l by ldot;\012sub  L' periodcentered' L by Ldot;\012";
name = locl;
},
{
automatic = 1;
code = "lookup FRAC {\012	sub slash by fraction;\012} FRAC;\012lookup UP {\012	sub [zero one two three four five six seven eight nine] by [zero.numr one.numr two.numr three.numr four.numr five.numr six.numr seven.numr eight.numr nine.numr];\012} UP;\012lookup DOWN {\012	sub fraction [zero.numr one.numr two.numr three.numr four.numr five.numr six.numr seven.numr eight.numr nine.numr]' by [zero.dnom one.dnom two.dnom three.dnom four.dnom five.dnom six.dnom seven.dnom eight.dnom nine.dnom];\012	sub [zero.dnom one.dnom two.dnom three.dnom four.dnom five.dnom six.dnom seven.dnom eight.dnom nine.dnom] [zero.numr one.numr two.numr three.numr four.numr five.numr six.numr seven.numr eight.numr nine.numr]' by [zero.dnom one.dnom two.dnom three.dnom four.dnom five.dnom six.dnom seven.dnom eight.dnom nine.dnom];\012} DOWN;\012";
name = frac;
},
{
automatic = 1;

glyphs = (
{
glyphname = A;
lastChange = "2024-07-06 19:10:55 +0000";
layers = (
{
layerId = "EC312F70-CB40-4CEF-804A-742881A222CF";
paths = (
{
closed = 1;
nodes = (
"198 0 LINE SMOOTH",
"295 0 OFFCURVE",
"355 43 OFFCURVE",
"386 136 CURVE SMOOTH",
"449 325 LINE",
"1006 325 LINE",
"1066 137 LINE SMOOTH",
"1096 45 OFFCURVE",
"1157 0 OFFCURVE",
"1254 0 CURVE SMOOTH",
"1281 0 LINE SMOOTH",
"1384 0 OFFCURVE",
"1424 75 OFFCURVE",
"1384 190 CURVE SMOOTH",
"975 1356 LINE SMOOTH",
"943 1448 OFFCURVE",
"882 1490 OFFCURVE",
"786 1490 CURVE SMOOTH",
"674 1490 LINE SMOOTH",
"578 1490 OFFCURVE",
"517 1448 OFFCURVE",
"485 1356 CURVE SMOOTH",
"76 190 LINE SMOOTH",
"36 75 OFFCURVE",
"74 0 OFFCURVE",
"175 0 CURVE SMOOTH"
);
},
{
closed = 1;
nodes = (
"532 571 LINE",
"583 725 LINE SMOOTH",
"607 801 OFFCURVE",
"631 878.333 OFFCURVE",
"655 957 CURVE SMOOTH",
"679 1035.667 OFFCURVE",
"704.333 1121.333 OFFCURVE",
"731 1214 CURVE",
"757.667 1121.333 OFFCURVE",
"782.667 1035.667 OFFCURVE",
"806 957 CURVE SMOOTH",
"829.333 878.333 OFFCURVE",
"852.667 801 OFFCURVE",
"876 725 CURVE SMOOTH",
"926 571 LINE"
);
}
);
userData = {
assembly = "NPUSHB[ ]	/* 41 values pushed */\01213 1 4 0 1 76 0 4 0 2 1 4 2 104 0 0 0 103 77 5 3 2 1 1 104 1 78 0 0 9 8 0 7 0 7 17 17 17 6 12 25 \012CALL[ ]	/* CallFunction */";
};
width = 1461;
}
);
leftKerningGroup = A;
note = A;
rightKerningGroup = A;
unicode = 0041;
},
{
glyphname = Astroke;
lastChange = "2024-07-06 19:10:55 +0000";
layers = (
{
layerId = "EC312F70-CB40-4CEF-804A-742881A222CF";
paths = (
{
closed = 1;
nodes = (
"1013 1678 OFFCURVE",
"979 1634 OFFCURVE",
"949 1542 CURVE SMOOTH",
"930 1485 LINE",
"929 1488 LINE SMOOTH",
"928 1489 OFFCURVE",
"883 1490 OFFCURVE",
"788 1490 CURVE SMOOTH",
"674 1490 LINE SMOOTH",
"578 1490 OFFCURVE",
"517 1448 OFFCURVE",
"485 1356 CURVE SMOOTH",
"76 190 LINE SMOOTH",
"36 75 OFFCURVE",
"84 0 OFFCURVE",
"198 0 CURVE SMOOTH",
"295 0 OFFCURVE",
"355 43 OFFCURVE",
"386 136 CURVE SMOOTH",
"449 325 LINE",
"552 325 LINE",
"446 -1 LINE SMOOTH",
"408 -117 OFFCURVE",
"407 -190 OFFCURVE",
"443 -190 CURVE SMOOTH",
"483 -190 OFFCURVE",
"516 -146 OFFCURVE",
"546 -54 CURVE SMOOTH",
"670 325 LINE",
"1006 325 LINE",
"1066 137 LINE SMOOTH",
"1096 45 OFFCURVE",
"1157 0 OFFCURVE",
"1254 0 CURVE SMOOTH",
"1281 0 LINE SMOOTH",
"1384 0 OFFCURVE",
"1424 74 OFFCURVE",
"1384 190 CURVE SMOOTH",
"992 1310 LINE",
"1052 1494 LINE SMOOTH",
"1089 1607 OFFCURVE",
"1089 1678 OFFCURVE",
"1053 1678 CURVE SMOOTH"
);
},
{
closed = 1;
nodes = (
"532 571 LINE",
"583 725 LINE SMOOTH",
"607 801 OFFCURVE",
"631 878.333 OFFCURVE",
"655 957 CURVE SMOOTH",
"679 1035.667 OFFCURVE",
"704.333 1121.333 OFFCURVE",
"731 1214 CURVE",
"740.333 1182.667 OFFCURVE",
"749.333 1152 OFFCURVE",
"758 1122 CURVE SMOOTH",
"783 1034 LINE",
"632 571 LINE"
);
},
{
closed = 1;
nodes = (
"846 824.333 OFFCURVE",
"852 804.167 OFFCURVE",
"858 784.5 CURVE SMOOTH",
"876 725 LINE",
"926 571 LINE",
"750 571 LINE",
"840 845 LINE"
);
}
);
userData = {
assembly = "NPUSHB[ ]	/* 65 values pushed */\01220 17 1 3 7 5 1 76 9 1 6 5 6 133 0 2 0 2 134 8 10 2 7 3 1 1 0 7 1 104 0 5 5 103 77 4 1 0 0 104 0 78 16 16 0 0 27 26 16 24 16 24 0 15 0 15 17 17 17 17 17 18 11 12 28 \012CALL[ ]	/* CallFunction */";
};
width = 1461;
}
);
leftKerningGroup = A;
note = uni023A;
rightKerningGroup = A;
unicode = 023A;
},
{
glyphname = AE;
lastChange = "2024-07-06 19:10:55 +0000";
layers = (
{
layerId = "EC312F70-CB40-4CEF-804A-742881A222CF";
paths = (
{
closed = 1;
nodes = (
"188 0 LINE SMOOTH",
"283 0 OFFCURVE",
"344 41 OFFCURVE",
"380 129 CURVE SMOOTH",
"473 356 LINE",
"958 356 LINE",
"958 166 LINE SMOOTH",
"958 58 OFFCURVE",
"1017 0 OFFCURVE",
"1124 0 CURVE SMOOTH",
"1851 0 LINE SMOOTH",
"1959 0 OFFCURVE",
"2017 47 OFFCURVE",
"2017 132 CURVE SMOOTH",
"2017 217 OFFCURVE",
"1958 264 OFFCURVE",
"1851 264 CURVE SMOOTH",
"1255 264 LINE",
"1255 619 LINE",
"1793 619 LINE SMOOTH",
"1901 619 OFFCURVE",
"1959 665 OFFCURVE",
"1959 748 CURVE SMOOTH",
"1959 831 OFFCURVE",
"1900 876 OFFCURVE",
"1793 876 CURVE SMOOTH",
"1255 876 LINE",
"1255 1226 LINE",
"1851 1226 LINE SMOOTH",
"1959 1226 OFFCURVE",
"2017 1273 OFFCURVE",
"2017 1358 CURVE SMOOTH",
"2017 1443 OFFCURVE",
"1959 1490 OFFCURVE",
"1851 1490 CURVE SMOOTH",
"772 1490 LINE SMOOTH",
"677 1490 OFFCURVE",
"616 1449 OFFCURVE",
"579 1362 CURVE SMOOTH",
"90 193 LINE SMOOTH",
"42 77 OFFCURVE",
"73 0 OFFCURVE",
"168 0 CURVE SMOOTH"
);
},
{
closed = 1;
nodes = (
"569 593 LINE",
"827 1226 LINE",
"958 1226 LINE",
"958 593 LINE"
);
}
);
userData = {
assembly = "NPUSHB[ ]	/* 60 values pushed */\0120 2 0 3 8 2 3 103 0 8 0 6 4 8 6 103 9 1 1 1 0 95 0 0 0 103 77 0 4 4 5 95 10 7 2 5 5 104 5 78 0 0 19 18 17 16 0 15 0 15 17 17 17 17 17 17 17 11 12 29 \012CALL[ ]	/* CallFunction */";
};
width = 2081;
}
);
leftKerningGroup = A;
note = AE;
rightKerningGroup = AE;
unicode = 00C6;
},
{
glyphname = B;
lastChange = "2024-07-06 19:10:55 +0000";
layers = (
{
layerId = "EC312F70-CB40-4CEF-804A-742881A222CF";
paths = (
{
closed = 1;
nodes = (
"111 166 LINE SMOOTH",
"111 58 OFFCURVE",
"169 0 OFFCURVE",
"277 0 CURVE SMOOTH",
"742 0 LINE SMOOTH",
"911.333 0 OFFCURVE",
"1040.667 38.833 OFFCURVE",
"1130 116.5 CURVE SMOOTH",
"1219.333 194.167 OFFCURVE",
"1264 295.333 OFFCURVE",
"1264 420 CURVE SMOOTH",
"1264 526 OFFCURVE",
"1233 610 OFFCURVE",
"1171 672 CURVE SMOOTH",
"1109 734 OFFCURVE",
"1032.667 769 OFFCURVE",
"942 777 CURVE",
"942 779 LINE",
"1024 799.667 OFFCURVE",
"1089 838 OFFCURVE",
"1137 894 CURVE SMOOTH",
"1185 950 OFFCURVE",
"1209 1021 OFFCURVE",
"1209 1107 CURVE SMOOTH",
"1209 1221.667 OFFCURVE",
"1165.5 1314.167 OFFCURVE",
"1078.5 1384.5 CURVE SMOOTH",
"991.5 1454.833 OFFCURVE",
"868 1490 OFFCURVE",
"708 1490 CURVE SMOOTH",
"277 1490 LINE SMOOTH",
"169 1490 OFFCURVE",
"111 1431 OFFCURVE",
"111 1324 CURVE SMOOTH"
);
},
{
closed = 1;
nodes = (
"412 242 LINE",
"412 639 LINE",
"704 639 LINE SMOOTH",
"781.333 639 OFFCURVE",
"841.667 620.833 OFFCURVE",
"885 584.5 CURVE SMOOTH",
"928.333 548.167 OFFCURVE",
"950 499 OFFCURVE",
"950 437 CURVE SMOOTH",
"950 375 OFFCURVE",
"928 327 OFFCURVE",
"884 293 CURVE SMOOTH",
"840 259 OFFCURVE",
"778.333 242 OFFCURVE",
"699 242 CURVE SMOOTH"
);
},
{
closed = 1;
nodes = (
"412 871 LINE",
"412 1248 LINE",
"685 1248 LINE SMOOTH",
"753 1248 OFFCURVE",
"806.333 1231 OFFCURVE",
"845 1197 CURVE SMOOTH",
"883.667 1163 OFFCURVE",
"903 1117 OFFCURVE",
"903 1059 CURVE SMOOTH",
"903 1001.667 OFFCURVE",
"883.667 956 OFFCURVE",
"845 922 CURVE SMOOTH",
"806.333 888 OFFCURVE",
"753 871 OFFCURVE",
"685 871 CURVE SMOOTH"
);
}
);
userData = {
assembly = "NPUSHB[ ]	/* 54 values pushed */\0128 1 3 4 1 76 0 4 0 3 2 4 3 103 0 5 5 0 95 0 0 0 103 77 0 2 2 1 95 6 1 1 1 104 1 78 0 0 33 31 27 25 24 22 18 16 0 15 0 14 33 7 12 23 \012CALL[ ]	/* CallFunction */";
};
width = 1320;
}
);
leftKerningGroup = B;
note = B;
rightKerningGroup = B;
unicode = 0042;
},
{
glyphname = Bhook;
lastChange = "2024-07-06 19:10:55 +0000";
layers = (
{
layerId = "EC312F70-CB40-4CEF-804A-742881A222CF";
paths = (
{
closed = 1;
nodes = (
"31 1085 OFFCURVE",
"82 1033 OFFCURVE",
"177 1033 CURVE SMOOTH",
"271 1033 OFFCURVE",
"322 1075 OFFCURVE",
"322 1151 CURVE SMOOTH",
"322 1205.667 OFFCURVE",
"352 1233 OFFCURVE",
"412 1233 CURVE SMOOTH",
"499 1233 LINE",
"499 166 LINE SMOOTH",
"499 58 OFFCURVE",
"557 0 OFFCURVE",
"665 0 CURVE SMOOTH",
"1130 0 LINE SMOOTH",
"1299.333 0 OFFCURVE",
"1428.667 38.833 OFFCURVE",
"1518 116.5 CURVE SMOOTH",
"1607.333 194.167 OFFCURVE",
"1652 295.333 OFFCURVE",
"1652 420 CURVE SMOOTH",
"1652 526 OFFCURVE",
"1621 610 OFFCURVE",
"1559 672 CURVE SMOOTH",
"1497 734 OFFCURVE",
"1420.667 769 OFFCURVE",
"1330 777 CURVE",
"1330 779 LINE",
"1412 799.667 OFFCURVE",
"1477 838 OFFCURVE",
"1525 894 CURVE SMOOTH",
"1573 950 OFFCURVE",
"1597 1021 OFFCURVE",
"1597 1107 CURVE SMOOTH",
"1597 1221.667 OFFCURVE",
"1553.5 1314.167 OFFCURVE",
"1466.5 1384.5 CURVE SMOOTH",
"1379.5 1454.833 OFFCURVE",
"1256 1490 OFFCURVE",
"1096 1490 CURVE SMOOTH",
"331 1490 LINE SMOOTH",
"233 1490 OFFCURVE",
"158.5 1462.333 OFFCURVE",
"107.5 1407 CURVE SMOOTH",
"56.5 1351.667 OFFCURVE",
"31 1276.667 OFFCURVE",
"31 1182 CURVE SMOOTH"
);
},
{
closed = 1;
nodes = (
"800 242 LINE",
"800 639 LINE",
"1092 639 LINE SMOOTH",
"1169.333 639 OFFCURVE",
"1229.667 620.833 OFFCURVE",
"1273 584.5 CURVE SMOOTH",
"1316.333 548.167 OFFCURVE",
"1338 499 OFFCURVE",
"1338 437 CURVE SMOOTH",
"1338 375 OFFCURVE",
"1316 327 OFFCURVE",
"1272 293 CURVE SMOOTH",
"1228 259 OFFCURVE",
"1166.333 242 OFFCURVE",
"1087 242 CURVE SMOOTH"
);
},
{
closed = 1;
nodes = (
"800 871 LINE",
"800 1248 LINE",
"1073 1248 LINE SMOOTH",
"1141 1248 OFFCURVE",
"1194.333 1231 OFFCURVE",
"1233 1197 CURVE SMOOTH",
"1271.667 1163 OFFCURVE",
"1291 1117 OFFCURVE",
"1291 1059 CURVE SMOOTH",
"1291 1001.667 OFFCURVE",
"1271.667 956 OFFCURVE",
"1233 922 CURVE SMOOTH",
"1194.333 888 OFFCURVE",
"1141 871 OFFCURVE",
"1073 871 CURVE SMOOTH"
);
}
);
userData = {
assembly = "PUSHB[ ]	/* 6 values pushed */\01211 1 5 6 1 76 \012MPPEM[ ]	/* MeasurePixelPerEm */\012PUSHB[ ]	/* 1 value pushed */\01212 \012LT[ ]	/* LessThan */\012IF[ ]	/* If */\012NPUSHB[ ]	/* 38 values pushed */\0128 1 3 2 6 2 3 114 0 6 0 5 4 6 5 103 7 1 2 2 0 95 0 0 0 103 77 0 4 4 1 95 0 1 1 104 1 78 \012ELSE[ ]	/* Else */\012MPPEM[ ]	/* MeasurePixelPerEm */\012PUSHB[ ]	/* 1 value pushed */\01233 \012LT[ ]	/* LessThan */\012IF[ ]	/* If */\012NPUSHB[ ]	/* 39 values pushed */\0128 1 3 2 6 2 3 6 128 0 6 0 5 4 6 5 103 7 1 2 2 0 95 0 0 0 103 77 0 4 4 1 95 0 1 1 104 1 78 \012ELSE[ ]	/* Else */\012NPUSHB[ ]	/* 44 values pushed */\0120 2 7 3 7 2 114 8 1 3 6 7 3 6 126 0 6 0 5 4 6 5 103 0 7 7 0 95 0 0 0 103 77 0 4 4 1 95 0 1 1 104 1 78 \012EIF[ ]	/* EndIf */\012EIF[ ]	/* EndIf */\012NPUSHB[ ]	/* 20 values pushed */\0120 0 42 40 36 34 33 31 27 25 0 24 0 24 33 43 51 9 12 25 \012CALL[ ]	/* CallFunction */";
};
width = 1708;
}
);
leftKerningGroup = B;
note = uni0181;
rightKerningGroup = B;
unicode = 0181;
},
{
glyphname = Btopbar;
lastChange = "2024-07-06 19:10:55 +0000";
layers = (
{
layerId = "EC312F70-CB40-4CEF-804A-742881A222CF";
paths = (
{
closed = 1;
nodes = (
"111 166 LINE SMOOTH",
"111 58 OFFCURVE",
"170 0 OFFCURVE",
"277 0 CURVE SMOOTH",
"668 0 LINE SMOOTH",
"784.667 0 OFFCURVE",
"885.333 20 OFFCURVE",
"970 60 CURVE SMOOTH",
"1054.667 100 OFFCURVE",
"1119.833 155.5 OFFCURVE",
"1165.5 226.5 CURVE SMOOTH",
"1211.167 297.5 OFFCURVE",
"1234 379.333 OFFCURVE",
"1234 472 CURVE SMOOTH",
"1234 565.333 OFFCURVE",
"1211.167 646.333 OFFCURVE",
"1165.5 715 CURVE SMOOTH",
"1119.833 783.667 OFFCURVE",
"1054.667 837 OFFCURVE",
"970 875 CURVE SMOOTH",
"885.333 913 OFFCURVE",
"784.667 932 OFFCURVE",
"668 932 CURVE SMOOTH",
"412 932 LINE",
"412 1240 LINE",
"925 1240 LINE SMOOTH",
"1033 1240 OFFCURVE",
"1091 1284 OFFCURVE",
"1091 1365 CURVE SMOOTH",
"1091 1446 OFFCURVE",
"1032 1490 OFFCURVE",
"925 1490 CURVE SMOOTH",
"277 1490 LINE SMOOTH",
"169 1490 OFFCURVE",
"111 1431 OFFCURVE",
"111 1324 CURVE SMOOTH"
);
},
{
closed = 1;
nodes = (
"412 244 LINE",
"412 691 LINE",
"668 691 LINE SMOOTH",
"754.667 691 OFFCURVE",
"820.833 670.167 OFFCURVE",
"866.5 628.5 CURVE SMOOTH",
"912.167 586.833 OFFCURVE",
"935 535.667 OFFCURVE",
"935 475 CURVE SMOOTH",
"935 413 OFFCURVE",
"912.167 359 OFFCURVE",
"866.5 313 CURVE SMOOTH",
"820.833 267 OFFCURVE",
"754.667 244 OFFCURVE",
"668 244 CURVE SMOOTH"
);
}
);
userData = {
assembly = "NPUSHB[ ]	/* 46 values pushed */\0120 2 0 5 4 2 5 103 0 1 1 0 95 0 0 0 103 77 0 4 4 3 95 6 1 3 3 104 3 78 0 0 23 21 17 15 0 14 0 13 33 17 17 7 12 25 \012CALL[ ]	/* CallFunction */";
};
width = 1292;
}
);
note = uni0182;
unicode = 0182;
},
{
glyphname = C;
lastChange = "2024-07-06 19:10:55 +0000";
layers = (
{
layerId = "EC312F70-CB40-4CEF-804A-742881A222CF";
paths = (
{
closed = 1;
nodes = (
"887.667 -24 OFFCURVE",
"992.5 -1.5 OFFCURVE",
"1085.5 43.5 CURVE SMOOTH",
"1178.5 88.5 OFFCURVE",
"1254.667 152 OFFCURVE",
"1314 234 CURVE SMOOTH",
"1344 276 OFFCURVE",
"1369 322 OFFCURVE",
"1388 371 CURVE SMOOTH",
"1423 463 OFFCURVE",
"1361 523 OFFCURVE",
"1257 523 CURVE SMOOTH",
"1162 523 OFFCURVE",
"1117 477 OFFCURVE",
"1065 394 CURVE SMOOTH",
"1046 366 OFFCURVE",
"1024 341 OFFCURVE",
"997.5 320 CURVE SMOOTH",
"937.167 272 OFFCURVE",
"863 248 OFFCURVE",
"775 248 CURVE SMOOTH",
"648.333 248 OFFCURVE",
"549.667 292.833 OFFCURVE",
"479 382.5 CURVE SMOOTH",
"408.333 472.167 OFFCURVE",
"373 592.667 OFFCURVE",
"373 744 CURVE SMOOTH",
"373 896.667 OFFCURVE",
"408.333 1017.833 OFFCURVE",
"479 1107.5 CURVE SMOOTH",
"549.667 1197.167 OFFCURVE",
"648.333 1242 OFFCURVE",
"775 1242 CURVE SMOOTH",
"863.667 1242 OFFCURVE",
"938.167 1217.833 OFFCURVE",
"998.5 1169.5 CURVE SMOOTH",
"1030 1144 OFFCURVE",
"1055 1114 OFFCURVE",
"1075 1078 CURVE SMOOTH",
"1115 1004 OFFCURVE",
"1161 965 OFFCURVE",
"1256 965 CURVE SMOOTH",
"1272 965 LINE SMOOTH",
"1367 965 OFFCURVE",
"1423 1040 OFFCURVE",
"1374 1151 CURVE SMOOTH",
"1357 1188 OFFCURVE",
"1337 1222 OFFCURVE",
"1314 1254.5 CURVE SMOOTH",
"1254.667 1336.833 OFFCURVE",
"1178.5 1400.667 OFFCURVE",
"1085.5 1446 CURVE SMOOTH",
"992.5 1491.333 OFFCURVE",
"887.667 1514 OFFCURVE",
"771 1514 CURVE SMOOTH",
"634.333 1514 OFFCURVE",
"512.667 1482.833 OFFCURVE",
"406 1420.5 CURVE SMOOTH",
"299.333 1358.167 OFFCURVE",
"215.5 1269.5 OFFCURVE",
"154.5 1154.5 CURVE SMOOTH",
"93.5 1039.5 OFFCURVE",
"63 902.667 OFFCURVE",
"63 744 CURVE SMOOTH",
"63 586.667 OFFCURVE",
"93.5 450.5 OFFCURVE",
"154.5 335.5 CURVE SMOOTH",
"215.5 220.5 OFFCURVE",
"299.333 131.833 OFFCURVE",
"406 69.5 CURVE SMOOTH",
"512.667 7.167 OFFCURVE",
"634.333 -24 OFFCURVE",
"771 -24 CURVE SMOOTH"
);
}
);
userData = {
assembly = "MPPEM[ ]	/* MeasurePixelPerEm */\012PUSHB[ ]	/* 1 value pushed */\01250 \012LT[ ]	/* LessThan */\012IF[ ]	/* If */\012NPUSHB[ ]	/* 37 values pushed */\0120 2 3 5 3 2 5 128 0 5 4 3 5 4 126 0 3 3 1 97 0 1 1 109 77 0 4 4 0 97 6 1 0 0 110 0 78 \012ELSE[ ]	/* Else */\012NPUSHB[ ]	/* 35 values pushed */\0120 2 3 5 3 2 5 128 0 5 4 3 5 4 126 0 1 0 3 2 1 3 105 0 4 4 0 97 6 1 0 0 110 0 78 \012EIF[ ]	/* EndIf */\012NPUSHB[ ]	/* 19 values pushed */\0121 0 26 25 23 21 17 15 13 12 9 7 0 29 1 29 7 12 22 \012CALL[ ]	/* CallFunction */";
};
width = 1487;
}
);
leftKerningGroup = C;
note = C;
rightKerningGroup = C;
unicode = 0043;
},
{
glyphname = Chook;
lastChange = "2024-07-06 19:10:55 +0000";
layers = (
{
layerId = "EC312F70-CB40-4CEF-804A-742881A222CF";
paths = (
{
closed = 1;
nodes = (
"887.667 -24 OFFCURVE",
"992.5 -1.5 OFFCURVE",
"1085.5 43.5 CURVE SMOOTH",
"1178.5 88.5 OFFCURVE",
"1254.667 152 OFFCURVE",
"1314 234 CURVE SMOOTH",
"1344 276 OFFCURVE",
"1369 322 OFFCURVE",
"1388 371 CURVE SMOOTH",
"1423 463 OFFCURVE",
"1361 523 OFFCURVE",
"1257 523 CURVE SMOOTH",
"1162 523 OFFCURVE",
"1117 477 OFFCURVE",
"1065 394 CURVE SMOOTH",
"1046 366 OFFCURVE",
"1024 341 OFFCURVE",
"997.5 320 CURVE SMOOTH",
"937.167 272 OFFCURVE",
"863 248 OFFCURVE",
"775 248 CURVE SMOOTH",
"648.333 248 OFFCURVE",
"549.667 292.833 OFFCURVE",
"479 382.5 CURVE SMOOTH",
"408.333 472.167 OFFCURVE",
"373 592.667 OFFCURVE",
"373 744 CURVE SMOOTH",
"373 896.667 OFFCURVE",
"408.333 1017.833 OFFCURVE",
"479 1107.5 CURVE SMOOTH",
"549.667 1197.167 OFFCURVE",
"648.333 1242 OFFCURVE",
"775 1242 CURVE SMOOTH",
"863.667 1242 OFFCURVE",
"938.167 1217.833 OFFCURVE",
"998.5 1169.5 CURVE SMOOTH",
"1030 1144 OFFCURVE",
"1055 1114 OFFCURVE",
"1075 1078 CURVE SMOOTH",
"1115 1004 OFFCURVE",
"1161 965 OFFCURVE",
"1256 965 CURVE SMOOTH",
"1272 965 LINE SMOOTH",
"1373 965 OFFCURVE",
"1427 1023 OFFCURVE",
"1427 1131 CURVE SMOOTH",
"1427 1345 LINE SMOOTH",
"1427 1407 OFFCURVE",
"1460.667 1438 OFFCURVE",
"1528 1438 CURVE SMOOTH",
"1605 1438 OFFCURVE",
"1647 1480 OFFCURVE",
"1647 1557 CURVE SMOOTH",
"1647 1634 OFFCURVE",
"1590 1676 OFFCURVE",
"1485 1676 CURVE SMOOTH",
"1274.333 1676 OFFCURVE",
"1159 1589.667 OFFCURVE",
"1139 1417 CURVE",
"1032.333 1481.667 OFFCURVE",
"909.667 1514 OFFCURVE",
"771 1514 CURVE SMOOTH",
"634.333 1514 OFFCURVE",
"512.667 1482.833 OFFCURVE",
"406 1420.5 CURVE SMOOTH",
"299.333 1358.167 OFFCURVE",
"215.5 1269.5 OFFCURVE",
"154.5 1154.5 CURVE SMOOTH",
"93.5 1039.5 OFFCURVE",
"63 902.667 OFFCURVE",
"63 744 CURVE SMOOTH",
"63 586.667 OFFCURVE",
"93.5 450.5 OFFCURVE",
"154.5 335.5 CURVE SMOOTH",
"215.5 220.5 OFFCURVE",
"299.333 131.833 OFFCURVE",
"406 69.5 CURVE SMOOTH",
"512.667 7.167 OFFCURVE",
"634.333 -24 OFFCURVE",
"771 -24 CURVE SMOOTH"
);
}
);
userData = {
assembly = "PUSHB[ ]	/* 6 values pushed */\01210 1 5 3 1 76 \012MPPEM[ ]	/* MeasurePixelPerEm */\012PUSHB[ ]	/* 1 value pushed */\01250 \012LT[ ]	/* LessThan */\012IF[ ]	/* If */\012NPUSHB[ ]	/* 45 values pushed */\0120 4 5 7 5 4 7 128 0 7 6 5 7 6 126 0 2 0 3 5 2 3 105 0 5 5 1 97 0 1 1 109 77 0 6 6 0 97 8 1 0 0 110 0 78 \012ELSE[ ]	/* Else */\012NPUSHB[ ]	/* 43 values pushed */\0120 4 5 7 5 4 7 128 0 7 6 5 7 6 126 0 2 0 3 5 2 3 105 0 1 0 5 4 1 5 105 0 6 6 0 97 8 1 0 0 110 0 78 \012EIF[ ]	/* EndIf */\012NPUSHB[ ]	/* 23 values pushed */\0121 0 32 31 29 27 23 21 19 18 16 14 13 11 9 7 0 35 1 35 9 12 22 \012CALL[ ]	/* CallFunction */";
};
width = 1487;
}
);
leftKerningGroup = C;
note = uni0187;
rightKerningGroup = C;
unicode = 0187;
},
{
glyphname = Cstroke;
lastChange = "2024-07-06 19:10:55 +0000";
layers = (
{
layerId = "EC312F70-CB40-4CEF-804A-742881A222CF";
paths = (
{
closed = 1;
nodes = (
"508 -190 OFFCURVE",
"552 -145 OFFCURVE",
"582 -53 CURVE SMOOTH",
"598 -5 LINE",
"653.333 -17.667 OFFCURVE",
"711 -24 OFFCURVE",
"771 -24 CURVE SMOOTH",
"887.667 -24 OFFCURVE",
"992.5 -1.5 OFFCURVE",
"1085.5 43.5 CURVE SMOOTH",
"1178.5 88.5 OFFCURVE",
"1254.667 152 OFFCURVE",
"1314 234 CURVE SMOOTH",
"1344 276 OFFCURVE",
"1369 322 OFFCURVE",
"1388 371 CURVE SMOOTH",
"1423 463 OFFCURVE",
"1361 523 OFFCURVE",
"1257 523 CURVE SMOOTH",
"1162 523 OFFCURVE",
"1117 477 OFFCURVE",
"1065 394 CURVE SMOOTH",
"1046 366 OFFCURVE",
"1024 341 OFFCURVE",
"997.5 320 CURVE SMOOTH",
"937.167 272 OFFCURVE",
"863 248 OFFCURVE",
"775 248 CURVE SMOOTH",
"743 248 OFFCURVE",
"712.667 251 OFFCURVE",
"684 257 CURVE",
"985 1180 LINE",
"1020 1155 OFFCURVE",
"1049 1123 OFFCURVE",
"1071 1086 CURVE SMOOTH",
"1116 1007 OFFCURVE",
"1160 965 OFFCURVE",
"1256 965 CURVE SMOOTH",
"1272 965 LINE SMOOTH",
"1368 965 OFFCURVE",
"1424 1040 OFFCURVE",
"1374 1151 CURVE SMOOTH",
"1357 1190 OFFCURVE",
"1335 1226 OFFCURVE",
"1310 1260.5 CURVE SMOOTH",
"1248 1344.167 OFFCURVE",
"1169.333 1407.667 OFFCURVE",
"1074 1451 CURVE",
"1111 1565 LINE SMOOTH",
"1133 1634 OFFCURVE",
"1111 1678 OFFCURVE",
"1054 1678 CURVE SMOOTH",
"990 1678 OFFCURVE",
"945 1634 OFFCURVE",
"915 1542 CURVE SMOOTH",
"902 1503 LINE",
"860 1510.333 OFFCURVE",
"816.333 1514 OFFCURVE",
"771 1514 CURVE SMOOTH",
"634.333 1514 OFFCURVE",
"512.667 1482.833 OFFCURVE",
"406 1420.5 CURVE SMOOTH",
"299.333 1358.167 OFFCURVE",
"215.5 1269.5 OFFCURVE",
"154.5 1154.5 CURVE SMOOTH",
"93.5 1039.5 OFFCURVE",
"63 902.667 OFFCURVE",
"63 744 CURVE SMOOTH",
"63 580 OFFCURVE",
"96.167 439.167 OFFCURVE",
"162.5 321.5 CURVE SMOOTH",
"228.833 203.833 OFFCURVE",
"318.333 115.333 OFFCURVE",
"431 56 CURVE",
"391 -67 LINE SMOOTH",
"366 -142 OFFCURVE",
"387 -190 OFFCURVE",
"444 -190 CURVE SMOOTH"
);
},
{
closed = 1;
nodes = (
"422.667 424.333 OFFCURVE",
"373 560 OFFCURVE",
"373 744 CURVE SMOOTH",
"373 896.667 OFFCURVE",
"408.333 1017.833 OFFCURVE",
"479 1107.5 CURVE SMOOTH",
"549.667 1197.167 OFFCURVE",
"648.333 1242 OFFCURVE",
"775 1242 CURVE SMOOTH",
"789 1242 OFFCURVE",
"803 1241.333 OFFCURVE",
"817 1240 CURVE",
"522 337 LINE"
);
}
);
userData = {
assembly = "NPUSHB[ ]	/* 20 values pushed */\01213 10 2 7 0 19 1 2 7 20 1 3 4 32 1 2 5 3 4 76 \012MPPEM[ ]	/* MeasurePixelPerEm */\012PUSHB[ ]	/* 1 value pushed */\01250 \012LT[ ]	/* LessThan */\012IF[ ]	/* If */\012NPUSHB[ ]	/* 43 values pushed */\0120 4 2 3 2 4 3 128 8 1 6 5 6 134 0 1 0 2 4 1 2 103 0 7 7 0 97 0 0 0 109 77 0 3 3 5 97 0 5 5 110 5 78 \012ELSE[ ]	/* Else */\012NPUSHB[ ]	/* 41 values pushed */\0120 4 2 3 2 4 3 128 8 1 6 5 6 134 0 0 0 7 2 0 7 105 0 1 0 2 4 1 2 103 0 3 3 5 97 0 5 5 110 5 78 \012EIF[ ]	/* EndIf */\012NPUSHB[ ]	/* 17 values pushed */\0120 0 38 36 0 33 0 33 35 18 36 20 18 39 9 12 28 \012CALL[ ]	/* CallFunction */";
};
width = 1487;
}
);
leftKerningGroup = C;
note = uni023B;
rightKerningGroup = C;
unicode = 023B;
},
{
glyphname = D;
lastChange = "2024-07-06 19:10:55 +0000";
layers = (
{
layerId = "EC312F70-CB40-4CEF-804A-742881A222CF";
paths = (
{
closed = 1;
nodes = (
"789.667 0 OFFCURVE",
"920.833 30.333 OFFCURVE",
"1030.5 91 CURVE SMOOTH",
"1140.167 151.667 OFFCURVE",
"1224.667 237.833 OFFCURVE",
"1284 349.5 CURVE SMOOTH",
"1343.333 461.167 OFFCURVE",
"1373 593.333 OFFCURVE",
"1373 746 CURVE SMOOTH",
"1373 898 OFFCURVE",
"1343.333 1029.667 OFFCURVE",
"1284 1141 CURVE SMOOTH",
"1224.667 1252.333 OFFCURVE",
"1140.333 1338.333 OFFCURVE",
"1031 1399 CURVE SMOOTH",
"921.667 1459.667 OFFCURVE",
"792.333 1490 OFFCURVE",
"643 1490 CURVE SMOOTH",
"277 1490 LINE SMOOTH",
"169 1490 OFFCURVE",
"111 1431 OFFCURVE",
"111 1324 CURVE SMOOTH",
"111 166 LINE SMOOTH",
"111 58 OFFCURVE",
"169 0 OFFCURVE",
"277 0 CURVE SMOOTH",
"637 0 LINE SMOOTH"
);
},
{
closed = 1;
nodes = (
"419 259 LINE",
"419 1231 LINE",
"624 1231 LINE SMOOTH",
"772 1231 OFFCURVE",
"882.167 1189.333 OFFCURVE",
"954.5 1106 CURVE SMOOTH",
"1026.833 1022.667 OFFCURVE",
"1063 902.667 OFFCURVE",
"1063 746 CURVE SMOOTH",
"1063 589.333 OFFCURVE",
"1027 469 OFFCURVE",
"955 385 CURVE SMOOTH",
"883 301 OFFCURVE",
"771.667 259 OFFCURVE",
"621 259 CURVE SMOOTH"
);
}
);
userData = {
assembly = "NPUSHB[ ]	/* 37 values pushed */\0120 3 3 1 95 0 1 1 103 77 0 2 2 0 95 4 1 0 0 104 0 78 1 0 19 17 13 11 4 2 0 10 1 10 5 12 22 \012CALL[ ]	/* CallFunction */";
};
width = 1436;
}
);
leftKerningGroup = B;
note = D;
rightKerningGroup = Oopen;
unicode = 0044;
},
{
glyphname = Dhook;
lastChange = "2024-07-06 19:10:55 +0000";
layers = (
{
layerId = "EC312F70-CB40-4CEF-804A-742881A222CF";
paths = (
{
closed = 1;
nodes = (
"31 1085 OFFCURVE",
"82 1033 OFFCURVE",
"177 1033 CURVE SMOOTH",
"271 1033 OFFCURVE",
"322 1075 OFFCURVE",
"322 1151 CURVE SMOOTH",
"322 1205.667 OFFCURVE",
"352 1233 OFFCURVE",
"412 1233 CURVE SMOOTH",
"499 1233 LINE",
"499 166 LINE SMOOTH",
"499 58 OFFCURVE",
"557 0 OFFCURVE",
"665 0 CURVE SMOOTH",
"1025 0 LINE SMOOTH",
"1177.667 0 OFFCURVE",
"1308.833 30.333 OFFCURVE",
"1418.5 91 CURVE SMOOTH",
"1528.167 151.667 OFFCURVE",
"1612.667 237.833 OFFCURVE",
"1672 349.5 CURVE SMOOTH",
"1731.333 461.167 OFFCURVE",
"1761 593.333 OFFCURVE",
"1761 746 CURVE SMOOTH",
"1761 898 OFFCURVE",
"1731.333 1029.667 OFFCURVE",
"1672 1141 CURVE SMOOTH",
"1612.667 1252.333 OFFCURVE",
"1528.333 1338.333 OFFCURVE",
"1419 1399 CURVE SMOOTH",
"1309.667 1459.667 OFFCURVE",
"1180.333 1490 OFFCURVE",
"1031 1490 CURVE SMOOTH",
"331 1490 LINE SMOOTH",
"233 1490 OFFCURVE",
"158.5 1462.333 OFFCURVE",
"107.5 1407 CURVE SMOOTH",
"56.5 1351.667 OFFCURVE",
"31 1276.667 OFFCURVE",
"31 1182 CURVE SMOOTH"
);
},
{
closed = 1;
nodes = (
"807 259 LINE",
"807 1231 LINE",
"1012 1231 LINE SMOOTH",
"1160 1231 OFFCURVE",
"1270.167 1189.333 OFFCURVE",
"1342.5 1106 CURVE SMOOTH",
"1414.833 1022.667 OFFCURVE",
"1451 902.667 OFFCURVE",
"1451 746 CURVE SMOOTH",
"1451 589.333 OFFCURVE",
"1415 469 OFFCURVE",
"1343 385 CURVE SMOOTH",
"1271 301 OFFCURVE",
"1159.667 259 OFFCURVE",
"1009 259 CURVE SMOOTH"
);
}
);
userData = {
assembly = "MPPEM[ ]	/* MeasurePixelPerEm */\012PUSHB[ ]	/* 1 value pushed */\01212 \012LT[ ]	/* LessThan */\012IF[ ]	/* If */\012NPUSHB[ ]	/* 30 values pushed */\0126 1 3 2 4 2 3 114 5 1 2 2 0 95 0 0 0 103 77 0 4 4 1 95 0 1 1 104 1 78 \012ELSE[ ]	/* Else */\012NPUSHB[ ]	/* 31 values pushed */\0126 1 3 2 4 2 3 4 128 5 1 2 2 0 95 0 0 0 103 77 0 4 4 1 95 0 1 1 104 1 78 \012EIF[ ]	/* EndIf */\012NPUSHB[ ]	/* 16 values pushed */\0120 0 28 26 22 20 0 19 0 19 33 38 51 7 12 25 \012CALL[ ]	/* CallFunction */";
};
width = 1824;
}
);
leftKerningGroup = B;
note = uni018A;
rightKerningGroup = Oopen;
unicode = 018A;
},
{
glyphname = Dtopbar;
lastChange = "2024-07-06 19:10:55 +0000";
layers = (
{
layerId = "EC312F70-CB40-4CEF-804A-742881A222CF";
paths = (
{
closed = 1;
nodes = (
"1055 0 LINE SMOOTH",
"1163 0 OFFCURVE",
"1221 58 OFFCURVE",
"1221 166 CURVE SMOOTH",
"1221 1316 LINE SMOOTH",
"1221 1424 OFFCURVE",
"1163 1482 OFFCURVE",
"1055 1482 CURVE SMOOTH",
"409 1482 LINE SMOOTH",
"301 1482 OFFCURVE",
"243 1438 OFFCURVE",
"243 1357 CURVE SMOOTH",
"243 1276 OFFCURVE",
"302 1232 OFFCURVE",
"409 1232 CURVE SMOOTH",
"916 1232 LINE",
"916 935 LINE",
"665 935 LINE SMOOTH",
"548.333 935 OFFCURVE",
"447.833 915.667 OFFCURVE",
"363.5 877 CURVE SMOOTH",
"279.167 838.333 OFFCURVE",
"214.167 784.333 OFFCURVE",
"168.5 715 CURVE SMOOTH",
"122.833 645.667 OFFCURVE",
"100 564.667 OFFCURVE",
"100 472 CURVE SMOOTH",
"100 379.333 OFFCURVE",
"122.833 297.5 OFFCURVE",
"168.5 226.5 CURVE SMOOTH",
"214.167 155.5 OFFCURVE",
"279.167 100 OFFCURVE",
"363.5 60 CURVE SMOOTH",
"447.833 20 OFFCURVE",
"548.333 0 OFFCURVE",
"665 0 CURVE SMOOTH"
);
},
{
closed = 1;
nodes = (
"916 245 LINE",
"665 245 LINE SMOOTH",
"577.667 245 OFFCURVE",
"512.5 267.833 OFFCURVE",
"469.5 313.5 CURVE SMOOTH",
"426.5 359.167 OFFCURVE",
"405 413 OFFCURVE",
"405 475 CURVE SMOOTH",
"405 535.667 OFFCURVE",
"426.5 586.667 OFFCURVE",
"469.5 628 CURVE SMOOTH",
"512.5 669.333 OFFCURVE",
"577.667 690 OFFCURVE",
"665 690 CURVE SMOOTH",
"916 690 LINE"
);
}
);
userData = {
assembly = "NPUSHB[ ]	/* 44 values pushed */\0120 1 0 4 5 1 4 103 0 2 2 3 95 0 3 3 103 77 6 1 5 5 0 95 0 0 0 104 0 78 15 15 15 23 15 22 34 17 17 38 32 7 12 27 \012CALL[ ]	/* CallFunction */";
};
width = 1319;
}
);
note = uni018B;
unicode = 018B;
},
{
glyphname = E;
lastChange = "2024-07-06 19:10:55 +0000";
layers = (
{
layerId = "EC312F70-CB40-4CEF-804A-742881A222CF";
paths = (
{
closed = 1;
nodes = (
"111 166 LINE SMOOTH",
"111 58 OFFCURVE",
"169 0 OFFCURVE",
"277 0 CURVE SMOOTH",
"1014 0 LINE SMOOTH",
"1122 0 OFFCURVE",
"1180 47 OFFCURVE",
"1180 132 CURVE SMOOTH",
"1180 217 OFFCURVE",
"1121 264 OFFCURVE",
"1014 264 CURVE SMOOTH",
"419 264 LINE",
"419 624 LINE",
"957 624 LINE SMOOTH",
"1065 624 OFFCURVE",
"1123 670 OFFCURVE",
"1123 753 CURVE SMOOTH",
"1123 836 OFFCURVE",
"1064 881 OFFCURVE",
"957 881 CURVE SMOOTH",
"419 881 LINE",
"419 1226 LINE",
"1014 1226 LINE SMOOTH",
"1122 1226 OFFCURVE",
"1180 1273 OFFCURVE",
"1180 1358 CURVE SMOOTH",
"1180 1443 OFFCURVE",
"1122 1490 OFFCURVE",
"1014 1490 CURVE SMOOTH",
"277 1490 LINE SMOOTH",
"169 1490 OFFCURVE",
"111 1431 OFFCURVE",
"111 1324 CURVE SMOOTH"
);
}
);
userData = {
assembly = "NPUSHB[ ]	/* 44 values pushed */\0120 2 0 3 4 2 3 103 0 1 1 0 95 0 0 0 103 77 0 4 4 5 95 6 1 5 5 104 5 78 0 0 0 11 0 11 17 17 17 17 17 7 12 27 \012CALL[ ]	/* CallFunction */";
};
width = 1245;
}
);
leftKerningGroup = B;
note = E;
rightKerningGroup = AE;
unicode = 0045;
},
{
glyphname = Eopen;
lastChange = "2024-07-06 19:10:55 +0000";
layers = (
{
layerId = "EC312F70-CB40-4CEF-804A-742881A222CF";
paths = (
{
closed = 1;
nodes = (
"755 -24 OFFCURVE",
"859 -0.667 OFFCURVE",
"943 46 CURVE SMOOTH",
"1027 92.667 OFFCURVE",
"1090.5 155 OFFCURVE",
"1133.5 233 CURVE SMOOTH",
"1155 273 OFFCURVE",
"1172 314 OFFCURVE",
"1182 358 CURVE SMOOTH",
"1203 442 OFFCURVE",
"1144 492 OFFCURVE",
"1051 492 CURVE SMOOTH",
"953 492 OFFCURVE",
"919 440 OFFCURVE",
"874 347 CURVE SMOOTH",
"863 326 OFFCURVE",
"849 306 OFFCURVE",
"832.5 289 CURVE SMOOTH",
"784.833 240.333 OFFCURVE",
"718.667 216 OFFCURVE",
"634 216 CURVE SMOOTH",
"554.667 216 OFFCURVE",
"490.167 236.167 OFFCURVE",
"440.5 276.5 CURVE SMOOTH",
"390.833 316.833 OFFCURVE",
"366 370.333 OFFCURVE",
"366 437 CURVE SMOOTH",
"366 500.333 OFFCURVE",
"392.833 551.167 OFFCURVE",
"446.5 589.5 CURVE SMOOTH",
"500.167 627.833 OFFCURVE",
"571 647 OFFCURVE",
"659 647 CURVE SMOOTH",
"745 647 OFFCURVE",
"792 687 OFFCURVE",
"792 760 CURVE SMOOTH",
"792 833 OFFCURVE",
"745 872 OFFCURVE",
"659 872 CURVE SMOOTH",
"578.333 872 OFFCURVE",
"514.333 889.5 OFFCURVE",
"467 924.5 CURVE SMOOTH",
"419.667 959.5 OFFCURVE",
"396 1007 OFFCURVE",
"396 1067 CURVE SMOOTH",
"396 1131 OFFCURVE",
"418 1182.333 OFFCURVE",
"462 1221 CURVE SMOOTH",
"506 1259.667 OFFCURVE",
"563.333 1279 OFFCURVE",
"634 1279 CURVE SMOOTH",
"707.333 1279 OFFCURVE",
"766.5 1257.667 OFFCURVE",
"811.5 1215 CURVE SMOOTH",
"835 1193 OFFCURVE",
"852 1167 OFFCURVE",
"863 1137 CURVE SMOOTH",
"886 1075 OFFCURVE",
"925 1043 OFFCURVE",
"1022 1043 CURVE SMOOTH",
"1024 1043 LINE SMOOTH",
"1115 1043 OFFCURVE",
"1178 1112 OFFCURVE",
"1135 1220 CURVE SMOOTH",
"1126 1243 OFFCURVE",
"1115 1265 OFFCURVE",
"1102.5 1285.5 CURVE SMOOTH",
"1058.833 1356.5 OFFCURVE",
"997 1412.333 OFFCURVE",
"917 1453 CURVE SMOOTH",
"837 1493.667 OFFCURVE",
"742.667 1514 OFFCURVE",
"634 1514 CURVE SMOOTH",
"532.667 1514 OFFCURVE",
"442.5 1496.167 OFFCURVE",
"363.5 1460.5 CURVE SMOOTH",
"284.5 1424.833 OFFCURVE",
"222.333 1375.833 OFFCURVE",
"177 1313.5 CURVE SMOOTH",
"131.667 1251.167 OFFCURVE",
"109 1179.333 OFFCURVE",
"109 1098 CURVE SMOOTH",
"109 1014 OFFCURVE",
"135.333 943.667 OFFCURVE",
"188 887 CURVE SMOOTH",
"240.667 830.333 OFFCURVE",
"309 793.333 OFFCURVE",
"393 776 CURVE",
"393 773 LINE",
"289 759.667 OFFCURVE",
"208 719.667 OFFCURVE",
"150 653 CURVE SMOOTH",
"92 586.333 OFFCURVE",
"63 508.667 OFFCURVE",
"63 420 CURVE SMOOTH",
"63 334 OFFCURVE",
"87.167 257.667 OFFCURVE",
"135.5 191 CURVE SMOOTH",
"183.833 124.333 OFFCURVE",
"250.667 71.833 OFFCURVE",
"336 33.5 CURVE SMOOTH",
"421.333 -4.833 OFFCURVE",
"519.667 -24 OFFCURVE",
"631 -24 CURVE SMOOTH"
);
}
);
userData = {
assembly = "PUSHB[ ]	/* 6 values pushed */\0127 1 5 4 1 76 \012MPPEM[ ]	/* MeasurePixelPerEm */\012PUSHB[ ]	/* 1 value pushed */\01250 \012LT[ ]	/* LessThan */\012IF[ ]	/* If */\012NPUSHB[ ]	/* 46 values pushed */\0120 2 3 4 3 2 4 128 0 7 5 6 5 7 6 128 0 4 0 5 7 4 5 105 0 3 3 1 97 0 1 1 109 77 0 6 6 0 97 8 1 0 0 110 0 78 \012ELSE[ ]	/* Else */\012NPUSHB[ ]	/* 44 values pushed */\0120 2 3 4 3 2 4 128 0 7 5 6 5 7 6 128 0 1 0 3 2 1 3 105 0 4 0 5 7 4 5 105 0 6 6 0 97 8 1 0 0 110 0 78 \012EIF[ ]	/* EndIf */\012NPUSHB[ ]	/* 23 values pushed */\0121 0 42 41 39 37 33 31 30 28 24 22 20 19 16 14 0 45 1 45 9 12 22 \012CALL[ ]	/* CallFunction */";
};
width = 1269;
}
);
note = Epsilon1;
unicode = 0190;
},
{
glyphname = Ereversed;
lastChange = "2024-07-06 19:10:55 +0000";
layers = (
{
layerId = "EC312F70-CB40-4CEF-804A-742881A222CF";
paths = (
{
closed = 1;
nodes = (
"1134 1324 LINE SMOOTH",
"1134 1432 OFFCURVE",
"1076 1490 OFFCURVE",
"968 1490 CURVE SMOOTH",
"231 1490 LINE SMOOTH",
"123 1490 OFFCURVE",
"65 1443 OFFCURVE",
"65 1358 CURVE SMOOTH",
"65 1273 OFFCURVE",
"124 1226 OFFCURVE",
"231 1226 CURVE SMOOTH",
"826 1226 LINE",
"826 866 LINE",
"288 866 LINE SMOOTH",
"180 866 OFFCURVE",
"122 821 OFFCURVE",
"122 738 CURVE SMOOTH",
"122 655 OFFCURVE",
"181 609 OFFCURVE",
"288 609 CURVE SMOOTH",
"826 609 LINE",
"826 264 LINE",
"231 264 LINE SMOOTH",
"123 264 OFFCURVE",
"65 217 OFFCURVE",
"65 132 CURVE SMOOTH",
"65 47 OFFCURVE",
"123 0 OFFCURVE",
"231 0 CURVE SMOOTH",
"968 0 LINE SMOOTH",
"1076 0 OFFCURVE",
"1134 59 OFFCURVE",
"1134 166 CURVE SMOOTH"
);
}
);
userData = {
assembly = "NPUSHB[ ]	/* 44 values pushed */\0120 3 0 2 1 3 2 103 0 4 4 5 95 6 1 5 5 103 77 0 1 1 0 95 0 0 0 104 0 78 0 0 0 11 0 11 17 17 17 17 17 7 12 27 \012CALL[ ]	/* CallFunction */";
};
width = 1245;
}
);
note = Eturn;
rightKerningGroup = Ereversed;
unicode = 018E;
},
{
glyphname = Estroke;
lastChange = "2024-07-06 19:10:55 +0000";
layers = (
{
layerId = "EC312F70-CB40-4CEF-804A-742881A222CF";
paths = (
{
closed = 1;
nodes = (
"438 -190 OFFCURVE",
"478 -144 OFFCURVE",
"505 -50 CURVE SMOOTH",
"519 0 LINE",
"1014 0 LINE SMOOTH",
"1122 0 OFFCURVE",
"1180 47 OFFCURVE",
"1180 132 CURVE SMOOTH",
"1180 217 OFFCURVE",
"1122 264 OFFCURVE",
"1014 264 CURVE SMOOTH",
"595 264 LINE",
"699 624 LINE",
"957 624 LINE SMOOTH",
"1065 624 OFFCURVE",
"1123 670 OFFCURVE",
"1123 753 CURVE SMOOTH",
"1123 836 OFFCURVE",
"1065 881 OFFCURVE",
"957 881 CURVE SMOOTH",
"773 881 LINE",
"873 1226 LINE",
"1027 1226 LINE SMOOTH",
"1126 1226 OFFCURVE",
"1180 1273 OFFCURVE",
"1180 1358 CURVE SMOOTH",
"1180 1443 OFFCURVE",
"1121 1490 OFFCURVE",
"1014 1490 CURVE SMOOTH",
"948 1490 LINE",
"976 1584 LINE SMOOTH",
"993 1641 OFFCURVE",
"971 1678 OFFCURVE",
"921 1678 CURVE SMOOTH",
"866 1678 OFFCURVE",
"825 1633 OFFCURVE",
"798 1539 CURVE SMOOTH",
"784 1490 LINE",
"277 1490 LINE SMOOTH",
"169 1490 OFFCURVE",
"111 1431 OFFCURVE",
"111 1324 CURVE SMOOTH",
"111 166 LINE SMOOTH",
"111 58 OFFCURVE",
"169 0 OFFCURVE",
"277 0 CURVE SMOOTH",
"354 0 LINE",
"327 -95 LINE SMOOTH",
"310 -153 OFFCURVE",
"331 -190 OFFCURVE",
"382 -190 CURVE SMOOTH"
);
},
{
closed = 1;
nodes = (
"419 881 LINE",
"419 1226 LINE",
"708 1226 LINE",
"608 881 LINE"
);
},
{
closed = 1;
nodes = (
"419 264 LINE",
"419 624 LINE",
"534 624 LINE",
"430 264 LINE"
);
}
);
userData = {
assembly = "PUSHB[ ]	/* 5 values pushed */\01227 1 7 1 75 \012MPPEM[ ]	/* MeasurePixelPerEm */\012PUSHB[ ]	/* 1 value pushed */\01214 \012LT[ ]	/* LessThan */\012IF[ ]	/* If */\012NPUSHB[ ]	/* 47 values pushed */\0120 2 1 1 2 112 13 1 9 0 9 134 14 11 2 5 12 1 6 7 5 6 103 10 1 4 4 1 95 3 1 1 1 103 77 0 7 7 0 95 8 1 0 0 104 0 78 \012ELSE[ ]	/* Else */\012NPUSHB[ ]	/* 46 values pushed */\0120 2 1 2 133 13 1 9 0 9 134 14 11 2 5 12 1 6 7 5 6 103 10 1 4 4 1 95 3 1 1 1 103 77 0 7 7 0 95 8 1 0 0 104 0 78 \012EIF[ ]	/* EndIf */\012NPUSHB[ ]	/* 28 values pushed */\01220 20 0 0 26 25 20 23 20 23 22 21 0 19 0 19 17 17 17 17 17 17 17 17 17 15 12 31 \012CALL[ ]	/* CallFunction */";
};
width = 1245;
}
);
leftKerningGroup = B;
note = uni0246;
rightKerningGroup = AE;
unicode = 0246;
},
{
glyphname = Ezh;
lastChange = "2024-07-06 19:10:55 +0000";
layers = (
{
layerId = "EC312F70-CB40-4CEF-804A-742881A222CF";
paths = (
{
closed = 1;
nodes = (
"83 -92 OFFCURVE",
"105 -137 OFFCURVE",
"132.5 -179 CURVE SMOOTH",
"187.5 -261 OFFCURVE",
"261 -325.167 OFFCURVE",
"353 -371.5 CURVE SMOOTH",
"445 -417.833 OFFCURVE",
"549 -441 OFFCURVE",
"665 -441 CURVE SMOOTH",
"788.333 -441 OFFCURVE",
"897.333 -413.333 OFFCURVE",
"992 -358 CURVE SMOOTH",
"1086.667 -302.667 OFFCURVE",
"1160.833 -226.5 OFFCURVE",
"1214.5 -129.5 CURVE SMOOTH",
"1268.167 -32.5 OFFCURVE",
"1295 78.333 OFFCURVE",
"1295 203 CURVE SMOOTH",
"1295 313 OFFCURVE",
"1272.833 410.833 OFFCURVE",
"1228.5 496.5 CURVE SMOOTH",
"1184.167 582.167 OFFCURVE",
"1122.667 651 OFFCURVE",
"1044 703 CURVE SMOOTH",
"965.333 755 OFFCURVE",
"873.333 785 OFFCURVE",
"768 793 CURVE",
"768 807 LINE",
"1169 1189 LINE SMOOTH",
"1231 1248 OFFCURVE",
"1257 1304 OFFCURVE",
"1257 1381 CURVE SMOOTH",
"1257 1451 OFFCURVE",
"1199 1490 OFFCURVE",
"1091 1490 CURVE SMOOTH",
"293 1490 LINE SMOOTH",
"185 1490 OFFCURVE",
"127 1445 OFFCURVE",
"127 1363 CURVE SMOOTH",
"127 1281 OFFCURVE",
"185 1235 OFFCURVE",
"293 1235 CURVE SMOOTH",
"879 1235 LINE",
"879 1223 LINE",
"543 902 LINE SMOOTH",
"481 842 OFFCURVE",
"456 786 OFFCURVE",
"456 708 CURVE SMOOTH",
"456 637 OFFCURVE",
"511 598 OFFCURVE",
"612 598 CURVE SMOOTH",
"720.667 598 OFFCURVE",
"809.833 562.167 OFFCURVE",
"879.5 490.5 CURVE SMOOTH",
"949.167 418.833 OFFCURVE",
"984 321 OFFCURVE",
"984 197 CURVE SMOOTH",
"984 123.667 OFFCURVE",
"971.167 58.167 OFFCURVE",
"945.5 0.5 CURVE SMOOTH",
"919.833 -57.167 OFFCURVE",
"883.167 -102.667 OFFCURVE",
"835.5 -136 CURVE SMOOTH",
"787.833 -169.333 OFFCURVE",
"730.667 -186 OFFCURVE",
"664 -186 CURVE SMOOTH",
"607.333 -186 OFFCURVE",
"555.667 -173.833 OFFCURVE",
"509 -149.5 CURVE SMOOTH",
"462.333 -125.167 OFFCURVE",
"424.667 -91.333 OFFCURVE",
"396 -48 CURVE SMOOTH",
"381 -26 OFFCURVE",
"370 -2 OFFCURVE",
"362 24 CURVE SMOOTH",
"346 77 OFFCURVE",
"301 103 OFFCURVE",
"204 103 CURVE SMOOTH",
"197 103 LINE SMOOTH",
"102 103 OFFCURVE",
"41 47 OFFCURVE",
"69 -45 CURVE SMOOTH"
);
}
);
userData = {
assembly = "NPUSHB[ ]	/* 11 values pushed */\01220 1 3 4 21 14 2 2 3 2 76 \012MPPEM[ ]	/* MeasurePixelPerEm */\012PUSHB[ ]	/* 1 value pushed */\01245 \012LT[ ]	/* LessThan */\012IF[ ]	/* If */\012NPUSHB[ ]	/* 36 values pushed */\0120 2 3 0 3 2 0 128 0 0 1 3 0 1 126 0 3 3 4 95 0 4 4 103 77 0 1 1 5 97 0 5 5 108 5 78 \012ELSE[ ]	/* Else */\012NPUSHB[ ]	/* 33 values pushed */\0120 2 3 0 3 2 0 128 0 0 1 3 0 1 126 0 1 0 5 1 5 101 0 3 3 4 95 0 4 4 103 3 78 \012EIF[ ]	/* EndIf */\012NPUSHB[ ]	/* 9 values pushed */\01242 17 34 37 35 16 6 12 28 \012CALL[ ]	/* CallFunction */";
};
width = 1350;
}
);
note = uni01B7;
rightKerningGroup = B;
unicode = 01B7;
},
{
glyphname = Ezhreversed;
lastChange = "2024-07-06 19:10:55 +0000";
layers = (
{
layerId = "EC312F70-CB40-4CEF-804A-742881A222CF";
paths = (
{
closed = 1;
nodes = (
"1147 103 LINE SMOOTH",
"1049 103 OFFCURVE",
"1012 53 OFFCURVE",
"963 -35 CURVE SMOOTH",
"948 -61 OFFCURVE",
"929 -85 OFFCURVE",
"905 -106 CURVE SMOOTH",
"845 -159.333 OFFCURVE",
"772.333 -186 OFFCURVE",
"687 -186 CURVE SMOOTH",
"620.333 -186 OFFCURVE",
"563.167 -169.333 OFFCURVE",
"515.5 -136 CURVE SMOOTH",
"467.833 -102.667 OFFCURVE",
"431.333 -57.167 OFFCURVE",
"406 0.5 CURVE SMOOTH",
"380.667 58.167 OFFCURVE",
"368 123.667 OFFCURVE",
"368 197 CURVE SMOOTH",
"368 279.667 OFFCURVE",
"383.833 351 OFFCURVE",
"415.5 411 CURVE SMOOTH",
"447.167 471 OFFCURVE",
"491 517.167 OFFCURVE",
"547 549.5 CURVE SMOOTH",
"603 581.833 OFFCURVE",
"667 598 OFFCURVE",
"739 598 CURVE SMOOTH",
"840 598 OFFCURVE",
"895 637 OFFCURVE",
"895 708 CURVE SMOOTH",
"895 786 OFFCURVE",
"870 842 OFFCURVE",
"808 902 CURVE SMOOTH",
"471 1223 LINE",
"471 1235 LINE",
"1058 1235 LINE SMOOTH",
"1166 1235 OFFCURVE",
"1224 1280 OFFCURVE",
"1224 1363 CURVE SMOOTH",
"1224 1445 OFFCURVE",
"1166 1490 OFFCURVE",
"1058 1490 CURVE SMOOTH",
"260 1490 LINE SMOOTH",
"152 1490 OFFCURVE",
"94 1451 OFFCURVE",
"94 1381 CURVE SMOOTH",
"94 1304 OFFCURVE",
"120 1248 OFFCURVE",
"182 1189 CURVE SMOOTH",
"583 807 LINE",
"583 793 LINE",
"478.333 785 OFFCURVE",
"386.333 755 OFFCURVE",
"307 703 CURVE SMOOTH",
"227.667 651 OFFCURVE",
"166 582.167 OFFCURVE",
"122 496.5 CURVE SMOOTH",
"78 410.833 OFFCURVE",
"56 313 OFFCURVE",
"56 203 CURVE SMOOTH",
"56 78.333 OFFCURVE",
"82.667 -32.5 OFFCURVE",
"136 -129.5 CURVE SMOOTH",
"189.333 -226.5 OFFCURVE",
"263.333 -302.667 OFFCURVE",
"358 -358 CURVE SMOOTH",
"452.667 -413.333 OFFCURVE",
"561.667 -441 OFFCURVE",
"685 -441 CURVE SMOOTH",
"801 -441 OFFCURVE",
"905.167 -417.833 OFFCURVE",
"997.5 -371.5 CURVE SMOOTH",
"1089.833 -325.167 OFFCURVE",
"1163.5 -261 OFFCURVE",
"1218.5 -179 CURVE SMOOTH",
"1246 -137 OFFCURVE",
"1268 -92 OFFCURVE",
"1283 -44 CURVE SMOOTH",
"1310 47 OFFCURVE",
"1251 103 OFFCURVE",
"1155 103 CURVE SMOOTH"
);
}
);
userData = {
assembly = "NPUSHB[ ]	/* 11 values pushed */\01214 1 2 1 20 12 2 3 2 2 76 \012MPPEM[ ]	/* MeasurePixelPerEm */\012PUSHB[ ]	/* 1 value pushed */\01245 \012LT[ ]	/* LessThan */\012IF[ ]	/* If */\012NPUSHB[ ]	/* 37 values pushed */\0120 3 2 5 2 3 5 128 6 1 5 4 2 5 4 126 0 2 2 1 95 0 1 1 103 77 0 4 4 0 97 0 0 0 108 0 78 \012ELSE[ ]	/* Else */\012NPUSHB[ ]	/* 34 values pushed */\0120 3 2 5 2 3 5 128 6 1 5 4 2 5 4 126 0 4 0 0 4 0 101 0 2 2 1 95 0 1 1 103 2 78 \012EIF[ ]	/* EndIf */\012NPUSHB[ ]	/* 14 values pushed */\0120 0 0 33 0 33 38 35 17 26 35 7 12 27 \012CALL[ ]	/* CallFunction */";
};
width = 1351;
}
);
note = uni01B8;
unicode = 01B8;
},
{
glyphname = F;
lastChange = "2024-07-06 19:10:55 +0000";
layers = (
{
layerId = "EC312F70-CB40-4CEF-804A-742881A222CF";
paths = (
{
closed = 1;
nodes = (
"111 166 LINE SMOOTH",
"111 58 OFFCURVE",
"165 0 OFFCURVE",
"265 0 CURVE SMOOTH",
"365 0 OFFCURVE",
"419 59 OFFCURVE",
"419 166 CURVE SMOOTH",
"419 604 LINE",
"931 604 LINE SMOOTH",
"1039 604 OFFCURVE",
"1097 649 OFFCURVE",
"1097 732 CURVE SMOOTH",
"1097 815 OFFCURVE",
"1039 860 OFFCURVE",
"931 860 CURVE SMOOTH",
"419 860 LINE",
"419 1226 LINE",
"981 1226 LINE SMOOTH",
"1089 1226 OFFCURVE",
"1147 1273 OFFCURVE",
"1147 1358 CURVE SMOOTH",
"1147 1443 OFFCURVE",
"1089 1490 OFFCURVE",
"981 1490 CURVE SMOOTH",
"277 1490 LINE SMOOTH",
"169 1490 OFFCURVE",
"111 1431 OFFCURVE",
"111 1324 CURVE SMOOTH"
);
}
);
userData = {
assembly = "NPUSHB[ ]	/* 38 values pushed */\0120 2 0 3 4 2 3 103 0 1 1 0 95 0 0 0 103 77 5 1 4 4 104 4 78 0 0 0 9 0 9 17 17 17 17 6 12 26 \012CALL[ ]	/* CallFunction */";
};
width = 1191;
}
);
leftKerningGroup = B;
note = F;
rightKerningGroup = F;
unicode = 0046;
},
{
glyphname = Fhook;
lastChange = "2024-07-06 19:10:55 +0000";
layers = (
{
layerId = "EC312F70-CB40-4CEF-804A-742881A222CF";
paths = (
{
closed = 1;
nodes = (
"-106 -375 OFFCURVE",
"-48 -418 OFFCURVE",
"60 -418 CURVE SMOOTH",
"61 -418 LINE SMOOTH",
"299.667 -418 OFFCURVE",
"419 -311.667 OFFCURVE",
"419 -99 CURVE SMOOTH",
"419 604 LINE",
"931 604 LINE SMOOTH",
"1039 604 OFFCURVE",
"1097 649 OFFCURVE",
"1097 732 CURVE SMOOTH",
"1097 815 OFFCURVE",
"1039 860 OFFCURVE",
"931 860 CURVE SMOOTH",
"419 860 LINE",
"419 1226 LINE",
"981 1226 LINE SMOOTH",
"1089 1226 OFFCURVE",
"1147 1273 OFFCURVE",
"1147 1358 CURVE SMOOTH",
"1147 1443 OFFCURVE",
"1089 1490 OFFCURVE",
"981 1490 CURVE SMOOTH",
"277 1490 LINE SMOOTH",
"169 1490 OFFCURVE",
"111 1432 OFFCURVE",
"111 1324 CURVE SMOOTH",
"111 -83 LINE SMOOTH",
"111 -143 OFFCURVE",
"78.333 -173 OFFCURVE",
"13 -173 CURVE SMOOTH",
"-64 -173 OFFCURVE",
"-106 -217 OFFCURVE",
"-106 -296 CURVE SMOOTH"
);
}
);
userData = {
assembly = "NPUSHB[ ]	/* 44 values pushed */\0120 3 0 4 0 3 4 103 0 2 2 1 95 0 1 1 103 77 0 0 0 5 95 6 1 5 5 108 5 78 0 0 0 15 0 14 17 17 17 18 33 7 12 27 \012CALL[ ]	/* CallFunction */";
};
width = 1191;
}
);
leftKerningGroup = Fhook;
note = uni0191;
rightKerningGroup = F;
unicode = 0191;
},
{
glyphname = G;
lastChange = "2024-07-06 19:10:55 +0000";
layers = (
{
layerId = "EC312F70-CB40-4CEF-804A-742881A222CF";
paths = (
{
closed = 1;
nodes = (
"900.667 -24 OFFCURVE",
"1014.667 2.5 OFFCURVE",
"1114 55.5 CURVE SMOOTH",
"1213.333 108.5 OFFCURVE",
"1291.167 182 OFFCURVE",
"1347.5 276 CURVE SMOOTH",
"1403.833 370 OFFCURVE",
"1432 478.667 OFFCURVE",
"1432 602 CURVE SMOOTH",
"1432 626 LINE SMOOTH",
"1432 734 OFFCURVE",
"1373 792 OFFCURVE",
"1266 792 CURVE SMOOTH",
"972 792 LINE SMOOTH",
"864 792 OFFCURVE",
"806 751 OFFCURVE",
"806 675 CURVE SMOOTH",
"806 599 OFFCURVE",
"864 558 OFFCURVE",
"972 558 CURVE SMOOTH",
"1131 558 LINE",
"1129.667 465.333 OFFCURVE",
"1096.5 390.5 OFFCURVE",
"1031.5 333.5 CURVE SMOOTH",
"966.5 276.5 OFFCURVE",
"882.667 248 OFFCURVE",
"780 248 CURVE SMOOTH",
"653.333 248 OFFCURVE",
"553.833 292.5 OFFCURVE",
"481.5 381.5 CURVE SMOOTH",
"409.167 470.5 OFFCURVE",
"373 591.333 OFFCURVE",
"373 744 CURVE SMOOTH",
"373 897.333 OFFCURVE",
"408.833 1018.667 OFFCURVE",
"480.5 1108 CURVE SMOOTH",
"552.167 1197.333 OFFCURVE",
"650.667 1242 OFFCURVE",
"776 1242 CURVE SMOOTH",
"865.333 1242 OFFCURVE",
"939.167 1219.167 OFFCURVE",
"997.5 1173.5 CURVE SMOOTH",
"1027 1150 OFFCURVE",
"1051 1123 OFFCURVE",
"1070 1092 CURVE SMOOTH",
"1109 1026 OFFCURVE",
"1154 991 OFFCURVE",
"1248 991 CURVE SMOOTH",
"1266 991 LINE SMOOTH",
"1362 991 OFFCURVE",
"1421 1067 OFFCURVE",
"1367 1177 CURVE SMOOTH",
"1352 1207 OFFCURVE",
"1333 1237 OFFCURVE",
"1312 1264.5 CURVE SMOOTH",
"1251.333 1342.833 OFFCURVE",
"1173.833 1404 OFFCURVE",
"1079.5 1448 CURVE SMOOTH",
"985.167 1492 OFFCURVE",
"881 1514 OFFCURVE",
"767 1514 CURVE SMOOTH",
"633 1514 OFFCURVE",
"512.833 1482.833 OFFCURVE",
"406.5 1420.5 CURVE SMOOTH",
"300.167 1358.167 OFFCURVE",
"216.333 1269.5 OFFCURVE",
"155 1154.5 CURVE SMOOTH",
"93.667 1039.5 OFFCURVE",
"63 902.667 OFFCURVE",
"63 744 CURVE SMOOTH",
"63 590.667 OFFCURVE",
"92.667 456.333 OFFCURVE",
"152 341 CURVE SMOOTH",
"211.333 225.667 OFFCURVE",
"294.333 136 OFFCURVE",
"401 72 CURVE SMOOTH",
"507.667 8 OFFCURVE",
"631.333 -24 OFFCURVE",
"772 -24 CURVE SMOOTH"
);
}
);
userData = {
assembly = "MPPEM[ ]	/* MeasurePixelPerEm */\012PUSHB[ ]	/* 1 value pushed */\01250 \012LT[ ]	/* LessThan */\012IF[ ]	/* If */\012NPUSHB[ ]	/* 38 values pushed */\0120 2 3 6 3 2 6 128 0 6 0 5 4 6 5 103 0 3 3 1 97 0 1 1 109 77 0 4 4 0 97 7 1 0 0 110 0 78 \012ELSE[ ]	/* Else */\012NPUSHB[ ]	/* 36 values pushed */\0120 2 3 6 3 2 6 128 0 1 0 3 2 1 3 105 0 6 0 5 4 6 5 103 0 4 4 0 97 7 1 0 0 110 0 78 \012EIF[ ]	/* EndIf */\012NPUSHB[ ]	/* 21 values pushed */\0121 0 28 27 26 25 23 21 17 15 13 12 9 7 0 32 1 32 8 12 22 \012CALL[ ]	/* CallFunction */";
};
width = 1507;
}
);
leftKerningGroup = C;
note = G;
rightKerningGroup = G;
unicode = 0047;
},
{
glyphname = Ghook;
lastChange = "2024-07-06 19:10:55 +0000";
layers = (
{
layerId = "EC312F70-CB40-4CEF-804A-742881A222CF";
paths = (
{
closed = 1;
nodes = (
"900.667 -24 OFFCURVE",
"1014.667 2.5 OFFCURVE",
"1114 55.5 CURVE SMOOTH",
"1213.333 108.5 OFFCURVE",
"1291.167 182 OFFCURVE",
"1347.5 276 CURVE SMOOTH",
"1403.833 370 OFFCURVE",
"1432 478.667 OFFCURVE",
"1432 602 CURVE SMOOTH",
"1432 626 LINE SMOOTH",
"1432 734 OFFCURVE",
"1373 792 OFFCURVE",
"1266 792 CURVE SMOOTH",
"972 792 LINE SMOOTH",
"864 792 OFFCURVE",
"806 751 OFFCURVE",
"806 675 CURVE SMOOTH",
"806 599 OFFCURVE",
"864 558 OFFCURVE",
"972 558 CURVE SMOOTH",
"1131 558 LINE",
"1129.667 465.333 OFFCURVE",
"1096.5 390.5 OFFCURVE",
"1031.5 333.5 CURVE SMOOTH",
"966.5 276.5 OFFCURVE",
"882.667 248 OFFCURVE",
"780 248 CURVE SMOOTH",
"653.333 248 OFFCURVE",
"553.833 292.5 OFFCURVE",
"481.5 381.5 CURVE SMOOTH",
"409.167 470.5 OFFCURVE",
"373 591.333 OFFCURVE",
"373 744 CURVE SMOOTH",
"373 897.333 OFFCURVE",
"408.833 1018.667 OFFCURVE",
"480.5 1108 CURVE SMOOTH",
"552.167 1197.333 OFFCURVE",
"650.667 1242 OFFCURVE",
"776 1242 CURVE SMOOTH",
"865.333 1242 OFFCURVE",
"939.167 1219.167 OFFCURVE",
"997.5 1173.5 CURVE SMOOTH",
"1027 1150 OFFCURVE",
"1051 1123 OFFCURVE",
"1070 1092 CURVE SMOOTH",
"1109 1026 OFFCURVE",
"1154 991 OFFCURVE",
"1248 991 CURVE SMOOTH",
"1266 991 LINE SMOOTH",
"1367 991 OFFCURVE",
"1422 1050 OFFCURVE",
"1422 1157 CURVE SMOOTH",
"1422 1345 LINE SMOOTH",
"1422 1407 OFFCURVE",
"1455.667 1438 OFFCURVE",
"1523 1438 CURVE SMOOTH",
"1600 1438 OFFCURVE",
"1642 1480 OFFCURVE",
"1642 1557 CURVE SMOOTH",
"1642 1634 OFFCURVE",
"1585 1676 OFFCURVE",
"1480 1676 CURVE SMOOTH",
"1270.667 1676 OFFCURVE",
"1155.667 1590.333 OFFCURVE",
"1135 1419 CURVE",
"1082.333 1449.667 OFFCURVE",
"1025 1473.167 OFFCURVE",
"963 1489.5 CURVE SMOOTH",
"901 1505.833 OFFCURVE",
"835.667 1514 OFFCURVE",
"767 1514 CURVE SMOOTH",
"633 1514 OFFCURVE",
"512.833 1482.833 OFFCURVE",
"406.5 1420.5 CURVE SMOOTH",
"300.167 1358.167 OFFCURVE",
"216.333 1269.5 OFFCURVE",
"155 1154.5 CURVE SMOOTH",
"93.667 1039.5 OFFCURVE",
"63 902.667 OFFCURVE",
"63 744 CURVE SMOOTH",
"63 590.667 OFFCURVE",
"92.667 456.333 OFFCURVE",
"152 341 CURVE SMOOTH",
"211.333 225.667 OFFCURVE",
"294.333 136 OFFCURVE",
"401 72 CURVE SMOOTH",
"507.667 8 OFFCURVE",
"631.333 -24 OFFCURVE",
"772 -24 CURVE SMOOTH"
);
}
);
userData = {
assembly = "PUSHB[ ]	/* 6 values pushed */\01211 1 5 3 1 76 \012MPPEM[ ]	/* MeasurePixelPerEm */\012PUSHB[ ]	/* 1 value pushed */\01250 \012LT[ ]	/* LessThan */\012IF[ ]	/* If */\012NPUSHB[ ]	/* 46 values pushed */\0120 4 5 8 5 4 8 128 0 2 0 3 5 2 3 105 0 8 0 7 6 8 7 103 0 5 5 1 97 0 1 1 109 77 0 6 6 0 97 9 1 0 0 110 0 78 \012ELSE[ ]	/* Else */\012NPUSHB[ ]	/* 44 values pushed */\0120 4 5 8 5 4 8 128 0 2 0 3 5 2 3 105 0 1 0 5 4 1 5 105 0 8 0 7 6 8 7 103 0 6 6 0 97 9 1 0 0 110 0 78 \012EIF[ ]	/* EndIf */\012NPUSHB[ ]	/* 25 values pushed */\0121 0 35 34 33 32 30 28 24 22 20 19 17 15 14 12 9 7 0 39 1 39 10 12 22 \012CALL[ ]	/* CallFunction */";
};
width = 1507;
}
);
leftKerningGroup = C;
note = uni0193;
rightKerningGroup = G;
unicode = 0193;
},
{
glyphname = Glottalstop;
lastChange = "2024-07-06 19:10:55 +0000";
layers = (
{
layerId = "EC312F70-CB40-4CEF-804A-742881A222CF";
paths = (
{
closed = 1;
nodes = (
"450 507 OFFCURVE",
"400 449 OFFCURVE",
"400 341 CURVE SMOOTH",
"400 166 LINE SMOOTH",
"400 58 OFFCURVE",
"455 0 OFFCURVE",
"555 0 CURVE SMOOTH",
"655 0 OFFCURVE",
"710 58 OFFCURVE",
"710 166 CURVE SMOOTH",
"710 281 LINE",
"825.333 314.333 OFFCURVE",
"913.167 378.5 OFFCURVE",
"973.5 473.5 CURVE SMOOTH",
"1033.833 568.5 OFFCURVE",
"1064 678.333 OFFCURVE",
"1064 803 CURVE SMOOTH",
"1064 959 LINE SMOOTH",
"1064 1062.333 OFFCURVE",
"1043.667 1155.5 OFFCURVE",
"1003 1238.5 CURVE SMOOTH",
"962.333 1321.5 OFFCURVE",
"903 1387.5 OFFCURVE",
"825 1436.5 CURVE SMOOTH",
"747 1485.5 OFFCURVE",
"651 1510 OFFCURVE",
"537 1510 CURVE SMOOTH",
"446.333 1510 OFFCURVE",
"365.333 1491.667 OFFCURVE",
"294 1455 CURVE SMOOTH",
"222.667 1418.333 OFFCURVE",
"166.167 1367.167 OFFCURVE",
"124.5 1301.5 CURVE SMOOTH",
"103 1268 OFFCURVE",
"87 1231 OFFCURVE",
"76 1191 CURVE SMOOTH",
"57 1117 OFFCURVE",
"117 1071 OFFCURVE",
"212 1071 CURVE SMOOTH",
"308 1071 OFFCURVE",
"336 1124 OFFCURVE",
"399 1201 CURVE SMOOTH",
"400 1202 OFFCURVE",
"401 1203 OFFCURVE",
"402 1204.5 CURVE SMOOTH",
"434 1240.167 OFFCURVE",
"481 1258 OFFCURVE",
"543 1258 CURVE SMOOTH",
"603.667 1258 OFFCURVE",
"649 1242.167 OFFCURVE",
"679 1210.5 CURVE SMOOTH",
"709 1178.833 OFFCURVE",
"729 1139.833 OFFCURVE",
"739 1093.5 CURVE SMOOTH",
"749 1047.167 OFFCURVE",
"754 1002.333 OFFCURVE",
"754 959 CURVE SMOOTH",
"754 803 LINE SMOOTH",
"754 748.333 OFFCURVE",
"748.333 698.667 OFFCURVE",
"737 654 CURVE SMOOTH",
"725.667 609.333 OFFCURVE",
"704.667 573.667 OFFCURVE",
"674 547 CURVE SMOOTH",
"643.333 520.333 OFFCURVE",
"599.667 507 OFFCURVE",
"543 507 CURVE SMOOTH"
);
}
);
userData = {
assembly = "NPUSHB[ ]	/* 53 values pushed */\01226 1 4 0 1 76 0 2 1 0 1 2 0 128 0 1 1 3 97 0 3 3 109 77 5 1 0 0 4 95 0 4 4 104 4 78 2 0 28 27 19 17 14 13 11 9 0 29 2 29 6 12 22 \012CALL[ ]	/* CallFunction */";
};
width = 1125;
}
);
note = uni0241;
unicode = 0241;
},
{
glyphname = Yogh;
lastChange = "2024-07-06 19:10:55 +0000";
layers = (
{
layerId = "EC312F70-CB40-4CEF-804A-742881A222CF";
paths = (
{
closed = 1;
nodes = (
"575 421 OFFCURVE",
"719 479 OFFCURVE",
"834 544 CURVE",
"882.667 515.333 OFFCURVE",
"907 452 OFFCURVE",
"907 354 CURVE SMOOTH",
"907 204.667 OFFCURVE",
"845.833 86.667 OFFCURVE",
"723.5 0 CURVE SMOOTH",
"630 -66 OFFCURVE",
"509 -119 OFFCURVE",
"360 -159 CURVE SMOOTH",
"262 -186 OFFCURVE",
"213 -234 OFFCURVE",
"213 -315 CURVE SMOOTH",
"213 -391 OFFCURVE",
"281 -428 OFFCURVE",
"394 -403 CURVE SMOOTH",
"518 -376 OFFCURVE",
"631 -340 OFFCURVE",
"734 -294.5 CURVE SMOOTH",
"884.667 -228.167 OFFCURVE",
"1002.333 -142.167 OFFCURVE",
"1087 -36.5 CURVE SMOOTH",
"1171.667 69.167 OFFCURVE",
"1214 195.667 OFFCURVE",
"1214 343 CURVE SMOOTH",
"1214 424.333 OFFCURVE",
"1197.5 493.833 OFFCURVE",
"1164.5 551.5 CURVE SMOOTH",
"1131.5 609.167 OFFCURVE",
"1085.667 654.333 OFFCURVE",
"1027 687 CURVE",
"1137 796.333 OFFCURVE",
"1192 924.667 OFFCURVE",
"1192 1072 CURVE SMOOTH",
"1192 1218 OFFCURVE",
"1142.5 1327.5 OFFCURVE",
"1043.5 1400.5 CURVE SMOOTH",
"944.5 1473.5 OFFCURVE",
"812.667 1510 OFFCURVE",
"648 1510 CURVE SMOOTH",
"542 1510 OFFCURVE",
"448.167 1492.667 OFFCURVE",
"366.5 1458 CURVE SMOOTH",
"284.833 1423.333 OFFCURVE",
"220.667 1375 OFFCURVE",
"174 1313 CURVE SMOOTH",
"150 1282 OFFCURVE",
"133 1247 OFFCURVE",
"121 1211 CURVE SMOOTH",
"99 1141 OFFCURVE",
"169 1096 OFFCURVE",
"276 1096 CURVE SMOOTH",
"368 1096 OFFCURVE",
"394 1150 OFFCURVE",
"466 1212 CURVE SMOOTH",
"469 1214 OFFCURVE",
"471 1216 OFFCURVE",
"474 1218 CURVE SMOOTH",
"516.667 1248.667 OFFCURVE",
"574.667 1264 OFFCURVE",
"648 1264 CURVE SMOOTH",
"808.667 1264 OFFCURVE",
"889 1187 OFFCURVE",
"889 1033 CURVE SMOOTH",
"889 957.667 OFFCURVE",
"867.167 893 OFFCURVE",
"823.5 839 CURVE SMOOTH",
"779.833 785 OFFCURVE",
"708.5 735.333 OFFCURVE",
"609.5 690 CURVE SMOOTH",
"540 658 OFFCURVE",
"454 625 OFFCURVE",
"352 592 CURVE SMOOTH",
"258 560 OFFCURVE",
"213 511 OFFCURVE",
"213 435 CURVE SMOOTH",
"213 365 OFFCURVE",
"285 336 OFFCURVE",
"401 370 CURVE SMOOTH"
);
}
);
userData = {
assembly = "NPUSHB[ ]	/* 31 values pushed */\01233 28 27 20 1 0 6 1 73 0 1 0 1 134 0 0 0 2 97 0 2 2 109 0 78 35 18 38 3 12 25 \012CALL[ ]	/* CallFunction */";
};
width = 1318;
}
);
note = uni021C;
unicode = 021C;
},
{
glyphname = H;
lastChange = "2024-07-06 19:10:55 +0000";
layers = (
{
layerId = "EC312F70-CB40-4CEF-804A-742881A222CF";
paths = (
{
closed = 1;
nodes = (
"111 166 LINE SMOOTH",
"111 58 OFFCURVE",
"165 0 OFFCURVE",
"265 0 CURVE SMOOTH",
"365 0 OFFCURVE",
"419 58 OFFCURVE",
"419 166 CURVE SMOOTH",
"419 628 LINE",
"1052 628 LINE",
"1052 166 LINE SMOOTH",
"1052 58 OFFCURVE",
"1106 0 OFFCURVE",
"1206 0 CURVE SMOOTH",
"1305 0 OFFCURVE",
"1359 59 OFFCURVE",
"1359 166 CURVE SMOOTH",
"1359 1324 LINE SMOOTH",
"1359 1432 OFFCURVE",
"1305 1490 OFFCURVE",
"1206 1490 CURVE SMOOTH",
"1107 1490 OFFCURVE",
"1052 1432 OFFCURVE",
"1052 1324 CURVE SMOOTH",
"1052 892 LINE",
"419 892 LINE",
"419 1324 LINE SMOOTH",
"419 1432 OFFCURVE",
"365 1490 OFFCURVE",
"265 1490 CURVE SMOOTH",
"165 1490 OFFCURVE",
"111 1431 OFFCURVE",
"111 1324 CURVE SMOOTH"
);
}
);
userData = {
assembly = "NPUSHB[ ]	/* 36 values pushed */\0120 1 0 4 3 1 4 103 2 1 0 0 103 77 6 5 2 3 3 104 3 78 0 0 0 11 0 11 17 17 17 17 17 7 12 27 \012CALL[ ]	/* CallFunction */";
};
width = 1471;
}
);
leftKerningGroup = B;
note = H;
rightKerningGroup = Ereversed;
unicode = 0048;
},
{
glyphname = Hbar;
lastChange = "2024-07-06 19:10:55 +0000";
layers = (
{
layerId = "EC312F70-CB40-4CEF-804A-742881A222CF";
paths = (
{
closed = 1;
nodes = (
"1547 1196 OFFCURVE",
"1500 1226 OFFCURVE",
"1415 1226 CURVE",
"1415 1358 LINE SMOOTH",
"1415 1443 OFFCURVE",
"1361 1490 OFFCURVE",
"1261 1490 CURVE SMOOTH",
"1161 1490 OFFCURVE",
"1107 1431 OFFCURVE",
"1107 1324 CURVE SMOOTH",
"1107 1226 LINE",
"474 1226 LINE",
"474 1358 LINE SMOOTH",
"474 1443 OFFCURVE",
"420 1490 OFFCURVE",
"321 1490 CURVE SMOOTH",
"222 1490 OFFCURVE",
"167 1431 OFFCURVE",
"167 1324 CURVE SMOOTH",
"167 1226 LINE",
"106 1226 LINE SMOOTH",
"67 1226 OFFCURVE",
"45 1195 OFFCURVE",
"45 1139 CURVE SMOOTH",
"45 1083 OFFCURVE",
"88 1052 OFFCURVE",
"167 1052 CURVE",
"167 166 LINE SMOOTH",
"167 58 OFFCURVE",
"221 0 OFFCURVE",
"321 0 CURVE SMOOTH",
"420 0 OFFCURVE",
"474 58 OFFCURVE",
"474 166 CURVE SMOOTH",
"474 628 LINE",
"1107 628 LINE",
"1107 166 LINE SMOOTH",
"1107 58 OFFCURVE",
"1161 0 OFFCURVE",
"1261 0 CURVE SMOOTH",
"1361 0 OFFCURVE",
"1415 58 OFFCURVE",
"1415 166 CURVE SMOOTH",
"1415 1052 LINE",
"1481 1052 LINE SMOOTH",
"1524 1052 OFFCURVE",
"1547 1083 OFFCURVE",
"1547 1139 CURVE SMOOTH"
);
},
{
closed = 1;
nodes = (
"1107 1052 LINE",
"1107 892 LINE",
"474 892 LINE",
"474 1052 LINE"
);
}
);
userData = {
assembly = "NPUSHB[ ]	/* 56 values pushed */\01212 9 7 3 5 10 4 2 0 11 5 0 103 0 11 0 2 1 11 2 103 8 1 6 6 103 77 3 1 1 1 104 1 78 0 0 23 22 21 20 0 19 0 19 17 17 17 17 17 17 17 17 17 13 12 31 \012CALL[ ]	/* CallFunction */";
};
width = 1591;
}
);
leftKerningGroup = B;
note = Hbar;
rightKerningGroup = Ereversed;
unicode = 0126;
},
{
glyphname = Hwair;
lastChange = "2024-07-06 19:10:55 +0000";
layers = (
{
layerId = "EC312F70-CB40-4CEF-804A-742881A222CF";
paths = (
{
closed = 1;
nodes = (
"1663.667 -22 OFFCURVE",
"1752.167 -3.333 OFFCURVE",
"1828.5 34 CURVE SMOOTH",
"1904.833 71.333 OFFCURVE",
"1964.333 123.5 OFFCURVE",
"2007 190.5 CURVE SMOOTH",
"2049.667 257.5 OFFCURVE",
"2071 335.667 OFFCURVE",
"2071 425 CURVE SMOOTH",
"2071 890 LINE SMOOTH",
"2071 998 OFFCURVE",
"2019 1056 OFFCURVE",
"1924 1056 CURVE SMOOTH",
"1829 1056 OFFCURVE",
"1776 997 OFFCURVE",
"1776 890 CURVE SMOOTH",
"1776 443 LINE SMOOTH",
"1776 373.667 OFFCURVE",
"1757.333 319.667 OFFCURVE",
"1720 281 CURVE SMOOTH",
"1682.667 242.333 OFFCURVE",
"1631 223 OFFCURVE",
"1565 223 CURVE SMOOTH",
"1499.667 223 OFFCURVE",
"1449 242.333 OFFCURVE",
"1413 281 CURVE SMOOTH",
"1377 319.667 OFFCURVE",
"1359 373.667 OFFCURVE",
"1359 443 CURVE SMOOTH",
"1359 1324 LINE SMOOTH",
"1359 1432 OFFCURVE",
"1305 1490 OFFCURVE",
"1206 1490 CURVE SMOOTH",
"1107 1490 OFFCURVE",
"1052 1432 OFFCURVE",
"1052 1324 CURVE SMOOTH",
"1052 892 LINE",
"419 892 LINE",
"419 1324 LINE SMOOTH",
"419 1432 OFFCURVE",
"365 1490 OFFCURVE",
"265 1490 CURVE SMOOTH",
"165 1490 OFFCURVE",
"111 1431 OFFCURVE",
"111 1324 CURVE SMOOTH",
"111 166 LINE SMOOTH",
"111 58 OFFCURVE",
"165 0 OFFCURVE",
"265 0 CURVE SMOOTH",
"365 0 OFFCURVE",
"419 58 OFFCURVE",
"419 166 CURVE SMOOTH",
"419 628 LINE",
"1052 628 LINE",
"1052 425 LINE SMOOTH",
"1052 335.667 OFFCURVE",
"1073.333 257.5 OFFCURVE",
"1116 190.5 CURVE SMOOTH",
"1158.667 123.5 OFFCURVE",
"1218.333 71.333 OFFCURVE",
"1295 34 CURVE SMOOTH",
"1371.667 -3.333 OFFCURVE",
"1461 -22 OFFCURVE",
"1563 -22 CURVE SMOOTH"
);
}
);
userData = {
assembly = "MPPEM[ ]	/* MeasurePixelPerEm */\012PUSHB[ ]	/* 1 value pushed */\01223 \012LT[ ]	/* LessThan */\012IF[ ]	/* If */\012NPUSHB[ ]	/* 32 values pushed */\0120 4 0 1 6 4 1 103 5 1 3 3 103 77 0 7 7 106 77 0 6 6 0 97 2 8 2 0 0 110 0 78 \012ELSE[ ]	/* Else */\012NPUSHB[ ]	/* 36 values pushed */\0120 4 0 1 6 4 1 103 5 1 3 3 103 77 0 7 7 106 77 0 2 2 104 77 0 6 6 0 97 8 1 0 0 110 0 78 \012EIF[ ]	/* EndIf */\012NPUSHB[ ]	/* 23 values pushed */\0121 0 23 22 19 17 14 13 12 11 10 9 8 7 6 5 0 27 1 27 9 12 22 \012CALL[ ]	/* CallFunction */";
};
width = 2175;
}
);
leftKerningGroup = B;
note = uni01F6;
rightKerningGroup = Hwair;
unicode = 01F6;
},
{
glyphname = I;
lastChange = "2024-07-06 19:10:55 +0000";
layers = (
{
layerId = "EC312F70-CB40-4CEF-804A-742881A222CF";
paths = (
{
closed = 1;
nodes = (
"419 1324 LINE SMOOTH",
"419 1432 OFFCURVE",
"365 1490 OFFCURVE",
"265 1490 CURVE SMOOTH",
"165 1490 OFFCURVE",
"111 1431 OFFCURVE",
"111 1324 CURVE SMOOTH",
"111 166 LINE SMOOTH",
"111 58 OFFCURVE",
"165 0 OFFCURVE",
"265 0 CURVE SMOOTH",
"365 0 OFFCURVE",
"419 59 OFFCURVE",
"419 166 CURVE SMOOTH"
);
}
);
userData = {
assembly = "NPUSHB[ ]	/* 22 values pushed */\0122 1 1 1 103 77 0 0 0 104 0 78 0 0 0 3 0 3 17 3 12 23 \012CALL[ ]	/* CallFunction */";
};
width = 530;
}
);
leftKerningGroup = B;
note = I;
rightKerningGroup = Ereversed;
unicode = 0049;
},
{
glyphname = J;
lastChange = "2024-07-06 19:10:55 +0000";
layers = (
{
layerId = "EC312F70-CB40-4CEF-804A-742881A222CF";
paths = (
{
closed = 1;
nodes = (
"700.667 -22 OFFCURVE",
"822.333 18.333 OFFCURVE",
"911 99 CURVE SMOOTH",
"999.667 179.667 OFFCURVE",
"1044 295 OFFCURVE",
"1044 445 CURVE SMOOTH",
"1044 1324 LINE SMOOTH",
"1044 1432 OFFCURVE",
"990 1490 OFFCURVE",
"890 1490 CURVE SMOOTH",
"790 1490 OFFCURVE",
"736 1431 OFFCURVE",
"736 1324 CURVE SMOOTH",
"736 449 LINE SMOOTH",
"736 380.333 OFFCURVE",
"718.667 327.833 OFFCURVE",
"684 291.5 CURVE SMOOTH",
"649.333 255.167 OFFCURVE",
"602.333 237 OFFCURVE",
"543 237 CURVE SMOOTH",
"483 237 OFFCURVE",
"435.667 255.167 OFFCURVE",
"401 291.5 CURVE SMOOTH",
"366.333 327.833 OFFCURVE",
"349 380.333 OFFCURVE",
"349 449 CURVE SMOOTH",
"349 516 OFFCURVE",
"298 552 OFFCURVE",
"204 552 CURVE SMOOTH",
"110 552 OFFCURVE",
"59 516 OFFCURVE",
"59 451 CURVE SMOOTH",
"59 299 OFFCURVE",
"102.5 182.167 OFFCURVE",
"189.5 100.5 CURVE SMOOTH",
"276.5 18.833 OFFCURVE",
"395.333 -22 OFFCURVE",
"546 -22 CURVE SMOOTH"
);
}
);
userData = {
assembly = "NPUSHB[ ]	/* 40 values pushed */\0120 1 3 2 3 1 2 128 0 3 3 103 77 0 2 2 0 98 4 1 0 0 110 0 78 1 0 14 13 10 8 5 4 0 17 1 17 5 12 22 \012CALL[ ]	/* CallFunction */";
};
width = 1151;
}
);
leftKerningGroup = J;
note = J;
rightKerningGroup = J;
unicode = 004A;
},
{
glyphname = K;
lastChange = "2024-07-06 19:10:55 +0000";
layers = (
{
layerId = "EC312F70-CB40-4CEF-804A-742881A222CF";
paths = (
{
closed = 1;
nodes = (
"111 166 LINE SMOOTH",
"111 58 OFFCURVE",
"165 0 OFFCURVE",
"265 0 CURVE SMOOTH",
"365 0 OFFCURVE",
"419 58 OFFCURVE",
"419 166 CURVE SMOOTH",
"419 410 LINE",
"616 639 LINE",
"966 108 LINE SMOOTH",
"1015 33 OFFCURVE",
"1076 0 OFFCURVE",
"1166 0 CURVE SMOOTH",
"1215 0 LINE SMOOTH",
"1314 0 OFFCURVE",
"1332 88 OFFCURVE",
"1256 201 CURVE SMOOTH",
"819 846 LINE",
"1200 1286 LINE SMOOTH",
"1294 1395 OFFCURVE",
"1262 1490 OFFCURVE",
"1131 1490 CURVE SMOOTH",
"1044 1490 OFFCURVE",
"984 1462 OFFCURVE",
"928 1396 CURVE SMOOTH",
"640 1060 LINE SMOOTH",
"602.667 1015.333 OFFCURVE",
"565.667 971 OFFCURVE",
"529 927 CURVE SMOOTH",
"419 795 LINE",
"419 1324 LINE SMOOTH",
"419 1432 OFFCURVE",
"365 1490 OFFCURVE",
"265 1490 CURVE SMOOTH",
"165 1490 OFFCURVE",
"111 1431 OFFCURVE",
"111 1324 CURVE SMOOTH"
);
}
);
userData = {
assembly = "NPUSHB[ ]	/* 35 values pushed */\01213 12 9 3 4 2 0 1 76 1 1 0 0 103 77 4 3 2 2 2 104 2 78 0 0 0 14 0 14 18 21 17 5 12 25 \012CALL[ ]	/* CallFunction */";
};
width = 1404;
}
);
leftKerningGroup = B;
note = K;
rightKerningGroup = K;
unicode = 004B;
},
{
glyphname = Khook;
lastChange = "2024-07-06 19:10:55 +0000";
layers = (
{
layerId = "EC312F70-CB40-4CEF-804A-742881A222CF";
paths = (
{
closed = 1;
nodes = (
"111 166 LINE SMOOTH",
"111 58 OFFCURVE",
"164 0 OFFCURVE",
"262 0 CURVE SMOOTH",
"359 0 OFFCURVE",
"412 58 OFFCURVE",
"412 166 CURVE SMOOTH",
"412 393 LINE",
"595 590 LINE",
"965 100 LINE SMOOTH",
"1018 29 OFFCURVE",
"1079 0 OFFCURVE",
"1167 0 CURVE SMOOTH",
"1222 0 LINE SMOOTH",
"1321 0 OFFCURVE",
"1332 91 OFFCURVE",
"1247 203 CURVE SMOOTH",
"787 804 LINE",
"1145 1178 LINE SMOOTH",
"1179 1213.333 OFFCURVE",
"1211 1235.833 OFFCURVE",
"1241 1245.5 CURVE SMOOTH",
"1257 1251 OFFCURVE",
"1275 1251 OFFCURVE",
"1295 1247 CURVE SMOOTH",
"1331 1240 OFFCURVE",
"1362 1262 OFFCURVE",
"1395 1335 CURVE SMOOTH",
"1426 1404 OFFCURVE",
"1395 1484 OFFCURVE",
"1286 1503 CURVE SMOOTH",
"1249 1509 OFFCURVE",
"1212 1510 OFFCURVE",
"1175.5 1504.5 CURVE SMOOTH",
"1087.167 1492.167 OFFCURVE",
"1005.667 1447.333 OFFCURVE",
"931 1370 CURVE SMOOTH",
"431 839 LINE",
"412 839 LINE",
"412 1324 LINE SMOOTH",
"412 1432 OFFCURVE",
"359 1490 OFFCURVE",
"262 1490 CURVE SMOOTH",
"165 1490 OFFCURVE",
"111 1431 OFFCURVE",
"111 1324 CURVE SMOOTH"
);
}
);
userData = {
assembly = "NPUSHB[ ]	/* 35 values pushed */\01217 16 13 9 8 3 6 1 0 1 76 0 0 0 103 77 3 2 2 1 1 104 1 78 0 0 0 18 0 18 28 17 4 12 24 \012CALL[ ]	/* CallFunction */";
};
width = 1434;
}
);
leftKerningGroup = B;
note = uni0198;
rightKerningGroup = K;
unicode = 0198;
},
{
glyphname = L;
lastChange = "2024-07-06 19:10:55 +0000";
layers = (
{
layerId = "EC312F70-CB40-4CEF-804A-742881A222CF";
paths = (
{
closed = 1;
nodes = (
"111 166 LINE SMOOTH",
"111 58 OFFCURVE",
"169 0 OFFCURVE",
"277 0 CURVE SMOOTH",
"930 0 LINE SMOOTH",
"1038 0 OFFCURVE",
"1096 47 OFFCURVE",
"1096 132 CURVE SMOOTH",
"1096 217 OFFCURVE",
"1038 264 OFFCURVE",
"930 264 CURVE SMOOTH",
"419 264 LINE",
"419 1324 LINE SMOOTH",
"419 1432 OFFCURVE",
"365 1490 OFFCURVE",
"265 1490 CURVE SMOOTH",
"165 1490 OFFCURVE",
"111 1431 OFFCURVE",
"111 1324 CURVE SMOOTH"
);
}
);
userData = {
assembly = "NPUSHB[ ]	/* 28 values pushed */\0120 0 0 103 77 0 1 1 2 96 3 1 2 2 104 2 78 0 0 0 5 0 5 17 17 4 12 24 \012CALL[ ]	/* CallFunction */";
};
width = 1140;
}
);
leftKerningGroup = B;
note = L;
rightKerningGroup = L;
unicode = 004C;
},
{
glyphname = M;
lastChange = "2024-07-06 19:10:55 +0000";
layers = (
{
layerId = "EC312F70-CB40-4CEF-804A-742881A222CF";
paths = (
{
closed = 1;
nodes = (
"111 166 LINE SMOOTH",
"111 58 OFFCURVE",
"164 0 OFFCURVE",
"262 0 CURVE SMOOTH",
"360 0 OFFCURVE",
"413 59 OFFCURVE",
"413 166 CURVE SMOOTH",
"413 708 LINE SMOOTH",
"413 758 OFFCURVE",
"412 821.5 OFFCURVE",
"410 898.5 CURVE SMOOTH",
"408 975.5 OFFCURVE",
"406 1053.333 OFFCURVE",
"404 1132 CURVE",
"477.5 892 LINE SMOOTH",
"501.167 815.333 OFFCURVE",
"520.667 754 OFFCURVE",
"536 708 CURVE SMOOTH",
"743 133 LINE SMOOTH",
"776 43 OFFCURVE",
"831 0 OFFCURVE",
"916 0 CURVE SMOOTH",
"1001 0 OFFCURVE",
"1057 43 OFFCURVE",
"1089 134 CURVE SMOOTH",
"1293 708 LINE SMOOTH",
"1309 756 OFFCURVE",
"1329 820.5 OFFCURVE",
"1353 901.5 CURVE SMOOTH",
"1377 982.5 OFFCURVE",
"1402 1066.333 OFFCURVE",
"1428 1153 CURVE",
"1421.5 908 LINE SMOOTH",
"1419.167 826.667 OFFCURVE",
"1418 760 OFFCURVE",
"1418 708 CURVE SMOOTH",
"1418 166 LINE SMOOTH",
"1418 58 OFFCURVE",
"1471 0 OFFCURVE",
"1569 0 CURVE SMOOTH",
"1666 0 OFFCURVE",
"1719 59 OFFCURVE",
"1719 166 CURVE SMOOTH",
"1719 1324 LINE SMOOTH",
"1719 1432 OFFCURVE",
"1660 1490 OFFCURVE",
"1553 1490 CURVE SMOOTH",
"1412 1490 LINE SMOOTH",
"1316 1490 OFFCURVE",
"1255 1448 OFFCURVE",
"1223 1356 CURVE SMOOTH",
"1027 796 LINE",
"975.5 624.5 LINE SMOOTH",
"954.5 554.167 OFFCURVE",
"935 487 OFFCURVE",
"917 423 CURVE",
"899 487 OFFCURVE",
"879.5 554.167 OFFCURVE",
"858.5 624.5 CURVE SMOOTH",
"837.5 694.833 OFFCURVE",
"820 752 OFFCURVE",
"806 796 CURVE SMOOTH",
"607 1356 LINE SMOOTH",
"575 1447 OFFCURVE",
"514 1490 OFFCURVE",
"418 1490 CURVE SMOOTH",
"277 1490 LINE SMOOTH",
"169 1490 OFFCURVE",
"111 1431 OFFCURVE",
"111 1324 CURVE SMOOTH"
);
}
);
userData = {
assembly = "NPUSHB[ ]	/* 36 values pushed */\01226 17 6 3 2 0 1 76 1 1 0 0 103 77 5 4 3 3 2 2 104 2 78 0 0 0 30 0 30 24 17 24 17 6 12 26 \012CALL[ ]	/* CallFunction */";
};
width = 1831;
}
);
leftKerningGroup = B;
note = M;
rightKerningGroup = Ereversed;
unicode = 004D;
},
{
glyphname = Mturned;
lastChange = "2024-07-06 19:10:55 +0000";
layers = (
{
layerId = "EC312F70-CB40-4CEF-804A-742881A222CF";
paths = (
{
closed = 1;
nodes = (
"880.667 94 OFFCURVE",
"923.5 48.333 OFFCURVE",
"978.5 21 CURVE SMOOTH",
"1033.5 -6.333 OFFCURVE",
"1097.667 -20 OFFCURVE",
"1171 -20 CURVE SMOOTH",
"1238.333 -20 OFFCURVE",
"1297.833 -7.833 OFFCURVE",
"1349.5 16.5 CURVE SMOOTH",
"1401.167 40.833 OFFCURVE",
"1444.667 75 OFFCURVE",
"1480 119 CURVE",
"1487 60 LINE SMOOTH",
"1491 20 OFFCURVE",
"1539 0 OFFCURVE",
"1627 0 CURVE SMOOTH",
"1713 0 OFFCURVE",
"1760 59 OFFCURVE",
"1760 166 CURVE SMOOTH",
"1760 1324 LINE SMOOTH",
"1760 1432 OFFCURVE",
"1708 1490 OFFCURVE",
"1613 1490 CURVE SMOOTH",
"1518 1490 OFFCURVE",
"1465 1432 OFFCURVE",
"1465 1324 CURVE SMOOTH",
"1465 334 LINE",
"1447 298.667 OFFCURVE",
"1421 270.5 OFFCURVE",
"1387 249.5 CURVE SMOOTH",
"1353 228.5 OFFCURVE",
"1308.667 218 OFFCURVE",
"1254 218 CURVE SMOOTH",
"1207.333 218 OFFCURVE",
"1169 233.833 OFFCURVE",
"1139 265.5 CURVE SMOOTH",
"1109 297.167 OFFCURVE",
"1094 351 OFFCURVE",
"1094 427 CURVE SMOOTH",
"1094 1324 LINE SMOOTH",
"1094 1432 OFFCURVE",
"1043 1490 OFFCURVE",
"948 1490 CURVE SMOOTH",
"853 1490 OFFCURVE",
"802 1431 OFFCURVE",
"802 1324 CURVE SMOOTH",
"802 427 LINE SMOOTH",
"802 396.333 OFFCURVE",
"803 367.333 OFFCURVE",
"805 340 CURVE",
"787.667 302.667 OFFCURVE",
"761.5 273 OFFCURVE",
"726.5 251 CURVE SMOOTH",
"691.5 229 OFFCURVE",
"646 218 OFFCURVE",
"590 218 CURVE SMOOTH",
"544 218 OFFCURVE",
"506 233.833 OFFCURVE",
"476 265.5 CURVE SMOOTH",
"446 297.167 OFFCURVE",
"431 351 OFFCURVE",
"431 427 CURVE SMOOTH",
"431 1324 LINE SMOOTH",
"431 1432 OFFCURVE",
"380 1490 OFFCURVE",
"285 1490 CURVE SMOOTH",
"190 1490 OFFCURVE",
"138 1431 OFFCURVE",
"138 1324 CURVE SMOOTH",
"138 427 LINE SMOOTH",
"138 263 OFFCURVE",
"169.167 147.5 OFFCURVE",
"231.5 80.5 CURVE SMOOTH",
"293.833 13.5 OFFCURVE",
"385.333 -20 OFFCURVE",
"506 -20 CURVE SMOOTH",
"586 -20 OFFCURVE",
"654.667 -4.167 OFFCURVE",
"712 27.5 CURVE SMOOTH",
"769.333 59.167 OFFCURVE",
"815.333 102.667 OFFCURVE",
"850 158 CURVE"
);
}
);
userData = {
assembly = "MPPEM[ ]	/* MeasurePixelPerEm */\012PUSHB[ ]	/* 1 value pushed */\01226 \012LT[ ]	/* LessThan */\012IF[ ]	/* If */\012NPUSHB[ ]	/* 10 values pushed */\01226 1 2 1 31 1 0 2 2 76 \012ELSE[ ]	/* Else */\012NPUSHB[ ]	/* 10 values pushed */\01226 1 2 1 31 1 6 2 2 76 \012EIF[ ]	/* EndIf */\012MPPEM[ ]	/* MeasurePixelPerEm */\012PUSHB[ ]	/* 1 value pushed */\01226 \012LT[ ]	/* LessThan */\012IF[ ]	/* If */\012NPUSHB[ ]	/* 21 values pushed */\0125 3 2 1 1 103 77 4 1 2 2 0 98 7 6 2 0 0 110 0 78 \012ELSE[ ]	/* Else */\012NPUSHB[ ]	/* 25 values pushed */\0125 3 2 1 1 103 77 0 6 6 104 77 4 1 2 2 0 98 7 1 0 0 110 0 78 \012EIF[ ]	/* EndIf */\012NPUSHB[ ]	/* 11 values pushed */\01235 17 19 35 21 35 19 34 8 12 30 \012CALL[ ]	/* CallFunction */";
};
width = 1896;
}
);
note = mcapturn;
unicode = 019C;
},
{
glyphname = N;
lastChange = "2024-07-06 19:10:55 +0000";
layers = (
{
layerId = "EC312F70-CB40-4CEF-804A-742881A222CF";
paths = (
{
closed = 1;
nodes = (
"111 166 LINE SMOOTH",
"111 58 OFFCURVE",
"165 0 OFFCURVE",
"265 0 CURVE SMOOTH",
"365 0 OFFCURVE",
"419 59 OFFCURVE",
"419 166 CURVE SMOOTH",
"419 691 LINE SMOOTH",
"419 723 OFFCURVE",
"418.5 769.333 OFFCURVE",
"417.5 830 CURVE SMOOTH",
"416.5 890.667 OFFCURVE",
"414.667 960 OFFCURVE",
"412 1038 CURVE",
"454 962 OFFCURVE",
"492.833 893.5 OFFCURVE",
"528.5 832.5 CURVE SMOOTH",
"564.167 771.5 OFFCURVE",
"593 724 OFFCURVE",
"615 690 CURVE SMOOTH",
"980 110 LINE SMOOTH",
"1028 34 OFFCURVE",
"1089 0 OFFCURVE",
"1179 0 CURVE SMOOTH",
"1212 0 LINE SMOOTH",
"1317 0 OFFCURVE",
"1374 59 OFFCURVE",
"1374 166 CURVE SMOOTH",
"1374 1324 LINE SMOOTH",
"1374 1432 OFFCURVE",
"1320 1490 OFFCURVE",
"1221 1490 CURVE SMOOTH",
"1122 1490 OFFCURVE",
"1067 1431 OFFCURVE",
"1067 1324 CURVE SMOOTH",
"1067 753 LINE",
"1068 622.5 LINE SMOOTH",
"1068.667 566.833 OFFCURVE",
"1070 510 OFFCURVE",
"1072 452 CURVE",
"1042.667 505.333 OFFCURVE",
"1013.333 557.667 OFFCURVE",
"984 609 CURVE SMOOTH",
"954.667 660.333 OFFCURVE",
"931.333 700 OFFCURVE",
"914 728 CURVE SMOOTH",
"504 1380 LINE SMOOTH",
"456 1456 OFFCURVE",
"395 1490 OFFCURVE",
"305 1490 CURVE SMOOTH",
"273 1490 LINE SMOOTH",
"168 1490 OFFCURVE",
"111 1431 OFFCURVE",
"111 1324 CURVE SMOOTH"
);
}
);
userData = {
assembly = "NPUSHB[ ]	/* 33 values pushed */\01217 6 2 2 0 1 76 1 1 0 0 103 77 4 3 2 2 2 104 2 78 0 0 0 21 0 21 17 24 17 5 12 25 \012CALL[ ]	/* CallFunction */";
};
width = 1485;
}
);
leftKerningGroup = B;
note = N;
rightKerningGroup = Ereversed;
unicode = 004E;
},
{
glyphname = Eng;
lastChange = "2024-07-06 19:10:55 +0000";
layers = (
{
layerId = "EC312F70-CB40-4CEF-804A-742881A222CF";
paths = (
{
closed = 1;
nodes = (
"849 -375 OFFCURVE",
"908 -418 OFFCURVE",
"1015 -418 CURVE SMOOTH",
"1017 -418 LINE SMOOTH",
"1255 -418 OFFCURVE",
"1374 -311.667 OFFCURVE",
"1374 -99 CURVE SMOOTH",
"1374 1324 LINE SMOOTH",
"1374 1432 OFFCURVE",
"1320 1490 OFFCURVE",
"1221 1490 CURVE SMOOTH",
"1122 1490 OFFCURVE",
"1067 1431 OFFCURVE",
"1067 1324 CURVE SMOOTH",
"1067 753 LINE",
"1068 622.5 LINE SMOOTH",
"1068.667 566.833 OFFCURVE",
"1070 510 OFFCURVE",
"1072 452 CURVE",
"1042.667 505.333 OFFCURVE",
"1013.333 557.667 OFFCURVE",
"984 609 CURVE SMOOTH",
"954.667 660.333 OFFCURVE",
"931.333 700 OFFCURVE",
"914 728 CURVE SMOOTH",
"504 1380 LINE SMOOTH",
"456 1456 OFFCURVE",
"395 1490 OFFCURVE",
"305 1490 CURVE SMOOTH",
"273 1490 LINE SMOOTH",
"168 1490 OFFCURVE",
"111 1431 OFFCURVE",
"111 1324 CURVE SMOOTH",
"111 166 LINE SMOOTH",
"111 58 OFFCURVE",
"165 0 OFFCURVE",
"265 0 CURVE SMOOTH",
"365 0 OFFCURVE",
"419 59 OFFCURVE",
"419 166 CURVE SMOOTH",
"419 691 LINE SMOOTH",
"419 723 OFFCURVE",
"418.5 769.333 OFFCURVE",
"417.5 830 CURVE SMOOTH",
"416.5 890.667 OFFCURVE",
"414.667 960 OFFCURVE",
"412 1038 CURVE",
"454 962 OFFCURVE",
"492.833 893.5 OFFCURVE",
"528.5 832.5 CURVE SMOOTH",
"564.167 771.5 OFFCURVE",
"593 724 OFFCURVE",
"615 690 CURVE SMOOTH",
"1049 0 LINE",
"1067 0 LINE",
"1067 -83 LINE SMOOTH",
"1067 -143 OFFCURVE",
"1034.333 -173 OFFCURVE",
"969 -173 CURVE SMOOTH",
"891 -173 OFFCURVE",
"849 -217 OFFCURVE",
"849 -296 CURVE SMOOTH"
);
}
);
userData = {
assembly = "NPUSHB[ ]	/* 48 values pushed */\01221 10 2 1 2 1 76 5 1 1 1 75 3 1 2 2 103 77 0 1 1 104 77 0 0 0 4 96 5 1 4 4 108 4 78 0 0 0 29 0 28 24 17 27 33 6 12 26 \012CALL[ ]	/* CallFunction */";
};
width = 1485;
}
);
leftKerningGroup = B;
note = Eng;
rightKerningGroup = Ereversed;
unicode = 014A;
},
{
glyphname = Nhookleft;
lastChange = "2024-07-06 19:10:55 +0000";
layers = (
{
layerId = "EC312F70-CB40-4CEF-804A-742881A222CF";
paths = (
{
closed = 1;
nodes = (
"-106 -375 OFFCURVE",
"-48 -418 OFFCURVE",
"60 -418 CURVE SMOOTH",
"61 -418 LINE SMOOTH",
"299.667 -418 OFFCURVE",
"419 -311.667 OFFCURVE",
"419 -99 CURVE SMOOTH",
"419 691 LINE SMOOTH",
"419 723 OFFCURVE",
"418.5 769.333 OFFCURVE",
"417.5 830 CURVE SMOOTH",
"416.5 890.667 OFFCURVE",
"414.667 960 OFFCURVE",
"412 1038 CURVE",
"454 962 OFFCURVE",
"492.833 893.5 OFFCURVE",
"528.5 832.5 CURVE SMOOTH",
"564.167 771.5 OFFCURVE",
"593 724 OFFCURVE",
"615 690 CURVE SMOOTH",
"980 110 LINE SMOOTH",
"1028 34 OFFCURVE",
"1089 0 OFFCURVE",
"1179 0 CURVE SMOOTH",
"1212 0 LINE SMOOTH",
"1317 0 OFFCURVE",
"1374 59 OFFCURVE",
"1374 166 CURVE SMOOTH",
"1374 1324 LINE SMOOTH",
"1374 1432 OFFCURVE",
"1320 1490 OFFCURVE",
"1221 1490 CURVE SMOOTH",
"1122 1490 OFFCURVE",
"1067 1431 OFFCURVE",
"1067 1324 CURVE SMOOTH",
"1067 753 LINE",
"1068 622.5 LINE SMOOTH",
"1068.667 566.833 OFFCURVE",
"1070 510 OFFCURVE",
"1072 452 CURVE",
"1042.667 505.333 OFFCURVE",
"1013.333 557.667 OFFCURVE",
"984 609 CURVE SMOOTH",
"954.667 660.333 OFFCURVE",
"931.333 700 OFFCURVE",
"914 728 CURVE SMOOTH",
"504 1380 LINE SMOOTH",
"456 1456 OFFCURVE",
"395 1490 OFFCURVE",
"305 1490 CURVE SMOOTH",
"273 1490 LINE SMOOTH",
"168 1490 OFFCURVE",
"111 1432 OFFCURVE",
"111 1324 CURVE SMOOTH",
"111 -83 LINE SMOOTH",
"111 -143 OFFCURVE",
"78.333 -173 OFFCURVE",
"13 -173 CURVE SMOOTH",
"-64 -173 OFFCURVE",
"-106 -217 OFFCURVE",
"-106 -296 CURVE SMOOTH"
);
}
);
userData = {
assembly = "NPUSHB[ ]	/* 43 values pushed */\01221 10 2 3 1 1 76 2 1 1 1 103 77 0 3 3 104 77 0 0 0 4 96 5 1 4 4 108 4 78 0 0 0 27 0 26 17 24 18 33 6 12 26 \012CALL[ ]	/* CallFunction */";
};
width = 1485;
}
);
leftKerningGroup = Fhook;
note = Nhook;
rightKerningGroup = Ereversed;
unicode = 019D;
},
{
glyphname = Nlongrightleg;
lastChange = "2024-07-06 19:10:55 +0000";
layers = (
{
layerId = "EC312F70-CB40-4CEF-804A-742881A222CF";
paths = (
{
closed = 1;
nodes = (
"1158 -416 OFFCURVE",
"1210 -358 OFFCURVE",
"1210 -250 CURVE SMOOTH",
"1210 1056 LINE SMOOTH",
"1210 1152 OFFCURVE",
"1187.333 1233.833 OFFCURVE",
"1142 1301.5 CURVE SMOOTH",
"1096.667 1369.167 OFFCURVE",
"1035.833 1420.833 OFFCURVE",
"959.5 1456.5 CURVE SMOOTH",
"883.167 1492.167 OFFCURVE",
"798.667 1510 OFFCURVE",
"706 1510 CURVE SMOOTH",
"652 1510 OFFCURVE",
"600.167 1503.833 OFFCURVE",
"550.5 1491.5 CURVE SMOOTH",
"500.833 1479.167 OFFCURVE",
"453.667 1461.333 OFFCURVE",
"409 1438 CURVE",
"409 1464 LINE SMOOTH",
"409 1480 OFFCURVE",
"357 1490 OFFCURVE",
"262 1490 CURVE SMOOTH",
"167 1490 OFFCURVE",
"114 1431 OFFCURVE",
"114 1324 CURVE SMOOTH",
"114 166 LINE SMOOTH",
"114 58 OFFCURVE",
"166 0 OFFCURVE",
"262 0 CURVE SMOOTH",
"357 0 OFFCURVE",
"409 58 OFFCURVE",
"409 166 CURVE SMOOTH",
"409 1197 LINE",
"491.667 1248.333 OFFCURVE",
"577.333 1274 OFFCURVE",
"666 1274 CURVE SMOOTH",
"744.667 1274 OFFCURVE",
"805.333 1256.5 OFFCURVE",
"848 1221.5 CURVE SMOOTH",
"890.667 1186.5 OFFCURVE",
"912 1131.333 OFFCURVE",
"912 1056 CURVE SMOOTH",
"912 -250 LINE SMOOTH",
"912 -358 OFFCURVE",
"965 -416 OFFCURVE",
"1061 -416 CURVE SMOOTH"
);
}
);
userData = {
assembly = "NPUSHB[ ]	/* 10 values pushed */\01212 1 1 3 7 1 2 1 2 76 \012MPPEM[ ]	/* MeasurePixelPerEm */\012PUSHB[ ]	/* 1 value pushed */\01226 \012LT[ ]	/* LessThan */\012IF[ ]	/* If */\012NPUSHB[ ]	/* 22 values pushed */\0120 1 1 3 97 4 1 3 3 103 77 0 2 2 104 77 0 0 0 108 0 78 \012ELSE[ ]	/* Else */\012NPUSHB[ ]	/* 26 values pushed */\0120 3 3 103 77 0 1 1 4 97 0 4 4 109 77 0 2 2 104 77 0 0 0 108 0 78 \012EIF[ ]	/* EndIf */\012PUSHB[ ]	/* 8 values pushed */\01235 17 18 35 16 5 12 27 \012CALL[ ]	/* CallFunction */";
};
width = 1321;
}
);
note = uni0220;
unicode = 0220;
},
{
glyphname = O;
lastChange = "2024-07-06 19:10:55 +0000";
layers = (
{
layerId = "EC312F70-CB40-4CEF-804A-742881A222CF";
paths = (
{
closed = 1;
nodes = (
"899 -24 OFFCURVE",
"1018.833 7.167 OFFCURVE",
"1124.5 69.5 CURVE SMOOTH",
"1230.167 131.833 OFFCURVE",
"1313.833 220.333 OFFCURVE",
"1375.5 335 CURVE SMOOTH",
"1437.167 449.667 OFFCURVE",
"1468 586 OFFCURVE",
"1468 744 CURVE SMOOTH",
"1468 902.667 OFFCURVE",
"1437.167 1039.5 OFFCURVE",
"1375.5 1154.5 CURVE SMOOTH",
"1313.833 1269.5 OFFCURVE",
"1230.167 1358.167 OFFCURVE",
"1124.5 1420.5 CURVE SMOOTH",
"1018.833 1482.833 OFFCURVE",
"899 1514 OFFCURVE",
"765 1514 CURVE SMOOTH",
"631.667 1514 OFFCURVE",
"512 1482.833 OFFCURVE",
"406 1420.5 CURVE SMOOTH",
"300 1358.167 OFFCURVE",
"216.333 1269.5 OFFCURVE",
"155 1154.5 CURVE SMOOTH",
"93.667 1039.5 OFFCURVE",
"63 902.667 OFFCURVE",
"63 744 CURVE SMOOTH",
"63 586.667 OFFCURVE",
"93.667 450.5 OFFCURVE",
"155 335.5 CURVE SMOOTH",
"216.333 220.5 OFFCURVE",
"300 131.833 OFFCURVE",
"406 69.5 CURVE SMOOTH",
"512 7.167 OFFCURVE",
"631.667 -24 OFFCURVE",
"765 -24 CURVE SMOOTH"
);
},
{
closed = 1;
nodes = (
"650.333 248 OFFCURVE",
"556.333 291.167 OFFCURVE",
"483 377.5 CURVE SMOOTH",
"409.667 463.833 OFFCURVE",
"373 586 OFFCURVE",
"373 744 CURVE SMOOTH",
"373 902.667 OFFCURVE",
"409.667 1025.333 OFFCURVE",
"483 1112 CURVE SMOOTH",
"556.333 1198.667 OFFCURVE",
"650.333 1242 OFFCURVE",
"765 1242 CURVE SMOOTH",
"880.333 1242 OFFCURVE",
"974.667 1198.667 OFFCURVE",
"1048 1112 CURVE SMOOTH",
"1121.333 1025.333 OFFCURVE",
"1158 902.667 OFFCURVE",
"1158 744 CURVE SMOOTH",
"1158 586 OFFCURVE",
"1121.333 463.833 OFFCURVE",
"1048 377.5 CURVE SMOOTH",
"974.667 291.167 OFFCURVE",
"880.333 248 OFFCURVE",
"765 248 CURVE SMOOTH"
);
}
);
userData = {
assembly = "MPPEM[ ]	/* MeasurePixelPerEm */\012PUSHB[ ]	/* 1 value pushed */\01250 \012LT[ ]	/* LessThan */\012IF[ ]	/* If */\012NPUSHB[ ]	/* 23 values pushed */\0120 3 3 1 97 0 1 1 109 77 5 1 2 2 0 97 4 1 0 0 110 0 78 \012ELSE[ ]	/* Else */\012NPUSHB[ ]	/* 21 values pushed */\0120 1 0 3 2 1 3 105 5 1 2 2 0 97 4 1 0 0 110 0 78 \012EIF[ ]	/* EndIf */\012NPUSHB[ ]	/* 19 values pushed */\01217 16 1 0 23 21 16 27 17 27 9 7 0 15 1 15 6 12 22 \012CALL[ ]	/* CallFunction */";
};
width = 1531;
}
);
leftKerningGroup = C;
note = O;
rightKerningGroup = Oopen;
unicode = 004F;
},
{
glyphname = OU;
lastChange = "2024-07-06 19:10:55 +0000";
layers = (
{
layerId = "EC312F70-CB40-4CEF-804A-742881A222CF";
paths = (
{
closed = 1;
nodes = (
"567.667 951 OFFCURVE",
"505.833 961.167 OFFCURVE",
"459.5 981.5 CURVE SMOOTH",
"413.167 1001.833 OFFCURVE",
"390 1048 OFFCURVE",
"390 1120 CURVE SMOOTH",
"390 1165.333 OFFCURVE",
"400.167 1199.833 OFFCURVE",
"420.5 1223.5 CURVE SMOOTH",
"432 1236 OFFCURVE",
"446 1247 OFFCURVE",
"464 1256 CURVE SMOOTH",
"499 1273 OFFCURVE",
"517 1311 OFFCURVE",
"517 1392 CURVE SMOOTH",
"517 1467 OFFCURVE",
"449 1518 OFFCURVE",
"340 1484 CURVE SMOOTH",
"287 1467 OFFCURVE",
"240 1442 OFFCURVE",
"199.5 1408.5 CURVE SMOOTH",
"119.833 1342.167 OFFCURVE",
"80 1246 OFFCURVE",
"80 1120 CURVE SMOOTH",
"80 1047.333 OFFCURVE",
"95.167 985.833 OFFCURVE",
"125.5 935.5 CURVE SMOOTH",
"155.833 885.167 OFFCURVE",
"198 844.667 OFFCURVE",
"252 814 CURVE",
"197.333 775.333 OFFCURVE",
"155 726.333 OFFCURVE",
"125 667 CURVE SMOOTH",
"95 607.667 OFFCURVE",
"80 538.667 OFFCURVE",
"80 460 CURVE SMOOTH",
"80 358 OFFCURVE",
"104.333 271.333 OFFCURVE",
"153 200 CURVE SMOOTH",
"201.667 128.667 OFFCURVE",
"268.667 74.167 OFFCURVE",
"354 36.5 CURVE SMOOTH",
"439.333 -1.167 OFFCURVE",
"538 -20 OFFCURVE",
"650 -20 CURVE SMOOTH",
"672 -20 LINE SMOOTH",
"783.333 -20 OFFCURVE",
"881.5 -1.167 OFFCURVE",
"966.5 36.5 CURVE SMOOTH",
"1051.5 74.167 OFFCURVE",
"1118 129 OFFCURVE",
"1166 201 CURVE SMOOTH",
"1214 273 OFFCURVE",
"1238 360.333 OFFCURVE",
"1238 463 CURVE SMOOTH",
"1238 541 OFFCURVE",
"1223.167 609.333 OFFCURVE",
"1193.5 668 CURVE SMOOTH",
"1163.833 726.667 OFFCURVE",
"1121.667 775.333 OFFCURVE",
"1067 814 CURVE",
"1122.333 845.333 OFFCURVE",
"1165.333 886.167 OFFCURVE",
"1196 936.5 CURVE SMOOTH",
"1226.667 986.833 OFFCURVE",
"1242 1048 OFFCURVE",
"1242 1120 CURVE SMOOTH",
"1242 1245.333 OFFCURVE",
"1202 1341.333 OFFCURVE",
"1122 1408 CURVE SMOOTH",
"1080 1443 OFFCURVE",
"1030 1469 OFFCURVE",
"973 1486 CURVE SMOOTH",
"869 1517 OFFCURVE",
"804 1467 OFFCURVE",
"804 1392 CURVE SMOOTH",
"804 1311 OFFCURVE",
"901 1223 OFFCURVE",
"900.5 1223 CURVE SMOOTH",
"921.5 1199 OFFCURVE",
"932 1164.667 OFFCURVE",
"932 1120 CURVE SMOOTH",
"932 1048.667 OFFCURVE",
"908.5 1002.667 OFFCURVE",
"861.5 982 CURVE SMOOTH",
"814.5 961.333 OFFCURVE",
"752 951 OFFCURVE",
"674 951 CURVE SMOOTH",
"645 951 LINE SMOOTH"
);
},
{
closed = 1;
nodes = (
"750 702 OFFCURVE",
"812.333 681.667 OFFCURVE",
"859 641 CURVE SMOOTH",
"905.667 600.333 OFFCURVE",
"929 541 OFFCURVE",
"929 463 CURVE SMOOTH",
"929 383 OFFCURVE",
"905.833 323.167 OFFCURVE",
"859.5 283.5 CURVE SMOOTH",
"813.167 243.833 OFFCURVE",
"750.667 224 OFFCURVE",
"672 224 CURVE SMOOTH",
"650 224 LINE SMOOTH",
"571.333 224 OFFCURVE",
"508.333 244 OFFCURVE",
"461 284 CURVE SMOOTH",
"413.667 324 OFFCURVE",
"390 382.667 OFFCURVE",
"390 460 CURVE SMOOTH",
"390 538.667 OFFCURVE",
"413.667 598.667 OFFCURVE",
"461 640 CURVE SMOOTH",
"508.333 681.333 OFFCURVE",
"571.333 702 OFFCURVE",
"650 702 CURVE SMOOTH",
"672 702 LINE SMOOTH"
);
}
);
userData = {
assembly = "NPUSHB[ ]	/* 62 values pushed */\01236 7 2 0 1 29 14 2 4 0 2 76 6 1 0 7 1 4 5 0 4 105 3 1 1 1 109 77 0 5 5 2 98 0 2 2 110 2 78 44 42 2 0 51 48 42 55 44 55 35 34 23 20 9 8 0 41 2 41 8 12 22 \012CALL[ ]	/* CallFunction */";
};
width = 1319;
}
);
note = uni0222;
unicode = 0222;
},
{
glyphname = Ohorn;
lastChange = "2024-07-06 19:10:55 +0000";
layers = (
{
layerId = "EC312F70-CB40-4CEF-804A-742881A222CF";
paths = (
{
closed = 1;
nodes = (
"899 -24 OFFCURVE",
"1018.833 7.167 OFFCURVE",
"1124.5 69.5 CURVE SMOOTH",
"1230.167 131.833 OFFCURVE",
"1313.833 220.333 OFFCURVE",
"1375.5 335 CURVE SMOOTH",
"1437.167 449.667 OFFCURVE",
"1468 586 OFFCURVE",
"1468 744 CURVE SMOOTH",
"1468 860.667 OFFCURVE",
"1450.667 966 OFFCURVE",
"1416 1060 CURVE SMOOTH",
"1381.333 1154 OFFCURVE",
"1333.667 1234.333 OFFCURVE",
"1273 1301 CURVE",
"1331.667 1304.333 OFFCURVE",
"1378.833 1321.5 OFFCURVE",
"1414.5 1352.5 CURVE SMOOTH",
"1450.167 1383.5 OFFCURVE",
"1468 1430.333 OFFCURVE",
"1468 1493 CURVE SMOOTH",
"1468 1564 LINE SMOOTH",
"1468 1672 OFFCURVE",
"1421 1730 OFFCURVE",
"1335 1730 CURVE SMOOTH",
"1249 1730 OFFCURVE",
"1202 1671 OFFCURVE",
"1202 1564 CURVE SMOOTH",
"1202 1516 LINE SMOOTH",
"1202 1498.667 OFFCURVE",
"1193.333 1490 OFFCURVE",
"1176 1490 CURVE SMOOTH",
"1119.333 1490 OFFCURVE",
"1072.333 1491.167 OFFCURVE",
"1035 1493.5 CURVE SMOOTH",
"997.667 1495.833 OFFCURVE",
"965.167 1498.667 OFFCURVE",
"937.5 1502 CURVE SMOOTH",
"909.833 1505.333 OFFCURVE",
"882.833 1508.167 OFFCURVE",
"856.5 1510.5 CURVE SMOOTH",
"830.167 1512.833 OFFCURVE",
"799.667 1514 OFFCURVE",
"765 1514 CURVE SMOOTH",
"631.667 1514 OFFCURVE",
"512 1482.833 OFFCURVE",
"406 1420.5 CURVE SMOOTH",
"300 1358.167 OFFCURVE",
"216.333 1269.5 OFFCURVE",
"155 1154.5 CURVE SMOOTH",
"93.667 1039.5 OFFCURVE",
"63 902.667 OFFCURVE",
"63 744 CURVE SMOOTH",
"63 586.667 OFFCURVE",
"93.667 450.5 OFFCURVE",
"155 335.5 CURVE SMOOTH",
"216.333 220.5 OFFCURVE",
"300 131.833 OFFCURVE",
"406 69.5 CURVE SMOOTH",
"512 7.167 OFFCURVE",
"631.667 -24 OFFCURVE",
"765 -24 CURVE SMOOTH"
);
},
{
closed = 1;
nodes = (
"650.333 248 OFFCURVE",
"556.333 291.167 OFFCURVE",
"483 377.5 CURVE SMOOTH",
"409.667 463.833 OFFCURVE",
"373 586 OFFCURVE",
"373 744 CURVE SMOOTH",
"373 902.667 OFFCURVE",
"409.667 1025.333 OFFCURVE",
"483 1112 CURVE SMOOTH",
"556.333 1198.667 OFFCURVE",
"650.333 1242 OFFCURVE",
"765 1242 CURVE SMOOTH",
"880.333 1242 OFFCURVE",
"974.667 1198.667 OFFCURVE",
"1048 1112 CURVE SMOOTH",
"1121.333 1025.333 OFFCURVE",
"1158 902.667 OFFCURVE",
"1158 744 CURVE SMOOTH",
"1158 586 OFFCURVE",
"1121.333 463.833 OFFCURVE",
"1048 377.5 CURVE SMOOTH",
"974.667 291.167 OFFCURVE",
"880.333 248 OFFCURVE",
"765 248 CURVE SMOOTH"
);
}
);
userData = {
assembly = "MPPEM[ ]	/* MeasurePixelPerEm */\012PUSHB[ ]	/* 1 value pushed */\01224 \012LT[ ]	/* LessThan */\012IF[ ]	/* If */\012NPUSHB[ ]	/* 32 values pushed */\0120 3 0 4 6 3 4 105 0 6 6 1 97 2 1 1 1 109 77 8 1 5 5 0 97 7 1 0 0 110 0 78 \012ELSE[ ]	/* Else */\012MPPEM[ ]	/* MeasurePixelPerEm */\012PUSHB[ ]	/* 1 value pushed */\01250 \012LT[ ]	/* LessThan */\012IF[ ]	/* If */\012NPUSHB[ ]	/* 36 values pushed */\0120 3 0 4 6 3 4 105 0 2 2 109 77 0 6 6 1 97 0 1 1 109 77 8 1 5 5 0 97 7 1 0 0 110 0 78 \012ELSE[ ]	/* Else */\012NPUSHB[ ]	/* 34 values pushed */\0120 3 0 4 6 3 4 105 0 1 0 6 5 1 6 105 0 2 2 109 77 8 1 5 5 0 97 7 1 0 0 110 0 78 \012EIF[ ]	/* EndIf */\012EIF[ ]	/* EndIf */\012NPUSHB[ ]	/* 25 values pushed */\01229 28 1 0 35 33 28 39 29 39 21 20 17 16 14 11 9 7 0 27 1 27 9 12 22 \012CALL[ ]	/* CallFunction */";
};
width = 1531;
}
);
leftKerningGroup = C;
note = Ohorn;
rightKerningGroup = Ohorn;
unicode = 01A0;
},
{
glyphname = Oi;
lastChange = "2024-07-06 19:10:55 +0000";
layers = (
{
layerId = "EC312F70-CB40-4CEF-804A-742881A222CF";
paths = (
{
closed = 1;
nodes = (
"1741 1324 LINE SMOOTH",
"1741 1432 OFFCURVE",
"1700 1490 OFFCURVE",
"1626 1490 CURVE SMOOTH",
"1548 1490 OFFCURVE",
"1492 1478 OFFCURVE",
"1421 1446 CURVE SMOOTH",
"1235 1361 LINE",
"1183.667 1402.333 OFFCURVE",
"1116.5 1437.5 OFFCURVE",
"1033.5 1466.5 CURVE SMOOTH",
"950.5 1495.5 OFFCURVE",
"856.667 1510 OFFCURVE",
"752 1510 CURVE SMOOTH",
"540.667 1510 OFFCURVE",
"376 1448.167 OFFCURVE",
"258 1324.5 CURVE SMOOTH",
"140 1200.833 OFFCURVE",
"81 1028 OFFCURVE",
"81 806 CURVE SMOOTH",
"81 684 LINE SMOOTH",
"81 538 OFFCURVE",
"107.333 412.333 OFFCURVE",
"160 307 CURVE SMOOTH",
"212.667 201.667 OFFCURVE",
"288.333 120.833 OFFCURVE",
"387 64.5 CURVE SMOOTH",
"485.667 8.167 OFFCURVE",
"604.333 -20 OFFCURVE",
"743 -20 CURVE SMOOTH",
"830.333 -20 OFFCURVE",
"910.333 -10.167 OFFCURVE",
"983 9.5 CURVE SMOOTH",
"1055.667 29.167 OFFCURVE",
"1118.5 54.667 OFFCURVE",
"1171.5 86 CURVE SMOOTH",
"1196 101 OFFCURVE",
"1218 116 OFFCURVE",
"1238 131 CURVE SMOOTH",
"1282 168 OFFCURVE",
"1294 222 OFFCURVE",
"1294 306 CURVE SMOOTH",
"1294 1075 LINE",
"1448 1143 LINE",
"1448 -252 LINE SMOOTH",
"1448 -360 OFFCURVE",
"1500 -418 OFFCURVE",
"1595 -418 CURVE SMOOTH",
"1690 -418 OFFCURVE",
"1741 -360 OFFCURVE",
"1741 -252 CURVE SMOOTH"
);
},
{
closed = 1;
nodes = (
"391 806 LINE SMOOTH",
"391 954 OFFCURVE",
"418.833 1067.333 OFFCURVE",
"474.5 1146 CURVE SMOOTH",
"530.167 1224.667 OFFCURVE",
"625 1264 OFFCURVE",
"759 1264 CURVE SMOOTH",
"807 1264 OFFCURVE",
"852.5 1257.833 OFFCURVE",
"895.5 1245.5 CURVE SMOOTH",
"938.5 1233.167 OFFCURVE",
"973 1215 OFFCURVE",
"999 1191 CURVE",
"999 299 LINE",
"974.333 276.333 OFFCURVE",
"941 258.167 OFFCURVE",
"899 244.5 CURVE SMOOTH",
"857 230.833 OFFCURVE",
"809.333 224 OFFCURVE",
"756 224 CURVE SMOOTH",
"625.333 224 OFFCURVE",
"532 265.333 OFFCURVE",
"476 348 CURVE SMOOTH",
"420 430.667 OFFCURVE",
"391.667 542.667 OFFCURVE",
"391 684 CURVE"
);
}
);
userData = {
assembly = "MPPEM[ ]	/* MeasurePixelPerEm */\012PUSHB[ ]	/* 1 value pushed */\01226 \012LT[ ]	/* LessThan */\012IF[ ]	/* If */\012NPUSHB[ ]	/* 17 values pushed */\01220 1 5 2 30 29 4 3 4 4 5 5 1 1 4 3 76 \012ELSE[ ]	/* Else */\012NPUSHB[ ]	/* 17 values pushed */\01220 1 5 3 30 29 4 3 4 4 5 5 1 1 4 3 76 \012EIF[ ]	/* EndIf */\012MPPEM[ ]	/* MeasurePixelPerEm */\012PUSHB[ ]	/* 1 value pushed */\01226 \012LT[ ]	/* LessThan */\012IF[ ]	/* If */\012NPUSHB[ ]	/* 28 values pushed */\0120 5 5 2 97 6 3 2 2 2 109 77 0 4 4 1 97 0 1 1 110 77 0 0 0 108 0 78 \012ELSE[ ]	/* Else */\012NPUSHB[ ]	/* 32 values pushed */\0126 1 3 3 103 77 0 5 5 2 97 0 2 2 109 77 0 4 4 1 97 0 1 1 110 77 0 0 0 108 0 78 \012EIF[ ]	/* EndIf */\012NPUSHB[ ]	/* 16 values pushed */\0120 0 34 32 27 25 0 21 0 21 38 38 17 7 12 25 \012CALL[ ]	/* CallFunction */";
};
width = 1852;
}
);
note = OI;
unicode = 01A2;
},
{
glyphname = Oopen;
lastChange = "2024-07-06 19:10:55 +0000";
layers = (
{
layerId = "EC312F70-CB40-4CEF-804A-742881A222CF";
paths = (
{
closed = 1;
nodes = (
"600 1514 OFFCURVE",
"495.333 1491.5 OFFCURVE",
"402 1446.5 CURVE SMOOTH",
"308.667 1401.5 OFFCURVE",
"232.333 1338 OFFCURVE",
"173 1256 CURVE SMOOTH",
"143 1214 OFFCURVE",
"118 1168 OFFCURVE",
"99 1119 CURVE SMOOTH",
"64 1027 OFFCURVE",
"126 967 OFFCURVE",
"231 967 CURVE SMOOTH",
"326 967 OFFCURVE",
"371 1013 OFFCURVE",
"423 1097 CURVE SMOOTH",
"441 1125 OFFCURVE",
"463 1149 OFFCURVE",
"489.5 1170 CURVE SMOOTH",
"549.833 1218 OFFCURVE",
"624 1242 OFFCURVE",
"712 1242 CURVE SMOOTH",
"838.667 1242 OFFCURVE",
"937.5 1197.167 OFFCURVE",
"1008.5 1107.5 CURVE SMOOTH",
"1079.5 1017.833 OFFCURVE",
"1115 897.333 OFFCURVE",
"1115 746 CURVE SMOOTH",
"1115 593.333 OFFCURVE",
"1079.5 472.167 OFFCURVE",
"1008.5 382.5 CURVE SMOOTH",
"937.5 292.833 OFFCURVE",
"838.667 248 OFFCURVE",
"712 248 CURVE SMOOTH",
"623.333 248 OFFCURVE",
"548.833 272.167 OFFCURVE",
"488.5 320.5 CURVE SMOOTH",
"457 346 OFFCURVE",
"432 376 OFFCURVE",
"412 412 CURVE SMOOTH",
"372 486 OFFCURVE",
"326 525 OFFCURVE",
"231 525 CURVE SMOOTH",
"216 525 LINE SMOOTH",
"121 525 OFFCURVE",
"64 450 OFFCURVE",
"113 339 CURVE SMOOTH",
"130 302 OFFCURVE",
"150 268 OFFCURVE",
"173 235.5 CURVE SMOOTH",
"232.333 153.167 OFFCURVE",
"308.667 89.333 OFFCURVE",
"402 44 CURVE SMOOTH",
"495.333 -1.333 OFFCURVE",
"600 -24 OFFCURVE",
"716 -24 CURVE SMOOTH",
"852.667 -24 OFFCURVE",
"974.333 7.167 OFFCURVE",
"1081 69.5 CURVE SMOOTH",
"1187.667 131.833 OFFCURVE",
"1271.5 220.5 OFFCURVE",
"1332.5 335.5 CURVE SMOOTH",
"1393.5 450.5 OFFCURVE",
"1424 587.333 OFFCURVE",
"1424 746 CURVE SMOOTH",
"1424 903.333 OFFCURVE",
"1393.5 1039.5 OFFCURVE",
"1332.5 1154.5 CURVE SMOOTH",
"1271.5 1269.5 OFFCURVE",
"1187.667 1358.167 OFFCURVE",
"1081 1420.5 CURVE SMOOTH",
"974.333 1482.833 OFFCURVE",
"852.667 1514 OFFCURVE",
"716 1514 CURVE SMOOTH"
);
}
);
userData = {
assembly = "MPPEM[ ]	/* MeasurePixelPerEm */\012PUSHB[ ]	/* 1 value pushed */\01250 \012LT[ ]	/* LessThan */\012IF[ ]	/* If */\012NPUSHB[ ]	/* 37 values pushed */\0120 5 4 2 4 5 2 128 0 2 3 4 2 3 126 0 4 4 0 97 6 1 0 0 109 77 0 3 3 1 97 0 1 1 110 1 78 \012ELSE[ ]	/* Else */\012NPUSHB[ ]	/* 35 values pushed */\0120 5 4 2 4 5 2 128 0 2 3 4 2 3 126 6 1 0 0 4 5 0 4 105 0 3 3 1 97 0 1 1 110 1 78 \012EIF[ ]	/* EndIf */\012NPUSHB[ ]	/* 19 values pushed */\0121 0 26 25 23 21 17 15 13 12 9 7 0 29 1 29 7 12 22 \012CALL[ ]	/* CallFunction */";
};
width = 1487;
}
);
leftKerningGroup = C;
note = uni0186;
rightKerningGroup = Oopen;
unicode = 0186;
},
{
glyphname = OE;
lastChange = "2024-07-06 19:10:55 +0000";
layers = (
{
layerId = "EC312F70-CB40-4CEF-804A-742881A222CF";
paths = (
{
closed = 1;
nodes = (
"1874 0 LINE SMOOTH",
"1982 0 OFFCURVE",
"2040 47 OFFCURVE",
"2040 132 CURVE SMOOTH",
"2040 217 OFFCURVE",
"1981 264 OFFCURVE",
"1874 264 CURVE SMOOTH",
"1278 264 LINE",
"1278 624 LINE",
"1816 624 LINE SMOOTH",
"1924 624 OFFCURVE",
"1982 670 OFFCURVE",
"1982 753 CURVE SMOOTH",
"1982 836 OFFCURVE",
"1923 881 OFFCURVE",
"1816 881 CURVE SMOOTH",
"1278 881 LINE",
"1278 1226 LINE",
"1874 1226 LINE SMOOTH",
"1982 1226 OFFCURVE",
"2040 1273 OFFCURVE",
"2040 1358 CURVE SMOOTH",
"2040 1443 OFFCURVE",
"1981 1490 OFFCURVE",
"1874 1490 CURVE SMOOTH",
"791 1490 LINE SMOOTH",
"641.667 1490 OFFCURVE",
"512.5 1459.667 OFFCURVE",
"403.5 1399 CURVE SMOOTH",
"294.5 1338.333 OFFCURVE",
"210.5 1252.333 OFFCURVE",
"151.5 1141 CURVE SMOOTH",
"92.5 1029.667 OFFCURVE",
"63 898 OFFCURVE",
"63 746 CURVE SMOOTH",
"63 593.333 OFFCURVE",
"92.5 461.167 OFFCURVE",
"151.5 349.5 CURVE SMOOTH",
"210.5 237.833 OFFCURVE",
"294.667 151.667 OFFCURVE",
"404 91 CURVE SMOOTH",
"513.333 30.333 OFFCURVE",
"644.333 0 OFFCURVE",
"797 0 CURVE SMOOTH"
);
},
{
closed = 1;
nodes = (
"971 259 LINE",
"813 259 LINE SMOOTH",
"662.333 259 OFFCURVE",
"550.833 301 OFFCURVE",
"478.5 385 CURVE SMOOTH",
"406.167 469 OFFCURVE",
"370 589.333 OFFCURVE",
"370 746 CURVE SMOOTH",
"370 902.667 OFFCURVE",
"406.333 1022.667 OFFCURVE",
"479 1106 CURVE SMOOTH",
"551.667 1189.333 OFFCURVE",
"662 1231 OFFCURVE",
"810 1231 CURVE SMOOTH",
"971 1231 LINE"
);
}
);
userData = {
assembly = "NPUSHB[ ]	/* 60 values pushed */\0120 3 0 4 5 3 4 103 6 1 2 2 1 95 0 1 1 103 77 9 7 2 5 5 0 95 8 1 0 0 104 0 78 19 19 1 0 19 27 19 26 22 20 17 16 15 14 13 12 11 10 9 7 0 18 1 18 10 12 22 \012CALL[ ]	/* CallFunction */";
};
width = 2105;
}
);
leftKerningGroup = C;
note = OE;
rightKerningGroup = AE;
unicode = 0152;
},
{
glyphname = P;
lastChange = "2024-07-06 19:10:55 +0000";
layers = (
{
layerId = "EC312F70-CB40-4CEF-804A-742881A222CF";
paths = (
{
closed = 1;
nodes = (
"111 166 LINE SMOOTH",
"111 58 OFFCURVE",
"165 0 OFFCURVE",
"265 0 CURVE SMOOTH",
"365 0 OFFCURVE",
"419 58 OFFCURVE",
"419 166 CURVE SMOOTH",
"419 512 LINE",
"695 512 LINE SMOOTH",
"807 512 OFFCURVE",
"904 532 OFFCURVE",
"986 572 CURVE SMOOTH",
"1068 612 OFFCURVE",
"1131.5 668.5 OFFCURVE",
"1176.5 741.5 CURVE SMOOTH",
"1221.5 814.5 OFFCURVE",
"1244 901 OFFCURVE",
"1244 1001 CURVE SMOOTH",
"1244 1101 OFFCURVE",
"1221.833 1187.667 OFFCURVE",
"1177.5 1261 CURVE SMOOTH",
"1133.167 1334.333 OFFCURVE",
"1070.167 1390.833 OFFCURVE",
"988.5 1430.5 CURVE SMOOTH",
"906.833 1470.167 OFFCURVE",
"810.333 1490 OFFCURVE",
"699 1490 CURVE SMOOTH",
"277 1490 LINE SMOOTH",
"169 1490 OFFCURVE",
"111 1431 OFFCURVE",
"111 1324 CURVE SMOOTH"
);
},
{
closed = 1;
nodes = (
"419 770 LINE",
"419 1232 LINE",
"679 1232 LINE SMOOTH",
"760.333 1232 OFFCURVE",
"824.667 1211.333 OFFCURVE",
"872 1170 CURVE SMOOTH",
"919.333 1128.667 OFFCURVE",
"943 1072.333 OFFCURVE",
"943 1001 CURVE SMOOTH",
"943 930.333 OFFCURVE",
"919.333 874.167 OFFCURVE",
"872 832.5 CURVE SMOOTH",
"824.667 790.833 OFFCURVE",
"760.333 770 OFFCURVE",
"679 770 CURVE SMOOTH"
);
}
);
userData = {
assembly = "NPUSHB[ ]	/* 40 values pushed */\0120 3 0 1 2 3 1 103 0 4 4 0 95 0 0 0 103 77 5 1 2 2 104 2 78 0 0 21 19 15 13 0 12 0 12 38 33 6 12 24 \012CALL[ ]	/* CallFunction */";
};
width = 1293;
}
);
leftKerningGroup = B;
note = P;
rightKerningGroup = P;
unicode = 0050;
},
{
glyphname = Phook;
lastChange = "2024-07-06 19:10:55 +0000";
layers = (
{
layerId = "EC312F70-CB40-4CEF-804A-742881A222CF";
paths = (
{
closed = 1;
nodes = (
"33 1085 OFFCURVE",
"84 1033 OFFCURVE",
"179 1033 CURVE SMOOTH",
"273 1033 OFFCURVE",
"324 1075 OFFCURVE",
"324 1151 CURVE SMOOTH",
"324 1205.667 OFFCURVE",
"354 1233 OFFCURVE",
"414 1233 CURVE SMOOTH",
"499 1233 LINE",
"499 166 LINE SMOOTH",
"499 58 OFFCURVE",
"553 0 OFFCURVE",
"653 0 CURVE SMOOTH",
"753 0 OFFCURVE",
"807 58 OFFCURVE",
"807 166 CURVE SMOOTH",
"807 512 LINE",
"1083 512 LINE SMOOTH",
"1195 512 OFFCURVE",
"1292 532 OFFCURVE",
"1374 572 CURVE SMOOTH",
"1456 612 OFFCURVE",
"1519.5 668.5 OFFCURVE",
"1564.5 741.5 CURVE SMOOTH",
"1609.5 814.5 OFFCURVE",
"1632 901 OFFCURVE",
"1632 1001 CURVE SMOOTH",
"1632 1101 OFFCURVE",
"1609.833 1187.667 OFFCURVE",
"1565.5 1261 CURVE SMOOTH",
"1521.167 1334.333 OFFCURVE",
"1458.167 1390.833 OFFCURVE",
"1376.5 1430.5 CURVE SMOOTH",
"1294.833 1470.167 OFFCURVE",
"1198.333 1490 OFFCURVE",
"1087 1490 CURVE SMOOTH",
"333 1490 LINE SMOOTH",
"235 1490 OFFCURVE",
"160.5 1462.333 OFFCURVE",
"109.5 1407 CURVE SMOOTH",
"58.5 1351.667 OFFCURVE",
"33 1276.667 OFFCURVE",
"33 1182 CURVE SMOOTH"
);
},
{
closed = 1;
nodes = (
"807 770 LINE",
"807 1232 LINE",
"1067 1232 LINE SMOOTH",
"1148.333 1232 OFFCURVE",
"1212.667 1211.333 OFFCURVE",
"1260 1170 CURVE SMOOTH",
"1307.333 1128.667 OFFCURVE",
"1331 1072.333 OFFCURVE",
"1331 1001 CURVE SMOOTH",
"1331 930.333 OFFCURVE",
"1307.333 874.167 OFFCURVE",
"1260 832.5 CURVE SMOOTH",
"1212.667 790.833 OFFCURVE",
"1148.333 770 OFFCURVE",
"1067 770 CURVE SMOOTH"
);
}
);
userData = {
assembly = "MPPEM[ ]	/* MeasurePixelPerEm */\012PUSHB[ ]	/* 1 value pushed */\01212 \012LT[ ]	/* LessThan */\012IF[ ]	/* If */\012NPUSHB[ ]	/* 33 values pushed */\0127 1 4 3 5 3 4 114 0 5 0 1 2 5 1 103 6 1 3 3 0 95 0 0 0 103 77 0 2 2 104 2 78 \012ELSE[ ]	/* Else */\012NPUSHB[ ]	/* 34 values pushed */\0127 1 4 3 5 3 4 5 128 0 5 0 1 2 5 1 103 6 1 3 3 0 95 0 0 0 103 77 0 2 2 104 2 78 \012EIF[ ]	/* EndIf */\012NPUSHB[ ]	/* 17 values pushed */\0120 0 30 28 24 22 0 21 0 21 33 17 38 51 8 12 26 \012CALL[ ]	/* CallFunction */";
};
width = 1681;
}
);
leftKerningGroup = B;
note = uni01A4;
rightKerningGroup = P;
unicode = 01A4;
},
{
glyphname = Thorn;
lastChange = "2024-07-06 19:10:55 +0000";
layers = (
{
layerId = "EC312F70-CB40-4CEF-804A-742881A222CF";
paths = (
{
closed = 1;
nodes = (
"160 1490 OFFCURVE",
"107 1431 OFFCURVE",
"107 1324 CURVE SMOOTH",
"107 166 LINE SMOOTH",
"107 58 OFFCURVE",
"161 0 OFFCURVE",
"259 0 CURVE SMOOTH",
"357 0 OFFCURVE",
"410 58 OFFCURVE",
"410 166 CURVE SMOOTH",
"410 309 LINE",
"634 309 LINE SMOOTH",
"752.667 309 OFFCURVE",
"852.833 328.5 OFFCURVE",
"934.5 367.5 CURVE SMOOTH",
"1016.167 406.5 OFFCURVE",
"1078 460.167 OFFCURVE",
"1120 528.5 CURVE SMOOTH",
"1162 596.833 OFFCURVE",
"1183 674 OFFCURVE",
"1183 760 CURVE SMOOTH",
"1183 846.667 OFFCURVE",
"1162 924 OFFCURVE",
"1120 992 CURVE SMOOTH",
"1078 1060 OFFCURVE",
"1016.167 1113.833 OFFCURVE",
"934.5 1153.5 CURVE SMOOTH",
"852.833 1193.167 OFFCURVE",
"752.667 1213 OFFCURVE",
"634 1213 CURVE SMOOTH",
"410 1213 LINE",
"410 1352 LINE SMOOTH",
"410 1442 OFFCURVE",
"357 1490 OFFCURVE",
"259 1490 CURVE SMOOTH"
);
},
{
closed = 1;
nodes = (
"410 542 LINE",
"410 978 LINE",
"634 978 LINE SMOOTH",
"724.667 978 OFFCURVE",
"791.167 956.333 OFFCURVE",
"833.5 913 CURVE SMOOTH",
"875.833 869.667 OFFCURVE",
"897 817.333 OFFCURVE",
"897 756 CURVE SMOOTH",
"897 696.667 OFFCURVE",
"875.833 646.333 OFFCURVE",
"833.5 605 CURVE SMOOTH",
"791.167 563.667 OFFCURVE",
"724.667 542.667 OFFCURVE",
"634 542 CURVE SMOOTH"
);
}
);
userData = {
assembly = "NPUSHB[ ]	/* 36 values pushed */\0120 1 0 5 4 1 5 103 0 4 0 2 3 4 2 103 0 0 0 103 77 0 3 3 104 3 78 36 33 17 38 33 16 6 12 28 \012CALL[ ]	/* CallFunction */";
};
width = 1319;
}
);
leftKerningGroup = B;
note = Thorn;
unicode = 00DE;
},
{
glyphname = Q;
lastChange = "2024-07-06 19:10:55 +0000";
layers = (
{
layerId = "EC312F70-CB40-4CEF-804A-742881A222CF";
paths = (
{
closed = 1;
nodes = (
"857.667 -24 OFFCURVE",
"944.667 -8.667 OFFCURVE",
"1026 22 CURVE",
"1084 -51 LINE SMOOTH",
"1124 -102 OFFCURVE",
"1178 -124 OFFCURVE",
"1266 -124 CURVE SMOOTH",
"1281 -124 LINE SMOOTH",
"1357 -124 OFFCURVE",
"1346 -32 OFFCURVE",
"1257 79 CURVE SMOOTH",
"1214 133 LINE",
"1292.667 199 OFFCURVE",
"1354.667 283.833 OFFCURVE",
"1400 387.5 CURVE SMOOTH",
"1445.333 491.167 OFFCURVE",
"1468 610 OFFCURVE",
"1468 744 CURVE SMOOTH",
"1468 902.667 OFFCURVE",
"1437.167 1039.5 OFFCURVE",
"1375.5 1154.5 CURVE SMOOTH",
"1313.833 1269.5 OFFCURVE",
"1230.167 1358.167 OFFCURVE",
"1124.5 1420.5 CURVE SMOOTH",
"1018.833 1482.833 OFFCURVE",
"899 1514 OFFCURVE",
"765 1514 CURVE SMOOTH",
"631.667 1514 OFFCURVE",
"512 1482.833 OFFCURVE",
"406 1420.5 CURVE SMOOTH",
"300 1358.167 OFFCURVE",
"216.333 1269.5 OFFCURVE",
"155 1154.5 CURVE SMOOTH",
"93.667 1039.5 OFFCURVE",
"63 902.667 OFFCURVE",
"63 744 CURVE SMOOTH",
"63 586.667 OFFCURVE",
"93.667 450.5 OFFCURVE",
"155 335.5 CURVE SMOOTH",
"216.333 220.5 OFFCURVE",
"300 131.833 OFFCURVE",
"406 69.5 CURVE SMOOTH",
"512 7.167 OFFCURVE",
"631.667 -24 OFFCURVE",
"765 -24 CURVE SMOOTH"
);
},
{
closed = 1;
nodes = (
"707 512 OFFCURVE",
"716 421 OFFCURVE",
"801 309 CURVE SMOOTH",
"842 255 LINE",
"817.333 250.333 OFFCURVE",
"791.667 248 OFFCURVE",
"765 248 CURVE SMOOTH",
"650.333 248 OFFCURVE",
"556.333 291.167 OFFCURVE",
"483 377.5 CURVE SMOOTH",
"409.667 463.833 OFFCURVE",
"373 586 OFFCURVE",
"373 744 CURVE SMOOTH",
"373 902.667 OFFCURVE",
"409.667 1025.333 OFFCURVE",
"483 1112 CURVE SMOOTH",
"556.333 1198.667 OFFCURVE",
"650.333 1242 OFFCURVE",
"765 1242 CURVE SMOOTH",
"880.333 1242 OFFCURVE",
"974.667 1198.667 OFFCURVE",
"1048 1112 CURVE SMOOTH",
"1121.333 1025.333 OFFCURVE",
"1158 902.667 OFFCURVE",
"1158 744 CURVE SMOOTH",
"1158 658 OFFCURVE",
"1146.667 582.333 OFFCURVE",
"1124 517 CURVE SMOOTH",
"1101.333 451.667 OFFCURVE",
"1069.667 397.667 OFFCURVE",
"1029 355 CURVE",
"968 434 LINE SMOOTH",
"925 489 OFFCURVE",
"869 512 OFFCURVE",
"781 512 CURVE SMOOTH"
);
}
);
userData = {
assembly = "NPUSHB[ ]	/* 12 values pushed */\01236 22 2 5 3 18 15 2 0 5 2 76 \012MPPEM[ ]	/* MeasurePixelPerEm */\012PUSHB[ ]	/* 1 value pushed */\01210 \012LT[ ]	/* LessThan */\012IF[ ]	/* If */\012NPUSHB[ ]	/* 34 values pushed */\0120 3 4 5 5 3 114 0 2 0 2 134 0 4 4 1 97 0 1 1 109 77 0 5 5 0 98 6 1 0 0 110 0 78 \012ELSE[ ]	/* Else */\012MPPEM[ ]	/* MeasurePixelPerEm */\012PUSHB[ ]	/* 1 value pushed */\01250 \012LT[ ]	/* LessThan */\012IF[ ]	/* If */\012NPUSHB[ ]	/* 35 values pushed */\0120 3 4 5 4 3 5 128 0 2 0 2 134 0 4 4 1 97 0 1 1 109 77 0 5 5 0 98 6 1 0 0 110 0 78 \012ELSE[ ]	/* Else */\012NPUSHB[ ]	/* 33 values pushed */\0120 3 4 5 4 3 5 128 0 2 0 2 134 0 1 0 4 3 1 4 105 0 5 5 0 98 6 1 0 0 110 0 78 \012EIF[ ]	/* EndIf */\012EIF[ ]	/* EndIf */\012NPUSHB[ ]	/* 19 values pushed */\0121 0 35 33 29 27 21 20 17 16 9 7 0 19 1 19 7 12 22 \012CALL[ ]	/* CallFunction */";
};
width = 1531;
}
);
leftKerningGroup = C;
note = Q;
rightKerningGroup = Oopen;
unicode = 0051;
},
{
glyphname = Q_rthook;
lastChange = "2024-07-06 19:10:55 +0000";
layers = (
{
layerId = "EC312F70-CB40-4CEF-804A-742881A222CF";
paths = (
{
closed = 1;
nodes = (
"1429 1324 LINE SMOOTH",
"1429 1432 OFFCURVE",
"1377 1490 OFFCURVE",
"1282 1490 CURVE SMOOTH",
"1187 1490 OFFCURVE",
"1135 1431 OFFCURVE",
"1135 1324 CURVE SMOOTH",
"1135 1275 LINE",
"1133 1275 LINE",
"1093 1349.667 OFFCURVE",
"1034.833 1407.833 OFFCURVE",
"958.5 1449.5 CURVE SMOOTH",
"882.167 1491.167 OFFCURVE",
"796 1512 OFFCURVE",
"700 1512 CURVE SMOOTH",
"577.333 1512 OFFCURVE",
"468 1479 OFFCURVE",
"372 1413 CURVE SMOOTH",
"276 1347 OFFCURVE",
"200.5 1256.167 OFFCURVE",
"145.5 1140.5 CURVE SMOOTH",
"90.5 1024.833 OFFCURVE",
"63 892.667 OFFCURVE",
"63 744 CURVE SMOOTH",
"63 595.333 OFFCURVE",
"90.333 463.333 OFFCURVE",
"145 348 CURVE SMOOTH",
"199.667 232.667 OFFCURVE",
"275 142.167 OFFCURVE",
"371 76.5 CURVE SMOOTH",
"467 10.833 OFFCURVE",
"576.667 -22 OFFCURVE",
"700 -22 CURVE SMOOTH",
"798 -22 OFFCURVE",
"884.833 -1 OFFCURVE",
"960.5 41 CURVE SMOOTH",
"1036.167 83 OFFCURVE",
"1093.667 142 OFFCURVE",
"1133 218 CURVE",
"1135 218 LINE",
"1135 -99 LINE SMOOTH",
"1135 -311.667 OFFCURVE",
"1251.333 -418 OFFCURVE",
"1484 -418 CURVE SMOOTH",
"1589 -418 OFFCURVE",
"1646 -376 OFFCURVE",
"1646 -299 CURVE SMOOTH",
"1646 -222 OFFCURVE",
"1604 -180 OFFCURVE",
"1527 -180 CURVE SMOOTH",
"1461.667 -180 OFFCURVE",
"1429 -149 OFFCURVE",
"1429 -87 CURVE SMOOTH"
);
},
{
closed = 1;
nodes = (
"634.667 246 OFFCURVE",
"541.667 290.667 OFFCURVE",
"473 380 CURVE SMOOTH",
"404.333 469.333 OFFCURVE",
"370 590.667 OFFCURVE",
"370 744 CURVE SMOOTH",
"370 897.333 OFFCURVE",
"404.5 1019 OFFCURVE",
"473.5 1109 CURVE SMOOTH",
"542.5 1199 OFFCURVE",
"635.667 1244 OFFCURVE",
"753 1244 CURVE SMOOTH",
"872.333 1244 OFFCURVE",
"965.833 1199.667 OFFCURVE",
"1033.5 1111 CURVE SMOOTH",
"1101.167 1022.333 OFFCURVE",
"1135 900 OFFCURVE",
"1135 744 CURVE SMOOTH",
"1135 590.667 OFFCURVE",
"1100.667 469.333 OFFCURVE",
"1032 380 CURVE SMOOTH",
"963.333 290.667 OFFCURVE",
"870 246 OFFCURVE",
"752 246 CURVE SMOOTH"
);
}
);
userData = {
assembly = "MPPEM[ ]	/* MeasurePixelPerEm */\012PUSHB[ ]	/* 1 value pushed */\01223 \012LT[ ]	/* LessThan */\012IF[ ]	/* If */\012NPUSHB[ ]	/* 10 values pushed */\01224 1 6 3 9 1 2 5 2 76 \012ELSE[ ]	/* Else */\012NPUSHB[ ]	/* 10 values pushed */\01224 1 6 4 9 1 2 5 2 76 \012EIF[ ]	/* EndIf */\012MPPEM[ ]	/* MeasurePixelPerEm */\012PUSHB[ ]	/* 1 value pushed */\01223 \012LT[ ]	/* LessThan */\012IF[ ]	/* If */\012NPUSHB[ ]	/* 34 values pushed */\0120 6 6 3 97 7 4 2 3 3 109 77 8 1 5 5 2 97 0 2 2 110 77 0 0 0 1 96 0 1 1 108 1 78 \012ELSE[ ]	/* Else */\012NPUSHB[ ]	/* 38 values pushed */\0127 1 4 4 103 77 0 6 6 3 97 0 3 3 109 77 8 1 5 5 2 97 0 2 2 110 77 0 0 0 1 96 0 1 1 108 1 78 \012EIF[ ]	/* EndIf */\012NPUSHB[ ]	/* 21 values pushed */\01228 27 0 0 34 32 27 38 28 38 0 26 0 26 38 37 33 34 9 12 26 \012CALL[ ]	/* CallFunction */";
};
width = 1540;
}
);
leftKerningGroup = C;
note = Q_rthook;
rightKerningGroup = Q_rthook;
},
{
glyphname = R;
lastChange = "2024-07-06 19:10:55 +0000";
layers = (
{
layerId = "EC312F70-CB40-4CEF-804A-742881A222CF";
paths = (
{
closed = 1;
nodes = (
"111 166 LINE SMOOTH",
"111 58 OFFCURVE",
"165 0 OFFCURVE",
"265 0 CURVE SMOOTH",
"365 0 OFFCURVE",
"419 59 OFFCURVE",
"419 166 CURVE SMOOTH",
"419 521 LINE",
"689 521 LINE",
"692 521 LINE",
"895 120 LINE SMOOTH",
"937 37 OFFCURVE",
"998 0 OFFCURVE",
"1091 0 CURVE SMOOTH",
"1121 0 LINE SMOOTH",
"1217 0 OFFCURVE",
"1243 82 OFFCURVE",
"1184 197 CURVE SMOOTH",
"987 579 LINE",
"1070.333 617.667 OFFCURVE",
"1135.5 673 OFFCURVE",
"1182.5 745 CURVE SMOOTH",
"1229.5 817 OFFCURVE",
"1253 902.333 OFFCURVE",
"1253 1001 CURVE SMOOTH",
"1253 1101 OFFCURVE",
"1230.833 1187.667 OFFCURVE",
"1186.5 1261 CURVE SMOOTH",
"1142.167 1334.333 OFFCURVE",
"1079.167 1390.833 OFFCURVE",
"997.5 1430.5 CURVE SMOOTH",
"915.833 1470.167 OFFCURVE",
"819 1490 OFFCURVE",
"707 1490 CURVE SMOOTH",
"277 1490 LINE SMOOTH",
"169 1490 OFFCURVE",
"111 1431 OFFCURVE",
"111 1324 CURVE SMOOTH"
);
},
{
closed = 1;
nodes = (
"419 768 LINE",
"419 1234 LINE",
"688 1234 LINE SMOOTH",
"769.333 1234 OFFCURVE",
"833.667 1213 OFFCURVE",
"881 1171 CURVE SMOOTH",
"928.333 1129 OFFCURVE",
"952 1072.333 OFFCURVE",
"952 1001 CURVE SMOOTH",
"952 930.333 OFFCURVE",
"928.5 873.833 OFFCURVE",
"881.5 831.5 CURVE SMOOTH",
"834.5 789.167 OFFCURVE",
"770.333 768 OFFCURVE",
"689 768 CURVE SMOOTH"
);
}
);
userData = {
assembly = "NPUSHB[ ]	/* 48 values pushed */\0129 1 2 4 1 76 0 4 0 2 1 4 2 103 0 5 5 0 95 0 0 0 103 77 6 3 2 1 1 104 1 78 0 0 25 23 19 17 0 16 0 16 49 23 33 7 12 25 \012CALL[ ]	/* CallFunction */";
};
width = 1332;
}
);
leftKerningGroup = B;
note = R;
rightKerningGroup = G.1;
unicode = 0052;
},
{
glyphname = Rstroke;
lastChange = "2024-07-06 19:10:55 +0000";
layers = (
{
layerId = "EC312F70-CB40-4CEF-804A-742881A222CF";
paths = (
{
closed = 1;
nodes = (
"143 166 LINE SMOOTH",
"143 58 OFFCURVE",
"197 0 OFFCURVE",
"297 0 CURVE SMOOTH",
"397 0 OFFCURVE",
"451 59 OFFCURVE",
"451 166 CURVE SMOOTH",
"451 521 LINE",
"721 521 LINE",
"724 521 LINE",
"927 120 LINE SMOOTH",
"969 37 OFFCURVE",
"1030 0 OFFCURVE",
"1123 0 CURVE SMOOTH",
"1153 0 LINE SMOOTH",
"1249 0 OFFCURVE",
"1275 82 OFFCURVE",
"1216 197 CURVE SMOOTH",
"1019 579 LINE",
"1102.333 617.667 OFFCURVE",
"1167.5 673 OFFCURVE",
"1214.5 745 CURVE SMOOTH",
"1261.5 817 OFFCURVE",
"1285 902.333 OFFCURVE",
"1285 1001 CURVE SMOOTH",
"1285 1101 OFFCURVE",
"1262.833 1187.667 OFFCURVE",
"1218.5 1261 CURVE SMOOTH",
"1174.167 1334.333 OFFCURVE",
"1111.167 1390.833 OFFCURVE",
"1029.5 1430.5 CURVE SMOOTH",
"947.833 1470.167 OFFCURVE",
"851.333 1490 OFFCURVE",
"740 1490 CURVE SMOOTH",
"309 1490 LINE SMOOTH",
"201 1490 OFFCURVE",
"143 1432 OFFCURVE",
"143 1324 CURVE SMOOTH",
"143 781 LINE",
"69 781 LINE SMOOTH",
"21 781 OFFCURVE",
"-6 741 OFFCURVE",
"-6 667 CURVE SMOOTH",
"-6 593 OFFCURVE",
"47 552 OFFCURVE",
"143 552 CURVE"
);
},
{
closed = 1;
nodes = (
"451 768 LINE",
"451 1234 LINE",
"720 1234 LINE SMOOTH",
"801.333 1234 OFFCURVE",
"865.667 1213 OFFCURVE",
"913 1171 CURVE SMOOTH",
"960.333 1129 OFFCURVE",
"984 1072.333 OFFCURVE",
"984 1001 CURVE SMOOTH",
"984 930.333 OFFCURVE",
"960.5 873.833 OFFCURVE",
"913.5 831.5 CURVE SMOOTH",
"866.5 789.167 OFFCURVE",
"802.333 768 OFFCURVE",
"721 768 CURVE SMOOTH"
);
}
);
userData = {
assembly = "MPPEM[ ]	/* MeasurePixelPerEm */\012PUSHB[ ]	/* 1 value pushed */\01239 \012LT[ ]	/* LessThan */\012IF[ ]	/* If */\012PUSHB[ ]	/* 6 values pushed */\01213 1 0 1 1 76 \012ELSE[ ]	/* Else */\012PUSHB[ ]	/* 6 values pushed */\01213 1 0 6 1 76 \012EIF[ ]	/* EndIf */\012MPPEM[ ]	/* MeasurePixelPerEm */\012PUSHB[ ]	/* 1 value pushed */\01216 \012LT[ ]	/* LessThan */\012IF[ ]	/* If */\012NPUSHB[ ]	/* 28 values pushed */\0126 1 1 4 1 0 3 1 0 103 0 7 7 2 95 0 2 2 103 77 8 5 2 3 3 104 3 78 \012ELSE[ ]	/* Else */\012MPPEM[ ]	/* MeasurePixelPerEm */\012PUSHB[ ]	/* 1 value pushed */\01239 \012LT[ ]	/* LessThan */\012IF[ ]	/* If */\012NPUSHB[ ]	/* 33 values pushed */\0120 0 4 1 0 87 6 1 1 0 4 3 1 4 103 0 7 7 2 95 0 2 2 103 77 8 5 2 3 3 104 3 78 \012ELSE[ ]	/* Else */\012NPUSHB[ ]	/* 34 values pushed */\0120 1 0 0 4 1 0 103 0 6 0 4 3 6 4 103 0 7 7 2 95 0 2 2 103 77 8 5 2 3 3 104 3 78 \012EIF[ ]	/* EndIf */\012EIF[ ]	/* EndIf */\012NPUSHB[ ]	/* 18 values pushed */\0120 0 29 27 23 21 0 20 0 20 49 23 33 17 17 9 12 27 \012CALL[ ]	/* CallFunction */";
};
width = 1331;
}
);
leftKerningGroup = B;
note = uni024C;
rightKerningGroup = G.1;
unicode = 024C;
},
{
glyphname = S;
lastChange = "2024-07-06 19:10:55 +0000";
layers = (
{
layerId = "EC312F70-CB40-4CEF-804A-742881A222CF";
paths = (
{
closed = 1;
nodes = (
"858.333 -24 OFFCURVE",
"1002.667 17.5 OFFCURVE",
"1108 100.5 CURVE SMOOTH",
"1213.333 183.5 OFFCURVE",
"1266 296.667 OFFCURVE",
"1266 440 CURVE SMOOTH",
"1266 552 OFFCURVE",
"1229.167 641.833 OFFCURVE",
"1155.5 709.5 CURVE SMOOTH",
"1081.833 777.167 OFFCURVE",
"965.667 828 OFFCURVE",
"807 862 CURVE SMOOTH",
"664 893 LINE SMOOTH",
"572.667 913 OFFCURVE",
"507 937 OFFCURVE",
"467 965 CURVE SMOOTH",
"427 993 OFFCURVE",
"407 1030 OFFCURVE",
"407 1076 CURVE SMOOTH",
"407 1130 OFFCURVE",
"431.167 1174.333 OFFCURVE",
"479.5 1209 CURVE SMOOTH",
"527.833 1243.667 OFFCURVE",
"590 1261 OFFCURVE",
"666 1261 CURVE SMOOTH",
"746 1261 OFFCURVE",
"810.667 1240.667 OFFCURVE",
"860 1200 CURVE SMOOTH",
"885 1179 OFFCURVE",
"905 1154 OFFCURVE",
"919 1125 CURVE SMOOTH",
"947 1065 OFFCURVE",
"987 1033 OFFCURVE",
"1082 1033 CURVE SMOOTH",
"1086 1033 LINE SMOOTH",
"1176 1033 OFFCURVE",
"1237 1103 OFFCURVE",
"1196 1212 CURVE SMOOTH",
"1170 1280 OFFCURVE",
"1129 1338 OFFCURVE",
"1072.5 1386 CURVE SMOOTH",
"972.167 1471.333 OFFCURVE",
"836.333 1514 OFFCURVE",
"665 1514 CURVE SMOOTH",
"551.667 1514 OFFCURVE",
"452.667 1495 OFFCURVE",
"368 1457 CURVE SMOOTH",
"283.333 1419 OFFCURVE",
"217.333 1366.167 OFFCURVE",
"170 1298.5 CURVE SMOOTH",
"122.667 1230.833 OFFCURVE",
"99 1151.667 OFFCURVE",
"99 1061 CURVE SMOOTH",
"99 848.333 OFFCURVE",
"245 710.333 OFFCURVE",
"537 647 CURVE SMOOTH",
"694 613 LINE SMOOTH",
"788.667 592.333 OFFCURVE",
"856.833 567 OFFCURVE",
"898.5 537 CURVE SMOOTH",
"940.167 507 OFFCURVE",
"961 468 OFFCURVE",
"961 420 CURVE SMOOTH",
"961 362 OFFCURVE",
"935 315.667 OFFCURVE",
"883 281 CURVE SMOOTH",
"831 246.333 OFFCURVE",
"762.333 229 OFFCURVE",
"677 229 CURVE SMOOTH",
"581.667 229 OFFCURVE",
"506.667 251.833 OFFCURVE",
"452 297.5 CURVE SMOOTH",
"424 321 OFFCURVE",
"402 350 OFFCURVE",
"388 383 CURVE SMOOTH",
"359 453 OFFCURVE",
"320 489 OFFCURVE",
"223 489 CURVE SMOOTH",
"219 489 LINE SMOOTH",
"125 489 OFFCURVE",
"61 422 OFFCURVE",
"95 313 CURVE SMOOTH",
"121 232 OFFCURVE",
"165 165 OFFCURVE",
"229.5 111 CURVE SMOOTH",
"335.833 21 OFFCURVE",
"484.333 -24 OFFCURVE",
"675 -24 CURVE SMOOTH"
);
}
);
userData = {
assembly = "MPPEM[ ]	/* MeasurePixelPerEm */\012PUSHB[ ]	/* 1 value pushed */\01250 \012LT[ ]	/* LessThan */\012IF[ ]	/* If */\012NPUSHB[ ]	/* 37 values pushed */\0120 4 5 1 5 4 1 128 0 1 2 5 1 2 126 0 5 5 3 97 0 3 3 109 77 0 2 2 0 97 6 1 0 0 110 0 78 \012ELSE[ ]	/* Else */\012NPUSHB[ ]	/* 35 values pushed */\0120 4 5 1 5 4 1 128 0 1 2 5 1 2 126 0 3 0 5 4 3 5 105 0 2 2 0 97 6 1 0 0 110 0 78 \012EIF[ ]	/* EndIf */\012NPUSHB[ ]	/* 19 values pushed */\0121 0 28 26 24 23 21 19 8 6 4 3 0 39 1 39 7 12 22 \012CALL[ ]	/* CallFunction */";
};
width = 1336;
}
);
leftKerningGroup = S;
note = S;
rightKerningGroup = S;
unicode = 0053;
},
{
glyphname = Germandbls;
lastChange = "2024-07-06 19:10:55 +0000";
layers = (
{
layerId = "EC312F70-CB40-4CEF-804A-742881A222CF";
paths = (
{
closed = 1;
nodes = (
"111 166 LINE SMOOTH",
"111 58 OFFCURVE",
"164 0 OFFCURVE",
"262 0 CURVE SMOOTH",
"359 0 OFFCURVE",
"412 58 OFFCURVE",
"412 166 CURVE SMOOTH",
"412 973 LINE SMOOTH",
"412 1062.333 OFFCURVE",
"429.333 1133.667 OFFCURVE",
"464 1187 CURVE SMOOTH",
"498.667 1240.333 OFFCURVE",
"563.333 1267 OFFCURVE",
"658 1267 CURVE SMOOTH",
"712 1267 OFFCURVE",
"759.667 1259.333 OFFCURVE",
"801 1244 CURVE SMOOTH",
"842.333 1228.667 OFFCURVE",
"875.667 1211.333 OFFCURVE",
"901 1192 CURVE",
"703 948 LINE SMOOTH",
"651 883 OFFCURVE",
"630 832 OFFCURVE",
"630 766 CURVE SMOOTH",
"630 706 OFFCURVE",
"679 673 OFFCURVE",
"768 673 CURVE SMOOTH",
"806.667 673 OFFCURVE",
"848.333 666.667 OFFCURVE",
"893 654 CURVE SMOOTH",
"937.667 641.333 OFFCURVE",
"976.167 617.5 OFFCURVE",
"1008.5 582.5 CURVE SMOOTH",
"1040.833 547.5 OFFCURVE",
"1057 497.333 OFFCURVE",
"1057 432 CURVE SMOOTH",
"1057 365.333 OFFCURVE",
"1034.833 313.167 OFFCURVE",
"990.5 275.5 CURVE SMOOTH",
"946.167 237.833 OFFCURVE",
"884.667 219 OFFCURVE",
"806 219 CURVE SMOOTH",
"767.333 219 OFFCURVE",
"729 223.667 OFFCURVE",
"691 233 CURVE SMOOTH",
"672 238 OFFCURVE",
"655 243 OFFCURVE",
"637 248 CURVE SMOOTH",
"603 259 OFFCURVE",
"570 228 OFFCURVE",
"543 153 CURVE SMOOTH",
"516 79 OFFCURVE",
"658 -6 OFFCURVE",
"658 -5.5 CURVE SMOOTH",
"716 -15.833 OFFCURVE",
"772 -21 OFFCURVE",
"826 -21 CURVE SMOOTH",
"928.667 -21 OFFCURVE",
"1019.5 -2.667 OFFCURVE",
"1098.5 34 CURVE SMOOTH",
"1177.5 70.667 OFFCURVE",
"1239.667 122.833 OFFCURVE",
"1285 190.5 CURVE SMOOTH",
"1330.333 258.167 OFFCURVE",
"1353 338 OFFCURVE",
"1353 430 CURVE SMOOTH",
"1353 546 OFFCURVE",
"1315.333 643.167 OFFCURVE",
"1240 721.5 CURVE SMOOTH",
"1164.667 799.833 OFFCURVE",
"1063 846.667 OFFCURVE",
"935 862 CURVE",
"1158 1127 LINE SMOOTH",
"1228 1210 OFFCURVE",
"1225 1299 OFFCURVE",
"1134 1360 CURVE SMOOTH",
"1087 1391 OFFCURVE",
"1038 1418 OFFCURVE",
"986.5 1441 CURVE SMOOTH",
"883.5 1487.667 OFFCURVE",
"772.667 1511 OFFCURVE",
"654 1511 CURVE SMOOTH",
"477.333 1511 OFFCURVE",
"342.667 1466 OFFCURVE",
"250 1376 CURVE SMOOTH",
"157.333 1286 OFFCURVE",
"111 1154.333 OFFCURVE",
"111 981 CURVE SMOOTH"
);
}
);
userData = {
assembly = "MPPEM[ ]	/* MeasurePixelPerEm */\012PUSHB[ ]	/* 1 value pushed */\01224 \012LT[ ]	/* LessThan */\012IF[ ]	/* If */\012NPUSHB[ ]	/* 17 values pushed */\01232 31 8 7 4 3 4 19 1 2 3 18 1 1 2 3 76 \012ELSE[ ]	/* Else */\012NPUSHB[ ]	/* 17 values pushed */\01232 31 8 7 4 3 4 19 1 2 3 18 1 5 2 3 76 \012EIF[ ]	/* EndIf */\012MPPEM[ ]	/* MeasurePixelPerEm */\012PUSHB[ ]	/* 1 value pushed */\01224 \012LT[ ]	/* LessThan */\012IF[ ]	/* If */\012NPUSHB[ ]	/* 31 values pushed */\0120 3 4 2 4 3 2 128 0 4 4 0 97 0 0 0 109 77 0 2 2 1 97 6 5 2 1 1 110 1 78 \012ELSE[ ]	/* Else */\012NPUSHB[ ]	/* 35 values pushed */\0120 3 4 2 4 3 2 128 0 4 4 0 97 0 0 0 109 77 6 1 5 5 104 77 0 2 2 1 97 0 1 1 110 1 78 \012EIF[ ]	/* EndIf */\012NPUSHB[ ]	/* 14 values pushed */\0120 0 0 39 0 39 36 37 37 41 35 7 12 27 \012CALL[ ]	/* CallFunction */";
};
width = 1423;
}
);
leftKerningGroup = B;
note = uni1E9E;
rightKerningGroup = S;
unicode = 1E9E;
},
{
glyphname = Schwa;
lastChange = "2024-07-06 19:10:55 +0000";
layers = (
{
layerId = "EC312F70-CB40-4CEF-804A-742881A222CF";
paths = (
{
closed = 1;
nodes = (
"883.667 -24 OFFCURVE",
"1006.167 8 OFFCURVE",
"1110.5 72 CURVE SMOOTH",
"1214.833 136 OFFCURVE",
"1295.667 225.667 OFFCURVE",
"1353 341 CURVE SMOOTH",
"1410.333 456.333 OFFCURVE",
"1439 590.667 OFFCURVE",
"1439 744 CURVE SMOOTH",
"1439 902.667 OFFCURVE",
"1408.667 1039.5 OFFCURVE",
"1348 1154.5 CURVE SMOOTH",
"1287.333 1269.5 OFFCURVE",
"1204.333 1358.167 OFFCURVE",
"1099 1420.5 CURVE SMOOTH",
"993.667 1482.833 OFFCURVE",
"874 1514 OFFCURVE",
"740 1514 CURVE SMOOTH",
"626 1514 OFFCURVE",
"521.833 1492 OFFCURVE",
"427.5 1448 CURVE SMOOTH",
"333.167 1404 OFFCURVE",
"255.667 1342.833 OFFCURVE",
"195 1264.5 CURVE SMOOTH",
"164 1225 OFFCURVE",
"140 1182 OFFCURVE",
"121 1135 CURVE SMOOTH",
"87 1049 OFFCURVE",
"152 991 OFFCURVE",
"259 991 CURVE SMOOTH",
"353 991 OFFCURVE",
"396 1037 OFFCURVE",
"453 1116 CURVE SMOOTH",
"469 1137 OFFCURVE",
"488 1156 OFFCURVE",
"510.5 1173.5 CURVE SMOOTH",
"569.5 1219.167 OFFCURVE",
"644.667 1242 OFFCURVE",
"736 1242 CURVE SMOOTH",
"856.667 1242 OFFCURVE",
"950.5 1201.833 OFFCURVE",
"1017.5 1121.5 CURVE SMOOTH",
"1084.5 1041.167 OFFCURVE",
"1121.667 931.333 OFFCURVE",
"1129 792 CURVE",
"240 792 LINE SMOOTH",
"132 792 OFFCURVE",
"74 734 OFFCURVE",
"74 626 CURVE SMOOTH",
"74 602 LINE SMOOTH",
"74 478.667 OFFCURVE",
"103 370 OFFCURVE",
"161 276 CURVE SMOOTH",
"219 182 OFFCURVE",
"298.333 108.5 OFFCURVE",
"399 55.5 CURVE SMOOTH",
"499.667 2.5 OFFCURVE",
"614.333 -24 OFFCURVE",
"743 -24 CURVE SMOOTH"
);
},
{
closed = 1;
nodes = (
"1087.333 459.333 OFFCURVE",
"1044.667 383 OFFCURVE",
"982 329 CURVE SMOOTH",
"919.333 275 OFFCURVE",
"838.333 248 OFFCURVE",
"739 248 CURVE SMOOTH",
"671 248 OFFCURVE",
"609.667 261 OFFCURVE",
"555 287 CURVE SMOOTH",
"500.333 313 OFFCURVE",
"457 349.167 OFFCURVE",
"425 395.5 CURVE SMOOTH",
"393 441.833 OFFCURVE",
"376.667 496 OFFCURVE",
"376 558 CURVE",
"1110 558 LINE"
);
}
);
userData = {
assembly = "MPPEM[ ]	/* MeasurePixelPerEm */\012PUSHB[ ]	/* 1 value pushed */\01250 \012LT[ ]	/* LessThan */\012IF[ ]	/* If */\012NPUSHB[ ]	/* 38 values pushed */\0120 3 2 1 2 3 1 128 0 1 0 5 6 1 5 103 0 2 2 4 97 0 4 4 109 77 0 6 6 0 97 7 1 0 0 110 0 78 \012ELSE[ ]	/* Else */\012NPUSHB[ ]	/* 36 values pushed */\0120 3 2 1 2 3 1 128 0 4 0 2 3 4 2 105 0 1 0 5 6 1 5 103 0 6 6 0 97 7 1 0 0 110 0 78 \012EIF[ ]	/* EndIf */\012NPUSHB[ ]	/* 21 values pushed */\0121 0 31 29 26 25 18 16 13 12 10 8 6 5 0 24 1 24 8 12 22 \012CALL[ ]	/* CallFunction */";
};
width = 1502;
}
);
note = uni018F;
unicode = 018F;
},
{
glyphname = T;
lastChange = "2024-07-06 19:10:55 +0000";
layers = (
{
layerId = "EC312F70-CB40-4CEF-804A-742881A222CF";
paths = (
{
closed = 1;
nodes = (
"45 1272 OFFCURVE",
"103 1226 OFFCURVE",
"211 1226 CURVE SMOOTH",
"497 1226 LINE",
"497 166 LINE SMOOTH",
"497 58 OFFCURVE",
"551 0 OFFCURVE",
"651 0 CURVE SMOOTH",
"751 0 OFFCURVE",
"805 59 OFFCURVE",
"805 166 CURVE SMOOTH",
"805 1226 LINE",
"1090 1226 LINE SMOOTH",
"1198 1226 OFFCURVE",
"1256 1273 OFFCURVE",
"1256 1358 CURVE SMOOTH",
"1256 1443 OFFCURVE",
"1197 1490 OFFCURVE",
"1090 1490 CURVE SMOOTH",
"211 1490 LINE SMOOTH",
"103 1490 OFFCURVE",
"45 1443 OFFCURVE",
"45 1358 CURVE SMOOTH"
);
}
);
userData = {
assembly = "NPUSHB[ ]	/* 30 values pushed */\0124 3 2 1 1 0 95 0 0 0 103 77 0 2 2 104 2 78 0 0 0 7 0 7 17 17 17 5 12 25 \012CALL[ ]	/* CallFunction */";
};
width = 1301;
}
);
leftKerningGroup = "Kabashkir-cy";
note = T;
rightKerningGroup = "Enghe-cy";
unicode = 0054;
},
{
glyphname = Tdiagonalstroke;
lastChange = "2024-07-06 19:10:55 +0000";
layers = (
{
layerId = "EC312F70-CB40-4CEF-804A-742881A222CF";
paths = (
{
closed = 1;
nodes = (
"340 -209 OFFCURVE",
"384 -168 OFFCURVE",
"419 -78 CURVE SMOOTH",
"497 123 LINE",
"497 62 LINE SMOOTH",
"497 22 OFFCURVE",
"551 0 OFFCURVE",
"651 0 CURVE SMOOTH",
"751 0 OFFCURVE",
"805 58 OFFCURVE",
"805 166 CURVE SMOOTH",
"805 913 LINE",
"926 1226 LINE",
"1091 1226 LINE SMOOTH",
"1198 1226 OFFCURVE",
"1256 1273 OFFCURVE",
"1256 1358 CURVE SMOOTH",
"1256 1443 OFFCURVE",
"1197 1490 OFFCURVE",
"1090 1490 CURVE SMOOTH",
"1029 1490 LINE",
"1070 1595 LINE SMOOTH",
"1094 1658 OFFCURVE",
"1075 1699 OFFCURVE",
"1023 1699 CURVE SMOOTH",
"964 1699 OFFCURVE",
"919 1658 OFFCURVE",
"884 1569 CURVE SMOOTH",
"853 1490 LINE",
"211 1490 LINE SMOOTH",
"103 1490 OFFCURVE",
"45 1443 OFFCURVE",
"45 1358 CURVE SMOOTH",
"45 1273 OFFCURVE",
"103 1226 OFFCURVE",
"211 1226 CURVE SMOOTH",
"497 1226 LINE",
"497 574 LINE",
"267 -17 LINE SMOOTH",
"222 -132 OFFCURVE",
"227 -209 OFFCURVE",
"280 -209 CURVE SMOOTH"
);
}
);
userData = {
assembly = "PUSHB[ ]	/* 8 values pushed */\01215 12 1 3 5 0 1 76 \012MPPEM[ ]	/* MeasurePixelPerEm */\012PUSHB[ ]	/* 1 value pushed */\01212 \012LT[ ]	/* LessThan */\012IF[ ]	/* If */\012NPUSHB[ ]	/* 30 values pushed */\0120 2 1 1 2 112 7 1 6 5 6 134 4 1 0 0 1 95 3 1 1 1 103 77 0 5 5 104 5 78 \012ELSE[ ]	/* Else */\012NPUSHB[ ]	/* 29 values pushed */\0120 2 1 2 133 7 1 6 5 6 134 4 1 0 0 1 95 3 1 1 1 103 77 0 5 5 104 5 78 \012EIF[ ]	/* EndIf */\012NPUSHB[ ]	/* 15 values pushed */\0120 0 0 16 0 16 18 17 17 17 17 18 8 12 28 \012CALL[ ]	/* CallFunction */";
};
width = 1301;
}
);
leftKerningGroup = "Kabashkir-cy";
note = uni023E;
rightKerningGroup = "Enghe-cy";
unicode = 023E;
},
{
glyphname = Thook;
lastChange = "2024-07-06 19:10:55 +0000";
layers = (
{
layerId = "EC312F70-CB40-4CEF-804A-742881A222CF";
paths = (
{
closed = 1;
nodes = (
"83 1085 OFFCURVE",
"134 1033 OFFCURVE",
"229 1033 CURVE SMOOTH",
"323 1033 OFFCURVE",
"374 1075 OFFCURVE",
"374 1151 CURVE SMOOTH",
"374 1205.667 OFFCURVE",
"404 1233 OFFCURVE",
"464 1233 CURVE SMOOTH",
"551 1233 LINE",
"551 1228 OFFCURVE",
"568 1226 OFFCURVE",
"599 1226 CURVE",
"599 166 LINE SMOOTH",
"599 58 OFFCURVE",
"653 0 OFFCURVE",
"753 0 CURVE SMOOTH",
"853 0 OFFCURVE",
"907 59 OFFCURVE",
"907 166 CURVE SMOOTH",
"907 1226 LINE",
"1198 1226 LINE SMOOTH",
"1306 1226 OFFCURVE",
"1364 1273 OFFCURVE",
"1364 1358 CURVE SMOOTH",
"1364 1443 OFFCURVE",
"1305 1490 OFFCURVE",
"1198 1490 CURVE SMOOTH",
"383 1490 LINE SMOOTH",
"285 1490 OFFCURVE",
"210.5 1462.333 OFFCURVE",
"159.5 1407 CURVE SMOOTH",
"108.5 1351.667 OFFCURVE",
"83 1276.667 OFFCURVE",
"83 1182 CURVE SMOOTH"
);
}
);
userData = {
assembly = "MPPEM[ ]	/* MeasurePixelPerEm */\012PUSHB[ ]	/* 1 value pushed */\01212 \012LT[ ]	/* LessThan */\012IF[ ]	/* If */\012NPUSHB[ ]	/* 26 values pushed */\0126 1 5 1 2 1 5 114 4 3 2 1 1 0 95 0 0 0 103 77 0 2 2 104 2 78 \012ELSE[ ]	/* Else */\012NPUSHB[ ]	/* 27 values pushed */\0126 1 5 1 2 1 5 2 128 4 3 2 1 1 0 95 0 0 0 103 77 0 2 2 104 2 78 \012EIF[ ]	/* EndIf */\012NPUSHB[ ]	/* 14 values pushed */\0120 0 0 16 0 16 18 17 17 17 35 7 12 27 \012CALL[ ]	/* CallFunction */";
};
width = 1409;
}
);
leftKerningGroup = "Kabashkir-cy";
note = uni01AC;
rightKerningGroup = "Enghe-cy";
unicode = 01AC;
},
{
glyphname = Tonefive;
lastChange = "2024-07-06 19:10:55 +0000";
layers = (
{
layerId = "EC312F70-CB40-4CEF-804A-742881A222CF";
paths = (
{
closed = 1;
nodes = (
"801.333 -22 OFFCURVE",
"898.333 0.333 OFFCURVE",
"981 45 CURVE SMOOTH",
"1063.667 89.667 OFFCURVE",
"1127.833 151.5 OFFCURVE",
"1173.5 230.5 CURVE SMOOTH",
"1219.167 309.5 OFFCURVE",
"1242 400 OFFCURVE",
"1242 502 CURVE SMOOTH",
"1242 598 OFFCURVE",
"1219.833 684.167 OFFCURVE",
"1175.5 760.5 CURVE SMOOTH",
"1131.167 836.833 OFFCURVE",
"1071.833 897 OFFCURVE",
"997.5 941 CURVE SMOOTH",
"923.167 985 OFFCURVE",
"841 1007 OFFCURVE",
"751 1007 CURVE SMOOTH",
"625 1007 OFFCURVE",
"524 967.667 OFFCURVE",
"448 889 CURVE",
"446 889 LINE",
"472 1241 LINE",
"989 1241 LINE SMOOTH",
"1097 1241 OFFCURVE",
"1155 1285 OFFCURVE",
"1155 1366 CURVE SMOOTH",
"1155 1447 OFFCURVE",
"1096 1490 OFFCURVE",
"989 1490 CURVE SMOOTH",
"211 1490 LINE SMOOTH",
"103 1490 OFFCURVE",
"45 1446 OFFCURVE",
"45 1366 CURVE SMOOTH",
"45 1285 OFFCURVE",
"95 1241 OFFCURVE",
"188 1241 CURVE",
"164 788 LINE SMOOTH",
"158 679 OFFCURVE",
"210 618 OFFCURVE",
"308 618 CURVE SMOOTH",
"397 618 OFFCURVE",
"438 663 OFFCURVE",
"510 720 CURVE SMOOTH",
"516 725 OFFCURVE",
"523 729 OFFCURVE",
"530.5 733.5 CURVE SMOOTH",
"576.833 761.167 OFFCURVE",
"632.667 775 OFFCURVE",
"698 775 CURVE SMOOTH",
"772.667 775 OFFCURVE",
"833.667 748.667 OFFCURVE",
"881 696 CURVE SMOOTH",
"928.333 643.333 OFFCURVE",
"952 576 OFFCURVE",
"952 494 CURVE SMOOTH",
"952 412.667 OFFCURVE",
"928 346.167 OFFCURVE",
"880 294.5 CURVE SMOOTH",
"832 242.833 OFFCURVE",
"769.333 217 OFFCURVE",
"692 217 CURVE SMOOTH",
"618 217 OFFCURVE",
"556 239.667 OFFCURVE",
"506 285 CURVE SMOOTH",
"481 308 OFFCURVE",
"461 334 OFFCURVE",
"448 363 CURVE SMOOTH",
"420 425 OFFCURVE",
"380 458 OFFCURVE",
"284 458 CURVE SMOOTH",
"280 458 LINE SMOOTH",
"190 458 OFFCURVE",
"130 386 OFFCURVE",
"176 277 CURVE SMOOTH",
"187 252 OFFCURVE",
"200 228 OFFCURVE",
"215 206 CURVE SMOOTH",
"263 134 OFFCURVE",
"327.667 78 OFFCURVE",
"409 38 CURVE SMOOTH",
"490.333 -2 OFFCURVE",
"584 -22 OFFCURVE",
"690 -22 CURVE SMOOTH"
);
}
);
userData = {
assembly = "PUSHB[ ]	/* 6 values pushed */\01225 1 3 8 1 76 \012MPPEM[ ]	/* MeasurePixelPerEm */\012PUSHB[ ]	/* 1 value pushed */\01210 \012LT[ ]	/* LessThan */\012IF[ ]	/* If */\012NPUSHB[ ]	/* 46 values pushed */\0120 4 3 1 3 4 1 128 0 1 2 3 1 2 126 0 8 0 3 4 8 3 105 7 1 5 5 6 95 0 6 6 103 77 0 2 2 0 97 9 1 0 0 110 0 78 \012ELSE[ ]	/* Else */\012MPPEM[ ]	/* MeasurePixelPerEm */\012PUSHB[ ]	/* 1 value pushed */\01220 \012LT[ ]	/* LessThan */\012IF[ ]	/* If */\012NPUSHB[ ]	/* 48 values pushed */\0120 4 3 1 3 4 1 128 0 1 2 3 1 2 126 7 1 5 5 6 95 0 6 6 103 77 0 3 3 8 97 0 8 8 106 77 0 2 2 0 97 9 1 0 0 110 0 78 \012ELSE[ ]	/* Else */\012NPUSHB[ ]	/* 46 values pushed */\0120 4 3 1 3 4 1 128 0 1 2 3 1 2 126 0 8 0 3 4 8 3 105 7 1 5 5 6 95 0 6 6 103 77 0 2 2 0 97 9 1 0 0 110 0 78 \012EIF[ ]	/* EndIf */\012EIF[ ]	/* EndIf */\012NPUSHB[ ]	/* 25 values pushed */\0121 0 29 27 24 23 22 21 20 19 18 17 15 13 9 7 5 4 0 35 1 35 10 12 22 \012CALL[ ]	/* CallFunction */";
};
width = 1305;
}
);
note = uni01BC;
unicode = 01BC;
},
{
glyphname = Tonesix;
lastChange = "2024-07-06 19:10:55 +0000";
layers = (
{
layerId = "EC312F70-CB40-4CEF-804A-742881A222CF";
paths = (
{
closed = 1;
nodes = (
"662 932 LINE",
"662 1324 LINE SMOOTH",
"662 1432 OFFCURVE",
"604 1490 OFFCURVE",
"496 1490 CURVE SMOOTH",
"168 1490 LINE SMOOTH",
"60 1490 OFFCURVE",
"2 1446 OFFCURVE",
"2 1365 CURVE SMOOTH",
"2 1284 OFFCURVE",
"60 1240 OFFCURVE",
"168 1240 CURVE SMOOTH",
"361 1240 LINE",
"361 166 LINE SMOOTH",
"361 58 OFFCURVE",
"420 0 OFFCURVE",
"527 0 CURVE SMOOTH",
"918 0 LINE SMOOTH",
"1034 0 OFFCURVE",
"1134.167 20 OFFCURVE",
"1218.5 60 CURVE SMOOTH",
"1302.833 100 OFFCURVE",
"1367.833 155.5 OFFCURVE",
"1413.5 226.5 CURVE SMOOTH",
"1459.167 297.5 OFFCURVE",
"1482 379.333 OFFCURVE",
"1482 472 CURVE SMOOTH",
"1482 565.333 OFFCURVE",
"1459.167 646.333 OFFCURVE",
"1413.5 715 CURVE SMOOTH",
"1367.833 783.667 OFFCURVE",
"1302.833 837 OFFCURVE",
"1218.5 875 CURVE SMOOTH",
"1134.167 913 OFFCURVE",
"1034 932 OFFCURVE",
"918 932 CURVE SMOOTH"
);
},
{
closed = 1;
nodes = (
"662 691 LINE",
"918 691 LINE SMOOTH",
"1004 691 OFFCURVE",
"1070 670.167 OFFCURVE",
"1116 628.5 CURVE SMOOTH",
"1162 586.833 OFFCURVE",
"1185 535.667 OFFCURVE",
"1185 475 CURVE SMOOTH",
"1185 413 OFFCURVE",
"1162 359 OFFCURVE",
"1116 313 CURVE SMOOTH",
"1070 267 OFFCURVE",
"1004 244 OFFCURVE",
"918 244 CURVE SMOOTH",
"662 244 LINE"
);
}
);
userData = {
assembly = "NPUSHB[ ]	/* 44 values pushed */\0120 0 6 1 5 4 0 5 103 0 2 2 3 95 0 3 3 103 77 0 4 4 1 95 0 1 1 104 1 78 15 15 15 23 15 22 34 17 17 38 32 7 12 27 \012CALL[ ]	/* CallFunction */";
};
width = 1546;
}
);
note = uni0184;
unicode = 0184;
},
{
glyphname = Tonetwo;
lastChange = "2024-07-06 19:10:55 +0000";
layers = (
{
layerId = "EC312F70-CB40-4CEF-804A-742881A222CF";
paths = (
{
closed = 1;
nodes = (
"852.667 -24 OFFCURVE",
"1001 21 OFFCURVE",
"1107 111 CURVE SMOOTH",
"1171 165 OFFCURVE",
"1215 232 OFFCURVE",
"1241 313 CURVE SMOOTH",
"1275 422 OFFCURVE",
"1210 489 OFFCURVE",
"1113 489 CURVE SMOOTH",
"1016 489 OFFCURVE",
"984 438 OFFCURVE",
"932 351 CURVE SMOOTH",
"920 331 OFFCURVE",
"904 313 OFFCURVE",
"885 297.5 CURVE SMOOTH",
"830.333 251.833 OFFCURVE",
"755 229 OFFCURVE",
"659 229 CURVE SMOOTH",
"573.667 229 OFFCURVE",
"505 246.333 OFFCURVE",
"453 281 CURVE SMOOTH",
"401 315.667 OFFCURVE",
"375 362 OFFCURVE",
"375 420 CURVE SMOOTH",
"375 468 OFFCURVE",
"395.833 507 OFFCURVE",
"437.5 537 CURVE SMOOTH",
"479.167 567 OFFCURVE",
"547.667 592.333 OFFCURVE",
"643 613 CURVE SMOOTH",
"799 647 LINE SMOOTH",
"1091 710.333 OFFCURVE",
"1237 848.333 OFFCURVE",
"1237 1061 CURVE SMOOTH",
"1237 1151.667 OFFCURVE",
"1213.333 1230.833 OFFCURVE",
"1166 1298.5 CURVE SMOOTH",
"1118.667 1366.167 OFFCURVE",
"1052.667 1419 OFFCURVE",
"968 1457 CURVE SMOOTH",
"883.333 1495 OFFCURVE",
"784.667 1514 OFFCURVE",
"672 1514 CURVE SMOOTH",
"500 1514 OFFCURVE",
"363.833 1471.333 OFFCURVE",
"263.5 1386 CURVE SMOOTH",
"207 1338 OFFCURVE",
"166 1280 OFFCURVE",
"140 1212 CURVE SMOOTH",
"99 1102 OFFCURVE",
"162 1033 OFFCURVE",
"255 1033 CURVE SMOOTH",
"350 1033 OFFCURVE",
"383 1083 OFFCURVE",
"441 1163 CURVE SMOOTH",
"451 1177 OFFCURVE",
"463 1189 OFFCURVE",
"476.5 1200 CURVE SMOOTH",
"525.5 1240.667 OFFCURVE",
"590 1261 OFFCURVE",
"670 1261 CURVE SMOOTH",
"746 1261 OFFCURVE",
"808.167 1243.667 OFFCURVE",
"856.5 1209 CURVE SMOOTH",
"904.833 1174.333 OFFCURVE",
"929 1130 OFFCURVE",
"929 1076 CURVE SMOOTH",
"929 1030 OFFCURVE",
"909 993 OFFCURVE",
"869 965 CURVE SMOOTH",
"829 937 OFFCURVE",
"763.333 913 OFFCURVE",
"672 893 CURVE SMOOTH",
"529 862 LINE SMOOTH",
"370.333 828 OFFCURVE",
"254.167 777.167 OFFCURVE",
"180.5 709.5 CURVE SMOOTH",
"106.833 641.833 OFFCURVE",
"70 552 OFFCURVE",
"70 440 CURVE SMOOTH",
"70 296.667 OFFCURVE",
"122.667 183.5 OFFCURVE",
"228 100.5 CURVE SMOOTH",
"333.333 17.5 OFFCURVE",
"478 -24 OFFCURVE",
"662 -24 CURVE SMOOTH"
);
}
);
userData = {
assembly = "MPPEM[ ]	/* MeasurePixelPerEm */\012PUSHB[ ]	/* 1 value pushed */\01250 \012LT[ ]	/* LessThan */\012IF[ ]	/* If */\012NPUSHB[ ]	/* 37 values pushed */\0120 2 1 5 1 2 5 128 0 5 4 1 5 4 126 0 1 1 3 97 0 3 3 109 77 0 4 4 0 97 6 1 0 0 110 0 78 \012ELSE[ ]	/* Else */\012NPUSHB[ ]	/* 35 values pushed */\0120 2 1 5 1 2 5 128 0 5 4 1 5 4 126 0 3 0 1 2 3 1 105 0 4 4 0 97 6 1 0 0 110 0 78 \012EIF[ ]	/* EndIf */\012NPUSHB[ ]	/* 19 values pushed */\0121 0 37 36 34 32 21 19 17 16 14 12 0 39 1 39 7 12 22 \012CALL[ ]	/* CallFunction */";
};
width = 1336;
}
);
leftKerningGroup = S;
note = uni01A7;
rightKerningGroup = B;
unicode = 01A7;
},
{
glyphname = Tretroflexhook;
lastChange = "2024-07-06 19:10:55 +0000";
layers = (
{
layerId = "EC312F70-CB40-4CEF-804A-742881A222CF";
paths = (
{
closed = 1;
nodes = (
"856 -418 LINE SMOOTH",
"964 -418 OFFCURVE",
"1022 -375 OFFCURVE",
"1022 -297 CURVE SMOOTH",
"1022 -219 OFFCURVE",
"980 -176 OFFCURVE",
"902 -176 CURVE SMOOTH",
"837.333 -176 OFFCURVE",
"805 -145 OFFCURVE",
"805 -83 CURVE SMOOTH",
"805 1226 LINE",
"1090 1226 LINE SMOOTH",
"1198 1226 OFFCURVE",
"1256 1273 OFFCURVE",
"1256 1358 CURVE SMOOTH",
"1256 1443 OFFCURVE",
"1197 1490 OFFCURVE",
"1090 1490 CURVE SMOOTH",
"211 1490 LINE SMOOTH",
"103 1490 OFFCURVE",
"45 1443 OFFCURVE",
"45 1358 CURVE SMOOTH",
"45 1273 OFFCURVE",
"103 1226 OFFCURVE",
"211 1226 CURVE SMOOTH",
"497 1226 LINE",
"497 -99 LINE SMOOTH",
"497 -311.667 OFFCURVE",
"613.333 -418 OFFCURVE",
"846 -418 CURVE SMOOTH"
);
}
);
userData = {
assembly = "NPUSHB[ ]	/* 40 values pushed */\0123 1 1 1 2 95 0 2 2 103 77 0 4 4 0 95 5 1 0 0 108 0 78 1 0 12 10 8 7 6 5 4 3 0 13 1 13 6 12 22 \012CALL[ ]	/* CallFunction */";
};
width = 1301;
}
);
leftKerningGroup = "Kabashkir-cy";
note = Trthook;
rightKerningGroup = "Enghe-cy";
unicode = 01AE;
},
{
glyphname = U;
lastChange = "2024-07-06 19:10:55 +0000";
layers = (
{
layerId = "EC312F70-CB40-4CEF-804A-742881A222CF";
paths = (
{
closed = 1;
nodes = (
"845 -24 OFFCURVE",
"953 -1.167 OFFCURVE",
"1045 44.5 CURVE SMOOTH",
"1137 90.167 OFFCURVE",
"1208.333 153.833 OFFCURVE",
"1259 235.5 CURVE SMOOTH",
"1309.667 317.167 OFFCURVE",
"1335 411.667 OFFCURVE",
"1335 519 CURVE SMOOTH",
"1335 1324 LINE SMOOTH",
"1335 1432 OFFCURVE",
"1282 1490 OFFCURVE",
"1185 1490 CURVE SMOOTH",
"1088 1490 OFFCURVE",
"1034 1431 OFFCURVE",
"1034 1324 CURVE SMOOTH",
"1034 544 LINE SMOOTH",
"1034 456 OFFCURVE",
"1005.667 383.667 OFFCURVE",
"949 327 CURVE SMOOTH",
"892.333 270.333 OFFCURVE",
"816.333 242 OFFCURVE",
"721 242 CURVE SMOOTH",
"626.333 242 OFFCURVE",
"550.667 270.5 OFFCURVE",
"494 327.5 CURVE SMOOTH",
"437.333 384.5 OFFCURVE",
"409 456.667 OFFCURVE",
"409 544 CURVE SMOOTH",
"409 1324 LINE SMOOTH",
"409 1432 OFFCURVE",
"356 1490 OFFCURVE",
"259 1490 CURVE SMOOTH",
"162 1490 OFFCURVE",
"108 1431 OFFCURVE",
"108 1324 CURVE SMOOTH",
"108 519 LINE SMOOTH",
"108 411.667 OFFCURVE",
"133.167 317.167 OFFCURVE",
"183.5 235.5 CURVE SMOOTH",
"233.833 153.833 OFFCURVE",
"305 90.167 OFFCURVE",
"397 44.5 CURVE SMOOTH",
"489 -1.167 OFFCURVE",
"597 -24 OFFCURVE",
"721 -24 CURVE SMOOTH"
);
}
);
userData = {
assembly = "NPUSHB[ ]	/* 33 values pushed */\0123 1 1 1 103 77 0 2 2 0 97 4 1 0 0 110 0 78 1 0 15 14 11 9 6 5 0 19 1 19 5 12 22 \012CALL[ ]	/* CallFunction */";
};
width = 1442;
}
);
leftKerningGroup = U;
note = U;
rightKerningGroup = J;
unicode = 0055;
},
{
glyphname = Ubar;
lastChange = "2024-07-06 19:10:55 +0000";
layers = (
{
layerId = "EC312F70-CB40-4CEF-804A-742881A222CF";
paths = (
{
closed = 1;
nodes = (
"1538 818 OFFCURVE",
"1480 848 OFFCURVE",
"1372 848 CURVE SMOOTH",
"1368 848 LINE",
"1368 1324 LINE SMOOTH",
"1368 1432 OFFCURVE",
"1315 1490 OFFCURVE",
"1218 1490 CURVE SMOOTH",
"1121 1490 OFFCURVE",
"1067 1431 OFFCURVE",
"1067 1324 CURVE SMOOTH",
"1067 848 LINE",
"442 848 LINE",
"442 1324 LINE SMOOTH",
"442 1432 OFFCURVE",
"389 1490 OFFCURVE",
"292 1490 CURVE SMOOTH",
"195 1490 OFFCURVE",
"141 1431 OFFCURVE",
"141 1324 CURVE SMOOTH",
"141 848 LINE",
"54 848 LINE SMOOTH",
"-2 848 OFFCURVE",
"-33 817 OFFCURVE",
"-33 761 CURVE SMOOTH",
"-33 705 OFFCURVE",
"25 674 OFFCURVE",
"133 674 CURVE SMOOTH",
"141 674 LINE",
"141 519 LINE SMOOTH",
"141 411.667 OFFCURVE",
"166.333 317.167 OFFCURVE",
"217 235.5 CURVE SMOOTH",
"267.667 153.833 OFFCURVE",
"339 90.167 OFFCURVE",
"431 44.5 CURVE SMOOTH",
"523 -1.167 OFFCURVE",
"631 -24 OFFCURVE",
"755 -24 CURVE SMOOTH",
"878.333 -24 OFFCURVE",
"986 -1.167 OFFCURVE",
"1078 44.5 CURVE SMOOTH",
"1170 90.167 OFFCURVE",
"1241.333 153.833 OFFCURVE",
"1292 235.5 CURVE SMOOTH",
"1342.667 317.167 OFFCURVE",
"1368 411.667 OFFCURVE",
"1368 519 CURVE SMOOTH",
"1368 674 LINE",
"1453 674 LINE SMOOTH",
"1508 674 OFFCURVE",
"1538 705 OFFCURVE",
"1538 761 CURVE SMOOTH"
);
},
{
closed = 1;
nodes = (
"1067 674 LINE",
"1067 544 LINE SMOOTH",
"1067 456 OFFCURVE",
"1038.667 383.667 OFFCURVE",
"982 327 CURVE SMOOTH",
"925.333 270.333 OFFCURVE",
"849.667 242 OFFCURVE",
"755 242 CURVE SMOOTH",
"660.333 242 OFFCURVE",
"584.5 270.5 OFFCURVE",
"527.5 327.5 CURVE SMOOTH",
"470.5 384.5 OFFCURVE",
"442 456.667 OFFCURVE",
"442 544 CURVE SMOOTH",
"442 674 LINE"
);
}
);
userData = {
assembly = "NPUSHB[ ]	/* 50 values pushed */\01210 7 5 3 3 8 2 2 0 9 3 0 103 6 1 4 4 103 77 0 9 9 1 97 0 1 1 110 1 78 0 0 29 27 24 23 0 22 0 22 17 17 17 17 20 36 17 11 12 29 \012CALL[ ]	/* CallFunction */";
};
width = 1506;
}
);
leftKerningGroup = U;
note = uni0244;
rightKerningGroup = J;
unicode = 0244;
},
{
glyphname = Uhorn;
lastChange = "2024-07-06 19:10:55 +0000";
layers = (
{
layerId = "EC312F70-CB40-4CEF-804A-742881A222CF";
paths = (
{
closed = 1;
nodes = (
"845 -24 OFFCURVE",
"953 -1.167 OFFCURVE",
"1045 44.5 CURVE SMOOTH",
"1137 90.167 OFFCURVE",
"1208.333 153.833 OFFCURVE",
"1259 235.5 CURVE SMOOTH",
"1309.667 317.167 OFFCURVE",
"1335 411.667 OFFCURVE",
"1335 519 CURVE SMOOTH",
"1335 1304 LINE",
"1385.667 1310.667 OFFCURVE",
"1426.167 1329.333 OFFCURVE",
"1456.5 1360 CURVE SMOOTH",
"1486.833 1390.667 OFFCURVE",
"1502 1435 OFFCURVE",
"1502 1493 CURVE SMOOTH",
"1502 1564 LINE SMOOTH",
"1502 1672 OFFCURVE",
"1455 1730 OFFCURVE",
"1369 1730 CURVE SMOOTH",
"1283 1730 OFFCURVE",
"1236 1671 OFFCURVE",
"1236 1564 CURVE SMOOTH",
"1236 1516 LINE SMOOTH",
"1236 1498.667 OFFCURVE",
"1227.333 1490 OFFCURVE",
"1210 1490 CURVE SMOOTH",
"1200 1490 LINE SMOOTH",
"1092 1490 OFFCURVE",
"1034 1431 OFFCURVE",
"1034 1324 CURVE SMOOTH",
"1034 544 LINE SMOOTH",
"1034 456 OFFCURVE",
"1005.667 383.667 OFFCURVE",
"949 327 CURVE SMOOTH",
"892.333 270.333 OFFCURVE",
"816.333 242 OFFCURVE",
"721 242 CURVE SMOOTH",
"626.333 242 OFFCURVE",
"550.667 270.5 OFFCURVE",
"494 327.5 CURVE SMOOTH",
"437.333 384.5 OFFCURVE",
"409 456.667 OFFCURVE",
"409 544 CURVE SMOOTH",
"409 1324 LINE SMOOTH",
"409 1432 OFFCURVE",
"356 1490 OFFCURVE",
"259 1490 CURVE SMOOTH",
"162 1490 OFFCURVE",
"108 1431 OFFCURVE",
"108 1324 CURVE SMOOTH",
"108 519 LINE SMOOTH",
"108 411.667 OFFCURVE",
"133.167 317.167 OFFCURVE",
"183.5 235.5 CURVE SMOOTH",
"233.833 153.833 OFFCURVE",
"305 90.167 OFFCURVE",
"397 44.5 CURVE SMOOTH",
"489 -1.167 OFFCURVE",
"597 -24 OFFCURVE",
"721 -24 CURVE SMOOTH"
);
}
);
userData = {
assembly = "NPUSHB[ ]	/* 46 values pushed */\01223 1 2 1 1 76 0 4 1 4 133 3 1 1 1 103 77 0 2 2 0 97 5 1 0 0 110 0 78 1 0 19 18 16 14 11 9 6 5 0 27 1 27 6 12 22 \012CALL[ ]	/* CallFunction */";
};
width = 1442;
}
);
leftKerningGroup = U;
note = Uhorn;
rightKerningGroup = Uhorn;
unicode = 01AF;
},
{
glyphname = "Upsilon-latin";
lastChange = "2024-07-06 19:10:55 +0000";
layers = (
{
layerId = "EC312F70-CB40-4CEF-804A-742881A222CF";
paths = (
{
closed = 1;
nodes = (
"72 545.667 OFFCURVE",
"102 424.167 OFFCURVE",
"162 318.5 CURVE SMOOTH",
"222 212.833 OFFCURVE",
"304.5 130 OFFCURVE",
"409.5 70 CURVE SMOOTH",
"514.5 10 OFFCURVE",
"635.333 -20 OFFCURVE",
"772 -20 CURVE SMOOTH",
"908 -20 OFFCURVE",
"1028.667 10 OFFCURVE",
"1134 70 CURVE SMOOTH",
"1239.333 130 OFFCURVE",
"1322 212.833 OFFCURVE",
"1382 318.5 CURVE SMOOTH",
"1442 424.167 OFFCURVE",
"1472 545.667 OFFCURVE",
"1472 683 CURVE SMOOTH",
"1472 809.667 OFFCURVE",
"1446.667 918.5 OFFCURVE",
"1396 1009.5 CURVE SMOOTH",
"1345.333 1100.5 OFFCURVE",
"1276.667 1173.333 OFFCURVE",
"1190 1228 CURVE",
"1190 1240 LINE",
"1331 1240 LINE SMOOTH",
"1422 1240 OFFCURVE",
"1472 1284 OFFCURVE",
"1472 1365 CURVE SMOOTH",
"1472 1446 OFFCURVE",
"1413 1490 OFFCURVE",
"1306 1490 CURVE SMOOTH",
"1054 1490 LINE SMOOTH",
"946 1490 OFFCURVE",
"888 1432 OFFCURVE",
"888 1324 CURVE SMOOTH",
"888 1307 LINE SMOOTH",
"888 1216 OFFCURVE",
"930 1167 OFFCURVE",
"998 1107 CURVE SMOOTH",
"1031 1077 OFFCURVE",
"1061 1041 OFFCURVE",
"1088 999 CURVE SMOOTH",
"1141.333 914.333 OFFCURVE",
"1168 816.333 OFFCURVE",
"1168 705 CURVE SMOOTH",
"1168 618.333 OFFCURVE",
"1151.167 540.5 OFFCURVE",
"1117.5 471.5 CURVE SMOOTH",
"1083.833 402.5 OFFCURVE",
"1037.167 348 OFFCURVE",
"977.5 308 CURVE SMOOTH",
"917.833 268 OFFCURVE",
"849.333 248 OFFCURVE",
"772 248 CURVE SMOOTH",
"694.667 248 OFFCURVE",
"626.167 268 OFFCURVE",
"566.5 308 CURVE SMOOTH",
"506.833 348 OFFCURVE",
"460 402.5 OFFCURVE",
"426 471.5 CURVE SMOOTH",
"392 540.5 OFFCURVE",
"375 618.333 OFFCURVE",
"375 705 CURVE SMOOTH",
"375 779.667 OFFCURVE",
"387.333 848.5 OFFCURVE",
"412 911.5 CURVE SMOOTH",
"436.667 974.5 OFFCURVE",
"470.167 1028.833 OFFCURVE",
"512.5 1074.5 CURVE SMOOTH",
"533 1097 OFFCURVE",
"556 1117 OFFCURVE",
"579 1133 CURVE SMOOTH",
"630 1169 OFFCURVE",
"657 1217 OFFCURVE",
"657 1308 CURVE SMOOTH",
"657 1333 LINE SMOOTH",
"657 1435 OFFCURVE",
"598 1490 OFFCURVE",
"491 1490 CURVE SMOOTH",
"238 1490 LINE SMOOTH",
"130 1490 OFFCURVE",
"72 1446 OFFCURVE",
"72 1365 CURVE SMOOTH",
"72 1284 OFFCURVE",
"130 1240 OFFCURVE",
"238 1240 CURVE SMOOTH",
"353 1240 LINE",
"353 1228 LINE",
"267 1172.667 OFFCURVE",
"198.667 1099.667 OFFCURVE",
"148 1009 CURVE SMOOTH",
"97.333 918.333 OFFCURVE",
"72 809.667 OFFCURVE",
"72 683 CURVE SMOOTH"
);
}
);
userData = {
assembly = "NPUSHB[ ]	/* 39 values pushed */\01223 8 2 2 0 1 76 4 1 0 0 1 95 3 1 1 1 103 77 0 2 2 5 97 0 5 5 110 5 78 39 17 23 40 17 35 6 12 28 \012CALL[ ]	/* CallFunction */";
};
width = 1545;
}
);
note = Upsilon2;
unicode = 01B1;
},
{
glyphname = V;
lastChange = "2024-07-06 19:10:55 +0000";
layers = (
{
layerId = "EC312F70-CB40-4CEF-804A-742881A222CF";
paths = (
{
closed = 1;
nodes = (
"782 0 LINE SMOOTH",
"878 0 OFFCURVE",
"939 43 OFFCURVE",
"970 135 CURVE SMOOTH",
"1371 1300 LINE SMOOTH",
"1411 1416 OFFCURVE",
"1362 1490 OFFCURVE",
"1249 1490 CURVE SMOOTH",
"1152 1490 OFFCURVE",
"1091 1445 OFFCURVE",
"1061 1353 CURVE SMOOTH",
"872 765 LINE SMOOTH",
"850 693.667 OFFCURVE",
"827.5 617.833 OFFCURVE",
"804.5 537.5 CURVE SMOOTH",
"781.5 457.167 OFFCURVE",
"757 371.333 OFFCURVE",
"731 280 CURVE",
"655 537.5 LINE SMOOTH",
"631 617.833 OFFCURVE",
"607.667 693.667 OFFCURVE",
"585 765 CURVE SMOOTH",
"389 1354 LINE SMOOTH",
"358 1447 OFFCURVE",
"298 1490 OFFCURVE",
"201 1490 CURVE SMOOTH",
"177 1490 LINE SMOOTH",
"76 1490 OFFCURVE",
"36 1415 OFFCURVE",
"76 1300 CURVE SMOOTH",
"485 134 LINE SMOOTH",
"517 42 OFFCURVE",
"578 0 OFFCURVE",
"674 0 CURVE SMOOTH"
);
}
);
userData = {
assembly = "NPUSHB[ ]	/* 30 values pushed */\0126 1 2 0 1 76 1 1 0 0 103 77 3 1 2 2 104 2 78 0 0 0 12 0 12 24 17 4 12 24 \012CALL[ ]	/* CallFunction */";
};
width = 1445;
}
);
leftKerningGroup = V;
note = V;
rightKerningGroup = V;
unicode = 0056;
},
{
glyphname = "V-middleWelsh";
lastChange = "2024-07-06 19:10:55 +0000";
layers = (
{
layerId = "EC312F70-CB40-4CEF-804A-742881A222CF";
paths = (
{
closed = 1;
nodes = (
"760 687 OFFCURVE",
"782 664 OFFCURVE",
"801 638 CURVE SMOOTH",
"838.333 587.333 OFFCURVE",
"857 523.333 OFFCURVE",
"857 446 CURVE SMOOTH",
"857 375.333 OFFCURVE",
"837.667 320.667 OFFCURVE",
"799 282 CURVE SMOOTH",
"760.333 243.333 OFFCURVE",
"708 224 OFFCURVE",
"642 224 CURVE SMOOTH",
"572 224 OFFCURVE",
"517.333 250.167 OFFCURVE",
"478 302.5 CURVE SMOOTH",
"438.667 354.833 OFFCURVE",
"418.667 428.333 OFFCURVE",
"418 523 CURVE",
"418 630 LINE SMOOTH",
"418 758.667 OFFCURVE",
"438.167 864.333 OFFCURVE",
"478.5 947 CURVE SMOOTH",
"518.833 1029.667 OFFCURVE",
"574.667 1093.667 OFFCURVE",
"646 1139 CURVE SMOOTH",
"683 1162 OFFCURVE",
"722 1182 OFFCURVE",
"765 1198 CURVE SMOOTH",
"848 1229 OFFCURVE",
"888 1274 OFFCURVE",
"877 1353 CURVE SMOOTH",
"867 1431 OFFCURVE",
"799 1470 OFFCURVE",
"692 1438 CURVE SMOOTH",
"608 1413 OFFCURVE",
"531 1378 OFFCURVE",
"462.5 1332.5 CURVE SMOOTH",
"350.167 1258.167 OFFCURVE",
"263.167 1160.833 OFFCURVE",
"201.5 1040.5 CURVE SMOOTH",
"139.833 920.167 OFFCURVE",
"109 781 OFFCURVE",
"109 623 CURVE SMOOTH",
"109 561 LINE SMOOTH",
"109 446.333 OFFCURVE",
"131.167 345.333 OFFCURVE",
"175.5 258 CURVE SMOOTH",
"219.833 170.667 OFFCURVE",
"282.333 102.5 OFFCURVE",
"363 53.5 CURVE SMOOTH",
"443.667 4.5 OFFCURVE",
"538.667 -20 OFFCURVE",
"648 -20 CURVE SMOOTH",
"803.333 -20 OFFCURVE",
"927.5 22.667 OFFCURVE",
"1020.5 108 CURVE SMOOTH",
"1113.5 193.333 OFFCURVE",
"1160 312.333 OFFCURVE",
"1160 465 CURVE SMOOTH",
"1160 543.667 OFFCURVE",
"1143.167 616.333 OFFCURVE",
"1109.5 683 CURVE SMOOTH",
"1075.833 749.667 OFFCURVE",
"1030.667 807.667 OFFCURVE",
"974 857 CURVE SMOOTH",
"946 882 OFFCURVE",
"916 904 OFFCURVE",
"884 923 CURVE SMOOTH",
"821 961 OFFCURVE",
"762 936 OFFCURVE",
"720 865 CURVE SMOOTH",
"677 794 OFFCURVE",
"686 747 OFFCURVE",
"735 707 CURVE SMOOTH"
);
}
);
userData = {
assembly = "NPUSHB[ ]	/* 22 values pushed */\01217 1 2 1 74 0 1 1 0 97 0 0 0 110 0 78 27 25 39 2 12 23 \012CALL[ ]	/* CallFunction */";
};
width = 1268;
}
);
note = uni1EFC;
unicode = 1EFC;
},
{
glyphname = "Gamma-latin";
lastChange = "2024-07-06 19:10:55 +0000";
layers = (
{
layerId = "EC312F70-CB40-4CEF-804A-742881A222CF";
paths = (
{
closed = 1;
nodes = (
"123 1490 OFFCURVE",
"78 1410 OFFCURVE",
"134 1294 CURVE SMOOTH",
"578 380 LINE",
"474 150.5 LINE SMOOTH",
"446.667 89.5 OFFCURVE",
"425.167 39.333 OFFCURVE",
"409.5 0 CURVE SMOOTH",
"393.833 -39.333 OFFCURVE",
"382.833 -71.833 OFFCURVE",
"376.5 -97.5 CURVE SMOOTH",
"370.167 -123.167 OFFCURVE",
"367 -146.333 OFFCURVE",
"367 -167 CURVE SMOOTH",
"367 -253.667 OFFCURVE",
"399.833 -321.167 OFFCURVE",
"465.5 -369.5 CURVE SMOOTH",
"531.167 -417.833 OFFCURVE",
"618.333 -442 OFFCURVE",
"727 -442 CURVE SMOOTH",
"835 -442 OFFCURVE",
"921.167 -417.167 OFFCURVE",
"985.5 -367.5 CURVE SMOOTH",
"1049.833 -317.833 OFFCURVE",
"1082 -253 OFFCURVE",
"1082 -173 CURVE SMOOTH",
"1082 -125 OFFCURVE",
"1064.333 -57 OFFCURVE",
"1029 31 CURVE SMOOTH",
"993.667 119 OFFCURVE",
"943.333 234.333 OFFCURVE",
"878 377 CURVE",
"1321 1294 LINE SMOOTH",
"1377 1410 OFFCURVE",
"1331 1490 OFFCURVE",
"1210 1490 CURVE SMOOTH",
"1116 1490 OFFCURVE",
"1055 1450 OFFCURVE",
"1017 1364 CURVE SMOOTH",
"727 712 LINE",
"437 1364 LINE SMOOTH",
"399 1450 OFFCURVE",
"338 1490 OFFCURVE",
"244 1490 CURVE SMOOTH"
);
},
{
closed = 1;
nodes = (
"748.333 19 OFFCURVE",
"763.5 -22.167 OFFCURVE",
"774.5 -58.5 CURVE SMOOTH",
"785.5 -94.833 OFFCURVE",
"791 -126.667 OFFCURVE",
"791 -154 CURVE SMOOTH",
"791 -204 OFFCURVE",
"769.667 -229 OFFCURVE",
"727 -229 CURVE SMOOTH",
"685.667 -229 OFFCURVE",
"665 -204.333 OFFCURVE",
"665 -155 CURVE SMOOTH",
"665 -127.667 OFFCURVE",
"670.667 -95.667 OFFCURVE",
"682 -59 CURVE SMOOTH",
"693.333 -22.333 OFFCURVE",
"709 19 OFFCURVE",
"729 65 CURVE"
);
}
);
userData = {
assembly = "PUSHB[ ]	/* 8 values pushed */\01219 5 2 3 3 0 1 76 \012MPPEM[ ]	/* MeasurePixelPerEm */\012PUSHB[ ]	/* 1 value pushed */\01243 \012LT[ ]	/* LessThan */\012IF[ ]	/* If */\012NPUSHB[ ]	/* 17 values pushed */\0121 1 0 0 103 77 0 3 3 2 97 0 2 2 108 2 78 \012ELSE[ ]	/* Else */\012NPUSHB[ ]	/* 14 values pushed */\0120 3 0 2 3 2 101 1 1 0 0 103 0 78 \012EIF[ ]	/* EndIf */\012PUSHB[ ]	/* 7 values pushed */\01244 38 18 16 4 12 26 \012CALL[ ]	/* CallFunction */";
};
width = 1456;
}
);
leftKerningGroup = V;
note = Gamma1;
rightKerningGroup = V;
unicode = 0194;
},
{
glyphname = Vhook;
lastChange = "2024-07-06 19:10:55 +0000";
layers = (
{
layerId = "EC312F70-CB40-4CEF-804A-742881A222CF";
paths = (
{
closed = 1;
nodes = (
"768.667 -20 OFFCURVE",
"867.167 -0.167 OFFCURVE",
"953.5 39.5 CURVE SMOOTH",
"1039.833 79.167 OFFCURVE",
"1107.833 137.5 OFFCURVE",
"1157.5 214.5 CURVE SMOOTH",
"1207.167 291.5 OFFCURVE",
"1231.667 386 OFFCURVE",
"1231 498 CURVE",
"1231 1105 LINE SMOOTH",
"1231 1235.667 OFFCURVE",
"1196 1335.833 OFFCURVE",
"1126 1405.5 CURVE SMOOTH",
"1056 1475.167 OFFCURVE",
"961 1510 OFFCURVE",
"841 1510 CURVE SMOOTH",
"814.333 1510 OFFCURVE",
"789.167 1508.333 OFFCURVE",
"765.5 1505 CURVE SMOOTH",
"754 1503 OFFCURVE",
"742 1501 OFFCURVE",
"730 1499 CURVE SMOOTH",
"707 1495 OFFCURVE",
"695 1441 OFFCURVE",
"695 1340 CURVE SMOOTH",
"695 1251 LINE",
"710.333 1253.667 OFFCURVE",
"725.667 1255.5 OFFCURVE",
"741 1256.5 CURVE SMOOTH",
"756.333 1257.5 OFFCURVE",
"770.333 1258 OFFCURVE",
"783 1258 CURVE SMOOTH",
"833 1258 OFFCURVE",
"868.667 1247 OFFCURVE",
"890 1225 CURVE SMOOTH",
"911.333 1203 OFFCURVE",
"922 1163 OFFCURVE",
"922 1105 CURVE SMOOTH",
"922 498 LINE SMOOTH",
"922 315.333 OFFCURVE",
"834 224 OFFCURVE",
"658 224 CURVE SMOOTH",
"480 224 OFFCURVE",
"390.667 315.333 OFFCURVE",
"390 498 CURVE",
"390 1324 LINE SMOOTH",
"390 1432 OFFCURVE",
"336 1490 OFFCURVE",
"238 1490 CURVE SMOOTH",
"139 1490 OFFCURVE",
"85 1432 OFFCURVE",
"85 1324 CURVE SMOOTH",
"85 498 LINE SMOOTH",
"85 385.333 OFFCURVE",
"109.667 290.5 OFFCURVE",
"159 213.5 CURVE SMOOTH",
"208.333 136.5 OFFCURVE",
"276.167 78.333 OFFCURVE",
"362.5 39 CURVE SMOOTH",
"448.833 -0.333 OFFCURVE",
"547.333 -20 OFFCURVE",
"658 -20 CURVE SMOOTH"
);
}
);
userData = {
assembly = "MPPEM[ ]	/* MeasurePixelPerEm */\012PUSHB[ ]	/* 1 value pushed */\01226 \012LT[ ]	/* LessThan */\012IF[ ]	/* If */\012NPUSHB[ ]	/* 10 values pushed */\01218 1 2 3 1 76 19 1 1 74 \012ELSE[ ]	/* Else */\012NPUSHB[ ]	/* 10 values pushed */\01219 1 1 4 18 1 2 3 2 76 \012EIF[ ]	/* EndIf */\012MPPEM[ ]	/* MeasurePixelPerEm */\012PUSHB[ ]	/* 1 value pushed */\01226 \012LT[ ]	/* LessThan */\012IF[ ]	/* If */\012NPUSHB[ ]	/* 23 values pushed */\0120 3 3 1 97 4 1 1 1 103 77 0 2 2 0 97 5 1 0 0 110 0 78 \012ELSE[ ]	/* Else */\012NPUSHB[ ]	/* 27 values pushed */\0120 1 1 103 77 0 3 3 4 97 0 4 4 109 77 0 2 2 0 97 5 1 0 0 110 0 78 \012EIF[ ]	/* EndIf */\012NPUSHB[ ]	/* 17 values pushed */\0121 0 23 21 17 14 10 8 6 5 0 29 1 29 6 12 22 \012CALL[ ]	/* CallFunction */";
};
width = 1314;
}
);
note = Vcursive;
unicode = 01B2;
},
{
glyphname = Vturned;
lastChange = "2024-07-06 19:10:55 +0000";
layers = (
{
layerId = "EC312F70-CB40-4CEF-804A-742881A222CF";
paths = (
{
closed = 1;
nodes = (
"1357 0 OFFCURVE",
"1406 74 OFFCURVE",
"1366 190 CURVE SMOOTH",
"958 1356 LINE SMOOTH",
"926 1448 OFFCURVE",
"865 1490 OFFCURVE",
"769 1490 CURVE SMOOTH",
"735 1490 LINE SMOOTH",
"639 1490 OFFCURVE",
"578 1448 OFFCURVE",
"546 1356 CURVE SMOOTH",
"139 190 LINE SMOOTH",
"99 75 OFFCURVE",
"150 0 OFFCURVE",
"268 0 CURVE SMOOTH",
"366 0 OFFCURVE",
"427 45 OFFCURVE",
"455 139 CURVE SMOOTH",
"753 1123 LINE",
"1052 138 LINE SMOOTH",
"1080 44 OFFCURVE",
"1141 0 OFFCURVE",
"1239 0 CURVE SMOOTH"
);
}
);
userData = {
assembly = "NPUSHB[ ]	/* 30 values pushed */\0121 1 0 1 1 76 0 1 1 103 77 3 2 2 0 0 104 0 78 0 0 0 6 0 6 17 18 4 12 24 \012CALL[ ]	/* CallFunction */";
};
width = 1507;
}
);
note = uni0245;
unicode = 0245;
},
{
glyphname = W;
lastChange = "2024-07-06 19:10:55 +0000";
layers = (
{
layerId = "EC312F70-CB40-4CEF-804A-742881A222CF";
paths = (
{
closed = 1;
nodes = (
"607 0 LINE SMOOTH",
"706 0 OFFCURVE",
"766 47 OFFCURVE",
"791 143 CURVE SMOOTH",
"964 813 LINE SMOOTH",
"974 849.667 OFFCURVE",
"983.333 888.5 OFFCURVE",
"992 929.5 CURVE SMOOTH",
"1000.667 970.5 OFFCURVE",
"1010 1014.667 OFFCURVE",
"1020 1062 CURVE",
"1048.5 929.5 LINE SMOOTH",
"1057.5 888.5 OFFCURVE",
"1066.667 849.667 OFFCURVE",
"1076 813 CURVE SMOOTH",
"1251 142 LINE SMOOTH",
"1276 46 OFFCURVE",
"1336 0 OFFCURVE",
"1435 0 CURVE SMOOTH",
"1484 0 LINE SMOOTH",
"1583 0 OFFCURVE",
"1643 47 OFFCURVE",
"1669 142 CURVE SMOOTH",
"1982 1304 LINE SMOOTH",
"2013 1418 OFFCURVE",
"1963 1490 OFFCURVE",
"1852 1490 CURVE SMOOTH",
"1753 1490 OFFCURVE",
"1692 1443 OFFCURVE",
"1669 1345 CURVE SMOOTH",
"1528 750 LINE SMOOTH",
"1513.333 685.333 OFFCURVE",
"1499.333 620.5 OFFCURVE",
"1486 555.5 CURVE SMOOTH",
"1472.667 490.5 OFFCURVE",
"1459.667 425.667 OFFCURVE",
"1447 361 CURVE",
"1406 555.5 LINE SMOOTH",
"1392 620.5 OFFCURVE",
"1377 685.333 OFFCURVE",
"1361 750 CURVE SMOOTH",
"1214 1346 LINE SMOOTH",
"1190 1442 OFFCURVE",
"1129 1490 OFFCURVE",
"1030 1490 CURVE SMOOTH",
"1012 1490 LINE SMOOTH",
"913 1490 OFFCURVE",
"852 1443 OFFCURVE",
"828 1347 CURVE SMOOTH",
"679 750 LINE SMOOTH",
"663.667 684.667 OFFCURVE",
"648.833 619.333 OFFCURVE",
"634.5 554 CURVE SMOOTH",
"620.167 488.667 OFFCURVE",
"606.333 423 OFFCURVE",
"593 357 CURVE",
"580.333 423 OFFCURVE",
"567.333 488.667 OFFCURVE",
"554 554 CURVE SMOOTH",
"540.667 619.333 OFFCURVE",
"526.667 684.667 OFFCURVE",
"512 750 CURVE SMOOTH",
"371 1345 LINE SMOOTH",
"348 1443 OFFCURVE",
"287 1490 OFFCURVE",
"188 1490 CURVE SMOOTH",
"173 1490 LINE SMOOTH",
"72 1490 OFFCURVE",
"28 1418 OFFCURVE",
"59 1304 CURVE SMOOTH",
"371 142 LINE SMOOTH",
"397 47 OFFCURVE",
"457 0 OFFCURVE",
"556 0 CURVE SMOOTH"
);
}
);
userData = {
assembly = "NPUSHB[ ]	/* 36 values pushed */\01226 15 6 3 3 0 1 76 2 1 2 0 0 103 77 5 4 2 3 3 104 3 78 0 0 0 30 0 30 17 24 24 17 6 12 26 \012CALL[ ]	/* CallFunction */";
};
width = 2041;
}
);
leftKerningGroup = W;
note = W;
rightKerningGroup = W;
unicode = 0057;
},
{
glyphname = Wynn;
lastChange = "2024-07-06 19:10:55 +0000";
layers = (
{
layerId = "EC312F70-CB40-4CEF-804A-742881A222CF";
paths = (
{
closed = 1;
nodes = (
"447 1478 OFFCURVE",
"393 1490 OFFCURVE",
"295 1490 CURVE SMOOTH",
"196 1490 OFFCURVE",
"142 1432 OFFCURVE",
"142 1324 CURVE SMOOTH",
"142 -252 LINE SMOOTH",
"142 -360 OFFCURVE",
"196 -418 OFFCURVE",
"295 -418 CURVE SMOOTH",
"394 -418 OFFCURVE",
"447 -359 OFFCURVE",
"447 -252 CURVE SMOOTH",
"447 -149 LINE",
"630.333 -93 OFFCURVE",
"787.333 -18.167 OFFCURVE",
"918 75.5 CURVE SMOOTH",
"1048.667 169.167 OFFCURVE",
"1148.833 277.5 OFFCURVE",
"1218.5 400.5 CURVE SMOOTH",
"1288.167 523.5 OFFCURVE",
"1323 657 OFFCURVE",
"1323 801 CURVE SMOOTH",
"1323 853 LINE SMOOTH",
"1323 996.333 OFFCURVE",
"1296.833 1116.833 OFFCURVE",
"1244.5 1214.5 CURVE SMOOTH",
"1192.167 1312.167 OFFCURVE",
"1119.833 1385.833 OFFCURVE",
"1027.5 1435.5 CURVE SMOOTH",
"935.167 1485.167 OFFCURVE",
"828.667 1510 OFFCURVE",
"708 1510 CURVE SMOOTH",
"654.667 1510 OFFCURVE",
"606.167 1505.167 OFFCURVE",
"562.5 1495.5 CURVE SMOOTH",
"518.833 1485.833 OFFCURVE",
"480.333 1472.667 OFFCURVE",
"447 1456 CURVE"
);
},
{
closed = 1;
nodes = (
"447 1158 LINE",
"477.667 1191.333 OFFCURVE",
"515.167 1217.333 OFFCURVE",
"559.5 1236 CURVE SMOOTH",
"603.833 1254.667 OFFCURVE",
"654.333 1264 OFFCURVE",
"711 1264 CURVE SMOOTH",
"789 1264 OFFCURVE",
"849.833 1245.833 OFFCURVE",
"893.5 1209.5 CURVE SMOOTH",
"937.167 1173.167 OFFCURVE",
"967.667 1124.333 OFFCURVE",
"985 1063 CURVE SMOOTH",
"1002.333 1001.667 OFFCURVE",
"1011 933 OFFCURVE",
"1011 857 CURVE SMOOTH",
"1011 801 LINE SMOOTH",
"1011 653.667 OFFCURVE",
"964.333 518 OFFCURVE",
"871 394 CURVE SMOOTH",
"777.667 270 OFFCURVE",
"636.333 173.333 OFFCURVE",
"447 104 CURVE"
);
}
);
userData = {
assembly = "MPPEM[ ]	/* MeasurePixelPerEm */\012PUSHB[ ]	/* 1 value pushed */\01226 \012LT[ ]	/* LessThan */\012IF[ ]	/* If */\012NPUSHB[ ]	/* 12 values pushed */\0121 1 3 0 28 17 13 3 1 3 2 76 \012ELSE[ ]	/* Else */\012NPUSHB[ ]	/* 12 values pushed */\0121 1 3 2 28 17 13 3 1 3 2 76 \012EIF[ ]	/* EndIf */\012MPPEM[ ]	/* MeasurePixelPerEm */\012PUSHB[ ]	/* 1 value pushed */\01226 \012LT[ ]	/* LessThan */\012IF[ ]	/* If */\012NPUSHB[ ]	/* 18 values pushed */\0120 3 3 0 97 4 2 2 0 0 109 77 0 1 1 108 1 78 \012ELSE[ ]	/* Else */\012NPUSHB[ ]	/* 22 values pushed */\0124 1 2 2 103 77 0 3 3 0 97 0 0 0 109 77 0 1 1 108 1 78 \012EIF[ ]	/* EndIf */\012NPUSHB[ ]	/* 13 values pushed */\0120 0 26 24 0 16 0 16 25 35 5 12 24 \012CALL[ ]	/* CallFunction */";
};
width = 1462;
}
);
note = uni01F7;
unicode = 01F7;
},
{
glyphname = X;
lastChange = "2024-07-06 19:10:55 +0000";
layers = (
{
layerId = "EC312F70-CB40-4CEF-804A-742881A222CF";
paths = (
{
closed = 1;
nodes = (
"231 0 LINE SMOOTH",
"320 0 OFFCURVE",
"381 32 OFFCURVE",
"431 106 CURVE SMOOTH",
"574 315 LINE",
"645 420.5 LINE SMOOTH",
"668.333 455.5 OFFCURVE",
"691.333 490.667 OFFCURVE",
"714 526 CURVE",
"736.667 490.667 OFFCURVE",
"759.333 455.5 OFFCURVE",
"782 420.5 CURVE SMOOTH",
"851 315 LINE",
"989 107 LINE SMOOTH",
"1039 32 OFFCURVE",
"1099 0 OFFCURVE",
"1189 0 CURVE SMOOTH",
"1238 0 LINE SMOOTH",
"1338 0 OFFCURVE",
"1356 88 OFFCURVE",
"1279 201 CURVE SMOOTH",
"890 771 LINE",
"1238 1289 LINE SMOOTH",
"1314 1403 OFFCURVE",
"1280 1490 OFFCURVE",
"1161 1490 CURVE SMOOTH",
"1071 1490 OFFCURVE",
"1011 1458 OFFCURVE",
"961 1383 CURVE SMOOTH",
"864 1237 LINE SMOOTH",
"838.667 1199 OFFCURVE",
"813.833 1160.667 OFFCURVE",
"789.5 1122 CURVE SMOOTH",
"765.167 1083.333 OFFCURVE",
"741 1044.667 OFFCURVE",
"717 1006 CURVE",
"646 1122 LINE SMOOTH",
"622 1160.667 OFFCURVE",
"597.667 1199 OFFCURVE",
"573 1237 CURVE SMOOTH",
"479 1382 LINE SMOOTH",
"430 1457 OFFCURVE",
"369 1490 OFFCURVE",
"279 1490 CURVE SMOOTH",
"234 1490 LINE SMOOTH",
"136 1490 OFFCURVE",
"118 1403 OFFCURVE",
"194 1289 CURVE SMOOTH",
"547 762 LINE",
"154 202 LINE SMOOTH",
"75 90 OFFCURVE",
"89 0 OFFCURVE",
"186 0 CURVE SMOOTH"
);
}
);
userData = {
assembly = "NPUSHB[ ]	/* 35 values pushed */\01219 13 7 1 4 2 0 1 76 1 1 0 0 103 77 4 3 2 2 2 104 2 78 0 0 0 23 0 23 18 24 18 5 12 25 \012CALL[ ]	/* CallFunction */";
};
width = 1428;
}
);
leftKerningGroup = X;
note = X;
rightKerningGroup = X;
unicode = 0058;
},
{
glyphname = Y;
lastChange = "2024-07-06 19:10:55 +0000";
layers = (
{
layerId = "EC312F70-CB40-4CEF-804A-742881A222CF";
paths = (
{
closed = 1;
nodes = (
"561 166 LINE SMOOTH",
"561 58 OFFCURVE",
"614 0 OFFCURVE",
"711 0 CURVE SMOOTH",
"808 0 OFFCURVE",
"861 59 OFFCURVE",
"861 166 CURVE SMOOTH",
"861 557 LINE",
"1288 1291 LINE SMOOTH",
"1354 1405 OFFCURVE",
"1311 1490 OFFCURVE",
"1186 1490 CURVE SMOOTH",
"1094 1490 OFFCURVE",
"1033 1453 OFFCURVE",
"989 1373 CURVE SMOOTH",
"808 1043 LINE SMOOTH",
"791.333 1013 OFFCURVE",
"775.167 983 OFFCURVE",
"759.5 953 CURVE SMOOTH",
"743.833 923 OFFCURVE",
"728.333 893 OFFCURVE",
"713 863 CURVE",
"665 953 LINE SMOOTH",
"649 983 OFFCURVE",
"632.333 1013 OFFCURVE",
"615 1043 CURVE SMOOTH",
"427 1375 LINE SMOOTH",
"382 1455 OFFCURVE",
"321 1490 OFFCURVE",
"230 1490 CURVE SMOOTH",
"186 1490 LINE SMOOTH",
"85 1490 OFFCURVE",
"59 1406 OFFCURVE",
"127 1291 CURVE SMOOTH",
"561 557 LINE"
);
}
);
userData = {
assembly = "NPUSHB[ ]	/* 32 values pushed */\01213 7 1 3 2 0 1 76 1 1 0 0 103 77 3 1 2 2 104 2 78 0 0 0 14 0 14 24 18 4 12 24 \012CALL[ ]	/* CallFunction */";
};
width = 1413;
}
);
leftKerningGroup = Y;
note = Y;
rightKerningGroup = Y;
unicode = 0059;
},
{
glyphname = Yhook;
lastChange = "2024-07-06 19:10:55 +0000";
layers = (
{
layerId = "EC312F70-CB40-4CEF-804A-742881A222CF";
paths = (
{
closed = 1;
nodes = (
"116 1490 OFFCURVE",
"84 1404 OFFCURVE",
"156 1290 CURVE SMOOTH",
"605 579 LINE",
"605 166 LINE SMOOTH",
"605 58 OFFCURVE",
"658 0 OFFCURVE",
"755 0 CURVE SMOOTH",
"852 0 OFFCURVE",
"904 59 OFFCURVE",
"904 166 CURVE SMOOTH",
"904 579 LINE",
"1275 1166 LINE SMOOTH",
"1303.667 1210.667 OFFCURVE",
"1333 1239 OFFCURVE",
"1363 1251 CURVE SMOOTH",
"1380 1258 OFFCURVE",
"1399 1260 OFFCURVE",
"1421 1258 CURVE SMOOTH",
"1461 1255 OFFCURVE",
"1490 1284 OFFCURVE",
"1513 1360 CURVE SMOOTH",
"1534 1433 OFFCURVE",
"1489 1506 OFFCURVE",
"1378 1507 CURVE SMOOTH",
"1373 1507 OFFCURVE",
"1368 1507 OFFCURVE",
"1363 1507 CURVE SMOOTH",
"1301 1505.667 OFFCURVE",
"1242.333 1489.167 OFFCURVE",
"1187 1457.5 CURVE SMOOTH",
"1131.667 1425.833 OFFCURVE",
"1083.333 1376.333 OFFCURVE",
"1042 1309 CURVE SMOOTH",
"763 843 LINE",
"746 843 LINE",
"427 1377 LINE SMOOTH",
"380 1456 OFFCURVE",
"320 1490 OFFCURVE",
"229 1490 CURVE SMOOTH"
);
}
);
userData = {
assembly = "NPUSHB[ ]	/* 10 values pushed */\01216 13 9 8 2 5 2 0 1 76 \012MPPEM[ ]	/* MeasurePixelPerEm */\012PUSHB[ ]	/* 1 value pushed */\01230 \012LT[ ]	/* LessThan */\012IF[ ]	/* If */\012NPUSHB[ ]	/* 12 values pushed */\0121 1 0 0 103 77 0 2 2 104 2 78 \012ELSE[ ]	/* Else */\012NPUSHB[ ]	/* 16 values pushed */\0120 1 1 109 77 0 0 0 103 77 0 2 2 104 2 78 \012EIF[ ]	/* EndIf */\012PUSHB[ ]	/* 6 values pushed */\01223 21 16 3 12 25 \012CALL[ ]	/* CallFunction */";
};
width = 1553;
}
);
leftKerningGroup = Y;
note = uni01B3;
rightKerningGroup = Y;
unicode = 01B3;
},
{
glyphname = Yloop;
lastChange = "2024-07-06 19:10:55 +0000";
layers = (
{
layerId = "EC312F70-CB40-4CEF-804A-742881A222CF";
paths = (
{
closed = 1;
nodes = (
"237 1490 OFFCURVE",
"201 1409 OFFCURVE",
"262 1293 CURVE SMOOTH",
"534 778 LINE",
"507.333 783.333 OFFCURVE",
"480 786 OFFCURVE",
"452 786 CURVE SMOOTH",
"376 786 OFFCURVE",
"307.167 767.667 OFFCURVE",
"245.5 731 CURVE SMOOTH",
"183.833 694.333 OFFCURVE",
"134.667 645.333 OFFCURVE",
"98 584 CURVE SMOOTH",
"61.333 522.667 OFFCURVE",
"43 455.333 OFFCURVE",
"43 382 CURVE SMOOTH",
"43 307.333 OFFCURVE",
"61.333 239.667 OFFCURVE",
"98 179 CURVE SMOOTH",
"134.667 118.333 OFFCURVE",
"184 70 OFFCURVE",
"246 34 CURVE SMOOTH",
"308 -2 OFFCURVE",
"376.667 -20 OFFCURVE",
"452 -20 CURVE SMOOTH",
"536.667 -20 OFFCURVE",
"613 3.167 OFFCURVE",
"681 49.5 CURVE SMOOTH",
"749 95.833 OFFCURVE",
"798.333 155.333 OFFCURVE",
"829 228 CURVE",
"1376 1293 LINE SMOOTH",
"1435 1409 OFFCURVE",
"1397 1490 OFFCURVE",
"1284 1490 CURVE SMOOTH",
"1191 1490 OFFCURVE",
"1130 1451 OFFCURVE",
"1090 1367 CURVE SMOOTH",
"821 798 LINE",
"545 1368 LINE SMOOTH",
"504 1453 OFFCURVE",
"443 1490 OFFCURVE",
"350 1490 CURVE SMOOTH"
);
},
{
closed = 1;
nodes = (
"408.667 230.667 OFFCURVE",
"372.833 244 OFFCURVE",
"344.5 270 CURVE SMOOTH",
"316.167 296 OFFCURVE",
"302 334.333 OFFCURVE",
"302 385 CURVE SMOOTH",
"302 434.333 OFFCURVE",
"316.167 472 OFFCURVE",
"344.5 498 CURVE SMOOTH",
"372.833 524 OFFCURVE",
"408.667 537 OFFCURVE",
"452 537 CURVE SMOOTH",
"492.667 537 OFFCURVE",
"527.333 524 OFFCURVE",
"556 498 CURVE SMOOTH",
"584.667 472 OFFCURVE",
"599 434.333 OFFCURVE",
"599 385 CURVE SMOOTH",
"599 334.333 OFFCURVE",
"584.667 296 OFFCURVE",
"556 270 CURVE SMOOTH",
"527.333 244 OFFCURVE",
"492.667 230.667 OFFCURVE",
"452 230 CURVE SMOOTH"
);
}
);
userData = {
assembly = "NPUSHB[ ]	/* 57 values pushed */\0121 1 2 0 17 1 5 2 2 76 0 2 0 5 4 2 5 106 6 3 2 0 0 103 77 7 1 4 4 1 97 0 1 1 110 1 78 20 19 0 0 26 24 19 30 20 30 0 18 0 18 38 35 18 8 12 25 \012CALL[ ]	/* CallFunction */";
};
width = 1500;
}
);
note = uni1EFE;
unicode = 1EFE;
},
{
glyphname = Yr;
lastChange = "2024-07-06 19:10:55 +0000";
layers = (
{
layerId = "EC312F70-CB40-4CEF-804A-742881A222CF";
paths = (
{
closed = 1;
nodes = (
"1429 -351 LINE",
"1429 -345 LINE SMOOTH",
"1429 -341 OFFCURVE",
"1414 -312 OFFCURVE",
"1377 -242 CURVE SMOOTH",
"904 636 LINE",
"990 671.333 OFFCURVE",
"1058.333 721.667 OFFCURVE",
"1109 787 CURVE SMOOTH",
"1159.667 852.333 OFFCURVE",
"1185 940 OFFCURVE",
"1185 1050 CURVE SMOOTH",
"1185 1192.667 OFFCURVE",
"1136 1301.667 OFFCURVE",
"1038 1377 CURVE SMOOTH",
"940 1452.333 OFFCURVE",
"805.333 1490 OFFCURVE",
"634 1490 CURVE SMOOTH",
"384 1490 LINE",
"384 1541 LINE SMOOTH",
"384 1574 OFFCURVE",
"330 1592 OFFCURVE",
"231 1592 CURVE SMOOTH",
"132 1592 OFFCURVE",
"78 1534 OFFCURVE",
"78 1426 CURVE SMOOTH",
"78 166 LINE SMOOTH",
"78 58 OFFCURVE",
"132 0 OFFCURVE",
"232 0 CURVE SMOOTH",
"332 0 OFFCURVE",
"386 59 OFFCURVE",
"386 166 CURVE SMOOTH",
"386 566 LINE",
"617 566 LINE",
"1039 -233 LINE SMOOTH",
"1082 -314 OFFCURVE",
"1143 -351 OFFCURVE",
"1235 -351 CURVE SMOOTH"
);
},
{
closed = 1;
nodes = (
"386 810 LINE",
"386 1243 LINE",
"634 1243 LINE SMOOTH",
"717.333 1243 OFFCURVE",
"779.167 1223.333 OFFCURVE",
"819.5 1184 CURVE SMOOTH",
"859.833 1144.667 OFFCURVE",
"880 1091.333 OFFCURVE",
"880 1024 CURVE SMOOTH",
"880 960 OFFCURVE",
"859.167 908.333 OFFCURVE",
"817.5 869 CURVE SMOOTH",
"775.833 829.667 OFFCURVE",
"714.667 810 OFFCURVE",
"634 810 CURVE SMOOTH"
);
}
);
userData = {
assembly = "NPUSHB[ ]	/* 58 values pushed */\01214 1 0 5 1 76 7 1 4 1 4 134 0 5 0 0 1 5 0 103 0 6 6 3 95 0 3 3 103 77 0 2 2 1 95 0 1 1 104 1 78 0 0 25 23 19 17 0 16 0 15 33 17 17 17 8 12 26 \012CALL[ ]	/* CallFunction */";
};
width = 1507;
}
);
note = YR;
unicode = 01A6;
},
{
glyphname = Ystroke;
lastChange = "2024-07-06 19:10:55 +0000";
layers = (
{
layerId = "EC312F70-CB40-4CEF-804A-742881A222CF";
paths = (
{
closed = 1;
nodes = (
"1434 1152 OFFCURVE",
"1376 1180 OFFCURVE",
"1268 1180 CURVE SMOOTH",
"1223 1180 LINE",
"1314 1335 LINE SMOOTH",
"1366 1425 OFFCURVE",
"1311 1490 OFFCURVE",
"1186 1490 CURVE SMOOTH",
"1094 1490 OFFCURVE",
"1033 1453 OFFCURVE",
"989 1373 CURVE SMOOTH",
"883 1180 LINE",
"537 1180 LINE",
"427 1375 LINE SMOOTH",
"382 1455 OFFCURVE",
"321 1490 OFFCURVE",
"230 1490 CURVE SMOOTH",
"186 1490 LINE SMOOTH",
"85 1490 OFFCURVE",
"59 1406 OFFCURVE",
"127 1291 CURVE SMOOTH",
"193 1180 LINE",
"93 1180 LINE SMOOTH",
"28 1180 OFFCURVE",
"-7 1152 OFFCURVE",
"-7 1101 CURVE SMOOTH",
"-7 1050 OFFCURVE",
"52 1022 OFFCURVE",
"159 1022 CURVE SMOOTH",
"286 1022 LINE",
"561 557 LINE",
"561 166 LINE SMOOTH",
"561 58 OFFCURVE",
"614 0 OFFCURVE",
"711 0 CURVE SMOOTH",
"808 0 OFFCURVE",
"861 59 OFFCURVE",
"861 166 CURVE SMOOTH",
"861 557 LINE",
"1132 1022 LINE",
"1283 1022 LINE SMOOTH",
"1381 1022 OFFCURVE",
"1434 1050 OFFCURVE",
"1434 1101 CURVE SMOOTH"
);
},
{
closed = 1;
nodes = (
"754 942.5 LINE SMOOTH",
"740 916.167 OFFCURVE",
"726.333 889.667 OFFCURVE",
"713 863 CURVE",
"699 889.667 OFFCURVE",
"684.833 916.167 OFFCURVE",
"670.5 942.5 CURVE SMOOTH",
"627 1022 LINE",
"796 1022 LINE"
);
}
);
userData = {
assembly = "NPUSHB[ ]	/* 51 values pushed */\01222 6 3 3 1 0 1 76 9 7 5 3 3 8 2 2 0 1 3 0 104 6 1 4 4 103 77 0 1 1 104 1 78 0 0 19 18 0 17 0 17 17 17 17 17 18 18 17 10 12 29 \012CALL[ ]	/* CallFunction */";
};
width = 1428;
}
);
leftKerningGroup = Y;
note = uni024E;
rightKerningGroup = Y;
unicode = 024E;
},
{
glyphname = Z;
lastChange = "2024-07-06 19:10:55 +0000";
layers = (
{
layerId = "EC312F70-CB40-4CEF-804A-742881A222CF";
paths = (
{
closed = 1;
nodes = (
"54 43 OFFCURVE",
"113 0 OFFCURVE",
"220 0 CURVE SMOOTH",
"1080 0 LINE SMOOTH",
"1188 0 OFFCURVE",
"1246 47 OFFCURVE",
"1246 132 CURVE SMOOTH",
"1246 217 OFFCURVE",
"1188 264 OFFCURVE",
"1080 264 CURVE SMOOTH",
"433 264 LINE",
"460.333 294.667 OFFCURVE",
"487.167 325.667 OFFCURVE",
"513.5 357 CURVE SMOOTH",
"591 450 LINE",
"1166 1162 LINE SMOOTH",
"1218 1226 OFFCURVE",
"1239 1285 OFFCURVE",
"1239 1368 CURVE SMOOTH",
"1239 1371 LINE SMOOTH",
"1239 1448 OFFCURVE",
"1180 1490 OFFCURVE",
"1073 1490 CURVE SMOOTH",
"242 1490 LINE SMOOTH",
"134 1490 OFFCURVE",
"76 1443 OFFCURVE",
"76 1358 CURVE SMOOTH",
"76 1273 OFFCURVE",
"134 1226 OFFCURVE",
"242 1226 CURVE SMOOTH",
"865 1226 LINE",
"839 1196.667 OFFCURVE",
"813.333 1167.167 OFFCURVE",
"788 1137.5 CURVE SMOOTH",
"762.667 1107.833 OFFCURVE",
"737.667 1078 OFFCURVE",
"713 1048 CURVE SMOOTH",
"127 328 LINE SMOOTH",
"75 264 OFFCURVE",
"54 205 OFFCURVE",
"54 122 CURVE SMOOTH"
);
}
);
userData = {
assembly = "NPUSHB[ ]	/* 44 values pushed */\0129 1 0 1 1 1 3 2 2 76 0 0 0 1 95 0 1 1 103 77 0 2 2 3 95 4 1 3 3 104 3 78 0 0 0 15 0 15 21 17 21 5 12 25 \012CALL[ ]	/* CallFunction */";
};
width = 1299;
}
);
leftKerningGroup = Z;
note = Z;
rightKerningGroup = Z;
unicode = 005A;
},
{
glyphname = Zhook;
lastChange = "2024-07-06 19:10:55 +0000";
layers = (
{
layerId = "EC312F70-CB40-4CEF-804A-742881A222CF";
paths = (
{
closed = 1;
nodes = (
"721 -375 OFFCURVE",
"779 -418 OFFCURVE",
"887 -418 CURVE SMOOTH",
"888 -418 LINE SMOOTH",
"1126.667 -418 OFFCURVE",
"1246 -311.667 OFFCURVE",
"1246 -99 CURVE SMOOTH",
"1246 98 LINE SMOOTH",
"1246 206 OFFCURVE",
"1188 264 OFFCURVE",
"1080 264 CURVE SMOOTH",
"433 264 LINE",
"460.333 294.667 OFFCURVE",
"487.167 325.667 OFFCURVE",
"513.5 357 CURVE SMOOTH",
"591 450 LINE",
"1166 1162 LINE SMOOTH",
"1218 1226 OFFCURVE",
"1239 1285 OFFCURVE",
"1239 1368 CURVE SMOOTH",
"1239 1371 LINE SMOOTH",
"1239 1448 OFFCURVE",
"1180 1490 OFFCURVE",
"1073 1490 CURVE SMOOTH",
"242 1490 LINE SMOOTH",
"134 1490 OFFCURVE",
"76 1443 OFFCURVE",
"76 1358 CURVE SMOOTH",
"76 1273 OFFCURVE",
"134 1226 OFFCURVE",
"242 1226 CURVE SMOOTH",
"865 1226 LINE",
"839 1196.667 OFFCURVE",
"813.333 1167.167 OFFCURVE",
"788 1137.5 CURVE SMOOTH",
"762.667 1107.833 OFFCURVE",
"737.667 1078 OFFCURVE",
"713 1048 CURVE SMOOTH",
"127 328 LINE SMOOTH",
"75 264 OFFCURVE",
"54 205 OFFCURVE",
"54 122 CURVE SMOOTH",
"54 119 LINE SMOOTH",
"54 42 OFFCURVE",
"112 0 OFFCURVE",
"220 0 CURVE SMOOTH",
"938 0 LINE",
"938 -83 LINE SMOOTH",
"938 -143 OFFCURVE",
"905.333 -173 OFFCURVE",
"840 -173 CURVE SMOOTH",
"763 -173 OFFCURVE",
"721 -217 OFFCURVE",
"721 -296 CURVE SMOOTH"
);
}
);
userData = {
assembly = "NPUSHB[ ]	/* 56 values pushed */\01215 1 2 3 7 1 1 4 2 76 0 2 2 3 95 0 3 3 103 77 0 4 4 1 95 0 1 1 104 77 0 0 0 5 95 6 1 5 5 108 5 78 0 0 0 23 0 22 21 17 21 18 33 7 12 27 \012CALL[ ]	/* CallFunction */";
};
width = 1299;
}
);
leftKerningGroup = Z;
note = uni0224;
rightKerningGroup = Z;
unicode = 0224;
},
{
glyphname = Zswashtail;
lastChange = "2024-07-06 19:10:55 +0000";
layers = (
{
layerId = "EC312F70-CB40-4CEF-804A-742881A222CF";
paths = (
{
closed = 1;
nodes = (
"1175 -418 OFFCURVE",
"1220 -374 OFFCURVE",
"1220 -294 CURVE SMOOTH",
"1220 -213 OFFCURVE",
"1186 -169 OFFCURVE",
"1124 -169 CURVE SMOOTH",
"1072.667 -169 OFFCURVE",
"1028.333 -155.667 OFFCURVE",
"991 -129 CURVE SMOOTH",
"953.667 -102.333 OFFCURVE",
"918.167 -69.167 OFFCURVE",
"884.5 -29.5 CURVE SMOOTH",
"850.833 10.167 OFFCURVE",
"814.167 50.5 OFFCURVE",
"774.5 91.5 CURVE SMOOTH",
"734.833 132.5 OFFCURVE",
"687.5 167.833 OFFCURVE",
"632.5 197.5 CURVE SMOOTH",
"577.5 227.167 OFFCURVE",
"509.333 244.667 OFFCURVE",
"428 250 CURVE",
"1122 1169 LINE SMOOTH",
"1171 1234 OFFCURVE",
"1191 1294 OFFCURVE",
"1191 1376 CURVE SMOOTH",
"1191 1376 LINE SMOOTH",
"1191 1450 OFFCURVE",
"1133 1490 OFFCURVE",
"1025 1490 CURVE SMOOTH",
"222 1490 LINE SMOOTH",
"114 1490 OFFCURVE",
"56 1443 OFFCURVE",
"56 1358 CURVE SMOOTH",
"56 1273 OFFCURVE",
"114 1226 OFFCURVE",
"222 1226 CURVE SMOOTH",
"815 1226 LINE",
"126 319 LINE SMOOTH",
"76 254 OFFCURVE",
"57 195 OFFCURVE",
"57 114 CURVE SMOOTH",
"57 40 OFFCURVE",
"116 0 OFFCURVE",
"223 0 CURVE SMOOTH",
"293 0 LINE SMOOTH",
"359 0 OFFCURVE",
"416.167 -10 OFFCURVE",
"464.5 -30 CURVE SMOOTH",
"512.833 -50 OFFCURVE",
"555.833 -76 OFFCURVE",
"593.5 -108 CURVE SMOOTH",
"631.167 -140 OFFCURVE",
"667 -173.667 OFFCURVE",
"701 -209 CURVE SMOOTH",
"735 -244.333 OFFCURVE",
"770.167 -278 OFFCURVE",
"806.5 -310 CURVE SMOOTH",
"842.833 -342 OFFCURVE",
"884 -368 OFFCURVE",
"930 -388 CURVE SMOOTH",
"976 -408 OFFCURVE",
"1030 -418 OFFCURVE",
"1092 -418 CURVE SMOOTH"
);
}
);
userData = {
assembly = "NPUSHB[ ]	/* 64 values pushed */\01214 1 2 3 9 1 1 4 2 76 0 4 2 1 2 4 1 128 0 2 2 3 95 0 3 3 103 77 0 1 1 104 77 0 5 5 0 97 6 1 0 0 108 0 78 1 0 22 20 16 15 13 12 11 10 8 6 0 23 1 23 7 12 22 \012CALL[ ]	/* CallFunction */";
};
width = 1274;
}
);
leftKerningGroup = Z;
note = uni2C7F;
rightKerningGroup = Z;
unicode = 2C7F;
},
{
glyphname = G.1;
lastChange = "2024-07-06 19:10:55 +0000";
layers = (
{
layerId = "EC312F70-CB40-4CEF-804A-742881A222CF";
paths = (
{
closed = 1;
nodes = (
"846 -24 OFFCURVE",
"937.833 -3.833 OFFCURVE",
"1017.5 36.5 CURVE SMOOTH",
"1097.167 76.833 OFFCURVE",
"1159.333 132.333 OFFCURVE",
"1204 203 CURVE",
"1218 102 LINE SMOOTH",
"1227 34 OFFCURVE",
"1266 0 OFFCURVE",
"1333 0 CURVE SMOOTH",
"1398 0 OFFCURVE",
"1433 58 OFFCURVE",
"1433 166 CURVE SMOOTH",
"1433 626 LINE SMOOTH",
"1433 734 OFFCURVE",
"1375 792 OFFCURVE",
"1267 792 CURVE SMOOTH",
"972 792 LINE SMOOTH",
"864 792 OFFCURVE",
"806 751 OFFCURVE",
"806 675 CURVE SMOOTH",
"806 599 OFFCURVE",
"865 558 OFFCURVE",
"972 558 CURVE SMOOTH",
"1133 558 LINE",
"1129.667 462.667 OFFCURVE",
"1095.333 387.167 OFFCURVE",
"1030 331.5 CURVE SMOOTH",
"964.667 275.833 OFFCURVE",
"881.333 248 OFFCURVE",
"780 248 CURVE SMOOTH",
"653.333 248 OFFCURVE",
"553.833 292.5 OFFCURVE",
"481.5 381.5 CURVE SMOOTH",
"409.167 470.5 OFFCURVE",
"373 591.333 OFFCURVE",
"373 744 CURVE SMOOTH",
"373 897.333 OFFCURVE",
"408.833 1018.667 OFFCURVE",
"480.5 1108 CURVE SMOOTH",
"552.167 1197.333 OFFCURVE",
"650.667 1242 OFFCURVE",
"776 1242 CURVE SMOOTH",
"865.333 1242 OFFCURVE",
"939.167 1219.167 OFFCURVE",
"997.5 1173.5 CURVE SMOOTH",
"1027 1150 OFFCURVE",
"1051 1123 OFFCURVE",
"1070 1092 CURVE SMOOTH",
"1109 1026 OFFCURVE",
"1154 991 OFFCURVE",
"1248 991 CURVE SMOOTH",
"1266 991 LINE SMOOTH",
"1362 991 OFFCURVE",
"1421 1067 OFFCURVE",
"1367 1177 CURVE SMOOTH",
"1352 1207 OFFCURVE",
"1333 1237 OFFCURVE",
"1312 1264.5 CURVE SMOOTH",
"1251.333 1342.833 OFFCURVE",
"1173.833 1404 OFFCURVE",
"1079.5 1448 CURVE SMOOTH",
"985.167 1492 OFFCURVE",
"881 1514 OFFCURVE",
"767 1514 CURVE SMOOTH",
"633 1514 OFFCURVE",
"512.833 1482.833 OFFCURVE",
"406.5 1420.5 CURVE SMOOTH",
"300.167 1358.167 OFFCURVE",
"216.333 1269.5 OFFCURVE",
"155 1154.5 CURVE SMOOTH",
"93.667 1039.5 OFFCURVE",
"63 902.667 OFFCURVE",
"63 744 CURVE SMOOTH",
"63 590.667 OFFCURVE",
"92.833 456.333 OFFCURVE",
"152.5 341 CURVE SMOOTH",
"212.167 225.667 OFFCURVE",
"293.333 136 OFFCURVE",
"396 72 CURVE SMOOTH",
"498.667 8 OFFCURVE",
"614 -24 OFFCURVE",
"742 -24 CURVE SMOOTH"
);
}
);
userData = {
assembly = "MPPEM[ ]	/* MeasurePixelPerEm */\012PUSHB[ ]	/* 1 value pushed */\01222 \012LT[ ]	/* LessThan */\012IF[ ]	/* If */\012PUSHB[ ]	/* 6 values pushed */\01231 1 0 4 1 76 \012ELSE[ ]	/* Else */\012PUSHB[ ]	/* 6 values pushed */\01231 1 7 4 1 76 \012EIF[ ]	/* EndIf */\012MPPEM[ ]	/* MeasurePixelPerEm */\012PUSHB[ ]	/* 1 value pushed */\01222 \012LT[ ]	/* LessThan */\012IF[ ]	/* If */\012NPUSHB[ ]	/* 39 values pushed */\0120 2 3 6 3 2 6 128 0 6 0 5 4 6 5 103 0 3 3 1 97 0 1 1 109 77 0 4 4 0 97 7 8 2 0 0 110 0 78 \012ELSE[ ]	/* Else */\012MPPEM[ ]	/* MeasurePixelPerEm */\012PUSHB[ ]	/* 1 value pushed */\01250 \012LT[ ]	/* LessThan */\012IF[ ]	/* If */\012NPUSHB[ ]	/* 43 values pushed */\0120 2 3 6 3 2 6 128 0 6 0 5 4 6 5 103 0 3 3 1 97 0 1 1 109 77 0 7 7 104 77 0 4 4 0 97 8 1 0 0 110 0 78 \012ELSE[ ]	/* Else */\012NPUSHB[ ]	/* 41 values pushed */\0120 2 3 6 3 2 6 128 0 1 0 3 2 1 3 105 0 6 0 5 4 6 5 103 0 7 7 104 77 0 4 4 0 97 8 1 0 0 110 0 78 \012EIF[ ]	/* EndIf */\012EIF[ ]	/* EndIf */\012NPUSHB[ ]	/* 23 values pushed */\0121 0 30 29 28 27 26 25 23 21 17 15 13 12 9 7 0 33 1 33 9 12 22 \012CALL[ ]	/* CallFunction */";
};
width = 1526;
}
);
leftKerningGroup = C;
note = G.1;
rightKerningGroup = G.1;
},
{
glyphname = Ghook.1;
lastChange = "2024-07-06 19:10:55 +0000";
layers = (
{
layerId = "EC312F70-CB40-4CEF-804A-742881A222CF";
paths = (
{
closed = 1;
nodes = (
"846 -24 OFFCURVE",
"937.833 -3.833 OFFCURVE",
"1017.5 36.5 CURVE SMOOTH",
"1097.167 76.833 OFFCURVE",
"1159.333 132.333 OFFCURVE",
"1204 203 CURVE",
"1218 102 LINE SMOOTH",
"1227 34 OFFCURVE",
"1266 0 OFFCURVE",
"1333 0 CURVE SMOOTH",
"1398 0 OFFCURVE",
"1433 58 OFFCURVE",
"1433 166 CURVE SMOOTH",
"1433 626 LINE SMOOTH",
"1433 734 OFFCURVE",
"1375 792 OFFCURVE",
"1267 792 CURVE SMOOTH",
"972 792 LINE SMOOTH",
"864 792 OFFCURVE",
"806 751 OFFCURVE",
"806 675 CURVE SMOOTH",
"806 599 OFFCURVE",
"865 558 OFFCURVE",
"972 558 CURVE SMOOTH",
"1133 558 LINE",
"1129.667 462.667 OFFCURVE",
"1095.333 387.167 OFFCURVE",
"1030 331.5 CURVE SMOOTH",
"964.667 275.833 OFFCURVE",
"881.333 248 OFFCURVE",
"780 248 CURVE SMOOTH",
"653.333 248 OFFCURVE",
"553.833 292.5 OFFCURVE",
"481.5 381.5 CURVE SMOOTH",
"409.167 470.5 OFFCURVE",
"373 591.333 OFFCURVE",
"373 744 CURVE SMOOTH",
"373 897.333 OFFCURVE",
"408.833 1018.667 OFFCURVE",
"480.5 1108 CURVE SMOOTH",
"552.167 1197.333 OFFCURVE",
"650.667 1242 OFFCURVE",
"776 1242 CURVE SMOOTH",
"865.333 1242 OFFCURVE",
"939.167 1219.167 OFFCURVE",
"997.5 1173.5 CURVE SMOOTH",
"1027 1150 OFFCURVE",
"1051 1123 OFFCURVE",
"1070 1092 CURVE SMOOTH",
"1109 1026 OFFCURVE",
"1154 991 OFFCURVE",
"1248 991 CURVE SMOOTH",
"1266 991 LINE SMOOTH",
"1367 991 OFFCURVE",
"1422 1050 OFFCURVE",
"1422 1157 CURVE SMOOTH",
"1422 1345 LINE SMOOTH",
"1422 1407 OFFCURVE",
"1455.667 1438 OFFCURVE",
"1523 1438 CURVE SMOOTH",
"1600 1438 OFFCURVE",
"1642 1480 OFFCURVE",
"1642 1557 CURVE SMOOTH",
"1642 1634 OFFCURVE",
"1585 1676 OFFCURVE",
"1480 1676 CURVE SMOOTH",
"1270.667 1676 OFFCURVE",
"1155.667 1590.333 OFFCURVE",
"1135 1419 CURVE",
"1082.333 1449.667 OFFCURVE",
"1025 1473.167 OFFCURVE",
"963 1489.5 CURVE SMOOTH",
"901 1505.833 OFFCURVE",
"835.667 1514 OFFCURVE",
"767 1514 CURVE SMOOTH",
"633 1514 OFFCURVE",
"512.833 1482.833 OFFCURVE",
"406.5 1420.5 CURVE SMOOTH",
"300.167 1358.167 OFFCURVE",
"216.333 1269.5 OFFCURVE",
"155 1154.5 CURVE SMOOTH",
"93.667 1039.5 OFFCURVE",
"63 902.667 OFFCURVE",
"63 744 CURVE SMOOTH",
"63 590.667 OFFCURVE",
"92.833 456.333 OFFCURVE",
"152.5 341 CURVE SMOOTH",
"212.167 225.667 OFFCURVE",
"293.333 136 OFFCURVE",
"396 72 CURVE SMOOTH",
"498.667 8 OFFCURVE",
"614 -24 OFFCURVE",
"742 -24 CURVE SMOOTH"
);
}
);
userData = {
assembly = "MPPEM[ ]	/* MeasurePixelPerEm */\012PUSHB[ ]	/* 1 value pushed */\01222 \012LT[ ]	/* LessThan */\012IF[ ]	/* If */\012NPUSHB[ ]	/* 10 values pushed */\01211 1 5 3 38 1 0 6 2 76 \012ELSE[ ]	/* Else */\012NPUSHB[ ]	/* 10 values pushed */\01211 1 5 3 38 1 9 6 2 76 \012EIF[ ]	/* EndIf */\012MPPEM[ ]	/* MeasurePixelPerEm */\012PUSHB[ ]	/* 1 value pushed */\01222 \012LT[ ]	/* LessThan */\012IF[ ]	/* If */\012NPUSHB[ ]	/* 47 values pushed */\0120 4 5 8 5 4 8 128 0 2 0 3 5 2 3 105 0 8 0 7 6 8 7 103 0 5 5 1 97 0 1 1 109 77 0 6 6 0 97 9 10 2 0 0 110 0 78 \012ELSE[ ]	/* Else */\012MPPEM[ ]	/* MeasurePixelPerEm */\012PUSHB[ ]	/* 1 value pushed */\01250 \012LT[ ]	/* LessThan */\012IF[ ]	/* If */\012NPUSHB[ ]	/* 51 values pushed */\0120 4 5 8 5 4 8 128 0 2 0 3 5 2 3 105 0 8 0 7 6 8 7 103 0 5 5 1 97 0 1 1 109 77 0 9 9 104 77 0 6 6 0 97 10 1 0 0 110 0 78 \012ELSE[ ]	/* Else */\012NPUSHB[ ]	/* 49 values pushed */\0120 4 5 8 5 4 8 128 0 2 0 3 5 2 3 105 0 1 0 5 4 1 5 105 0 8 0 7 6 8 7 103 0 9 9 104 77 0 6 6 0 97 10 1 0 0 110 0 78 \012EIF[ ]	/* EndIf */\012EIF[ ]	/* EndIf */\012NPUSHB[ ]	/* 27 values pushed */\0121 0 37 36 35 34 33 32 30 28 24 22 20 19 17 15 14 12 9 7 0 40 1 40 11 12 22 \012CALL[ ]	/* CallFunction */";
};
width = 1526;
}
);
note = uni0193.1;
},
{
glyphname = I.1;
lastChange = "2024-07-06 19:10:55 +0000";
layers = (
{
layerId = "EC312F70-CB40-4CEF-804A-742881A222CF";
paths = (
{
closed = 1;
nodes = (
"64 44 OFFCURVE",
"123 0 OFFCURVE",
"230 0 CURVE SMOOTH",
"572 0 LINE SMOOTH",
"680 0 OFFCURVE",
"738 44 OFFCURVE",
"738 125 CURVE SMOOTH",
"738 206 OFFCURVE",
"680 250 OFFCURVE",
"572 250 CURVE SMOOTH",
"555 250 LINE",
"555 1240 LINE",
"647 1240 LINE SMOOTH",
"706 1240 OFFCURVE",
"738 1284 OFFCURVE",
"738 1365 CURVE SMOOTH",
"738 1446 OFFCURVE",
"679 1490 OFFCURVE",
"572 1490 CURVE SMOOTH",
"230 1490 LINE SMOOTH",
"122 1490 OFFCURVE",
"64 1446 OFFCURVE",
"64 1365 CURVE SMOOTH",
"64 1284 OFFCURVE",
"122 1240 OFFCURVE",
"230 1240 CURVE SMOOTH",
"247 1240 LINE",
"247 250 LINE",
"156 250 LINE SMOOTH",
"97 250 OFFCURVE",
"64 206 OFFCURVE",
"64 125 CURVE SMOOTH"
);
}
);
userData = {
assembly = "NPUSHB[ ]	/* 38 values pushed */\0123 1 1 1 2 95 0 2 2 103 77 4 1 0 0 5 95 6 1 5 5 104 5 78 0 0 0 11 0 11 17 17 17 17 17 7 12 27 \012CALL[ ]	/* CallFunction */";
};
width = 802;
}
);
leftKerningGroup = B;
note = I.1;
rightKerningGroup = Ereversed;
},
{
glyphname = Thook.base;
lastChange = "2024-07-06 19:10:55 +0000";
layers = (
{
layerId = "EC312F70-CB40-4CEF-804A-742881A222CF";
paths = (
{
closed = 1;
nodes = (
"462 1272 OFFCURVE",
"479 1226 OFFCURVE",
"510 1226 CURVE",
"510 166 LINE SMOOTH",
"510 58 OFFCURVE",
"564 0 OFFCURVE",
"664 0 CURVE SMOOTH",
"764 0 OFFCURVE",
"818 59 OFFCURVE",
"818 166 CURVE SMOOTH",
"818 1226 LINE",
"1109 1226 LINE SMOOTH",
"1217 1226 OFFCURVE",
"1275 1273 OFFCURVE",
"1275 1358 CURVE SMOOTH",
"1275 1443 OFFCURVE",
"1217 1490 OFFCURVE",
"1109 1490 CURVE SMOOTH",
"628 1490 LINE SMOOTH",
"520 1490 OFFCURVE",
"462 1443 OFFCURVE",
"462 1358 CURVE SMOOTH"
);
}
);
userData = {
assembly = "NPUSHB[ ]	/* 35 values pushed */\0120 2 1 2 134 0 0 1 1 0 87 0 0 0 1 95 4 3 2 1 0 1 79 0 0 0 7 0 7 17 17 17 5 6 25 \012CALL[ ]	/* CallFunction */";
};
width = 1319;
}
);
note = uni01AC.base;
rightKerningGroup = "Enghe-cy";
},
{
glyphname = a;
lastChange = "2024-07-06 19:10:55 +0000";
layers = (
{
layerId = "EC312F70-CB40-4CEF-804A-742881A222CF";
paths = (
{
closed = 1;
nodes = (
"507.667 -18 OFFCURVE",
"572.333 -3 OFFCURVE",
"621 27 CURVE SMOOTH",
"669.667 57 OFFCURVE",
"708 97.667 OFFCURVE",
"736 149 CURVE",
"740 149 LINE",
"740 75 LINE SMOOTH",
"740 27 OFFCURVE",
"791 0 OFFCURVE",
"884 0 CURVE SMOOTH",
"977 0 OFFCURVE",
"1028 58 OFFCURVE",
"1028 166 CURVE SMOOTH",
"1028 716 LINE SMOOTH",
"1028 828.667 OFFCURVE",
"988.333 917.167 OFFCURVE",
"909 981.5 CURVE SMOOTH",
"829.667 1045.833 OFFCURVE",
"717.667 1078 OFFCURVE",
"573 1078 CURVE SMOOTH",
"428.333 1078 OFFCURVE",
"314.667 1045.833 OFFCURVE",
"232 981.5 CURVE SMOOTH",
"190 949 OFFCURVE",
"158 911 OFFCURVE",
"136 867 CURVE SMOOTH",
"94 783 OFFCURVE",
"154 722 OFFCURVE",
"243 722 CURVE SMOOTH",
"334 722 OFFCURVE",
"431 821 OFFCURVE",
"431 821 CURVE SMOOTH",
"465 846.333 OFFCURVE",
"509.333 859 OFFCURVE",
"564 859 CURVE SMOOTH",
"618 859 OFFCURVE",
"660.333 846.667 OFFCURVE",
"691 822 CURVE SMOOTH",
"721.667 797.333 OFFCURVE",
"737 765.667 OFFCURVE",
"737 727 CURVE SMOOTH",
"737 720 LINE SMOOTH",
"737 686 OFFCURVE",
"717.667 664 OFFCURVE",
"679 654 CURVE SMOOTH",
"640.333 644 OFFCURVE",
"572.667 634 OFFCURVE",
"476 624 CURVE SMOOTH",
"402.667 617.333 OFFCURVE",
"334.667 603.667 OFFCURVE",
"272 583 CURVE SMOOTH",
"209.333 562.333 OFFCURVE",
"159 529.5 OFFCURVE",
"121 484.5 CURVE SMOOTH",
"83 439.5 OFFCURVE",
"64 377.333 OFFCURVE",
"64 298 CURVE SMOOTH",
"64 192.667 OFFCURVE",
"98.167 113.667 OFFCURVE",
"166.5 61 CURVE SMOOTH",
"234.833 8.333 OFFCURVE",
"321.667 -18 OFFCURVE",
"427 -18 CURVE SMOOTH"
);
},
{
closed = 1;
nodes = (
"459.667 187 OFFCURVE",
"420.167 197.5 OFFCURVE",
"390.5 218.5 CURVE SMOOTH",
"360.833 239.5 OFFCURVE",
"346 268.667 OFFCURVE",
"346 306 CURVE SMOOTH",
"346 348 OFFCURVE",
"363.5 379.5 OFFCURVE",
"398.5 400.5 CURVE SMOOTH",
"433.5 421.5 OFFCURVE",
"476.333 436 OFFCURVE",
"527 444 CURVE SMOOTH",
"574.333 451.333 OFFCURVE",
"617.333 458.833 OFFCURVE",
"656 466.5 CURVE SMOOTH",
"694.667 474.167 OFFCURVE",
"722.333 482.667 OFFCURVE",
"739 492 CURVE",
"739 386 LINE SMOOTH",
"739 328.667 OFFCURVE",
"718.333 281.167 OFFCURVE",
"677 243.5 CURVE SMOOTH",
"635.667 205.833 OFFCURVE",
"579.667 187 OFFCURVE",
"509 187 CURVE SMOOTH"
);
}
);
userData = {
assembly = "MPPEM[ ]	/* MeasurePixelPerEm */\012PUSHB[ ]	/* 1 value pushed */\01228 \012LT[ ]	/* LessThan */\012IF[ ]	/* If */\012NPUSHB[ ]	/* 10 values pushed */\01235 1 5 2 27 1 0 5 2 76 \012ELSE[ ]	/* Else */\012NPUSHB[ ]	/* 10 values pushed */\01235 1 5 2 27 1 4 5 2 76 \012EIF[ ]	/* EndIf */\012MPPEM[ ]	/* MeasurePixelPerEm */\012PUSHB[ ]	/* 1 value pushed */\01218 \012LT[ ]	/* LessThan */\012IF[ ]	/* If */\012NPUSHB[ ]	/* 31 values pushed */\0120 2 1 5 1 2 114 0 1 1 3 97 0 3 3 112 77 7 1 5 5 0 97 4 6 2 0 0 110 0 78 \012ELSE[ ]	/* Else */\012MPPEM[ ]	/* MeasurePixelPerEm */\012PUSHB[ ]	/* 1 value pushed */\01228 \012LT[ ]	/* LessThan */\012IF[ ]	/* If */\012NPUSHB[ ]	/* 32 values pushed */\0120 2 1 5 1 2 5 128 0 1 1 3 97 0 3 3 112 77 7 1 5 5 0 97 4 6 2 0 0 110 0 78 \012ELSE[ ]	/* Else */\012NPUSHB[ ]	/* 36 values pushed */\0120 2 1 5 1 2 5 128 0 1 1 3 97 0 3 3 112 77 0 4 4 104 77 7 1 5 5 0 97 6 1 0 0 110 0 78 \012EIF[ ]	/* EndIf */\012EIF[ ]	/* EndIf */\012NPUSHB[ ]	/* 23 values pushed */\01232 31 1 0 31 43 32 43 26 25 22 20 18 17 15 13 0 30 1 30 8 12 22 \012CALL[ ]	/* CallFunction */";
};
width = 1132;
}
);
leftKerningGroup = a;
note = a;
rightKerningGroup = a;
unicode = 0061;
},
{
glyphname = "alphaturned-latin";
lastChange = "2024-07-06 19:10:55 +0000";
layers = (
{
layerId = "EC312F70-CB40-4CEF-804A-742881A222CF";
paths = (
{
closed = 1;
nodes = (
"799 -22 OFFCURVE",
"879.167 1 OFFCURVE",
"947.5 47 CURVE SMOOTH",
"1015.833 93 OFFCURVE",
"1069 157.333 OFFCURVE",
"1107 240 CURVE SMOOTH",
"1145 322.667 OFFCURVE",
"1164 419 OFFCURVE",
"1164 529 CURVE SMOOTH",
"1164 637 OFFCURVE",
"1144.833 732.333 OFFCURVE",
"1106.5 815 CURVE SMOOTH",
"1068.167 897.667 OFFCURVE",
"1014.833 962.167 OFFCURVE",
"946.5 1008.5 CURVE SMOOTH",
"878.167 1054.833 OFFCURVE",
"799 1078 OFFCURVE",
"709 1078 CURVE SMOOTH",
"640.333 1078 OFFCURVE",
"579 1064.167 OFFCURVE",
"525 1036.5 CURVE SMOOTH",
"471 1008.833 OFFCURVE",
"428 967.667 OFFCURVE",
"396 913 CURVE",
"392 913 LINE",
"392 985 LINE SMOOTH",
"392 1031 OFFCURVE",
"341 1056 OFFCURVE",
"248 1056 CURVE SMOOTH",
"155 1056 OFFCURVE",
"104 997 OFFCURVE",
"104 890 CURVE SMOOTH",
"104 166 LINE SMOOTH",
"104 58 OFFCURVE",
"155 0 OFFCURVE",
"248 0 CURVE SMOOTH",
"341 0 OFFCURVE",
"392 56 OFFCURVE",
"392 158 CURVE",
"395 158 LINE",
"425.667 98.667 OFFCURVE",
"468 53.833 OFFCURVE",
"522 23.5 CURVE SMOOTH",
"576 -6.833 OFFCURVE",
"637.667 -22 OFFCURVE",
"707 -22 CURVE SMOOTH"
);
},
{
closed = 1;
nodes = (
"556 218 OFFCURVE",
"496.167 246.167 OFFCURVE",
"450.5 302.5 CURVE SMOOTH",
"404.833 358.833 OFFCURVE",
"382 434.333 OFFCURVE",
"382 529 CURVE SMOOTH",
"382 623 OFFCURVE",
"404.833 698.333 OFFCURVE",
"450.5 755 CURVE SMOOTH",
"496.167 811.667 OFFCURVE",
"556 840 OFFCURVE",
"630 840 CURVE SMOOTH",
"702 840 OFFCURVE",
"759.333 812.833 OFFCURVE",
"802 758.5 CURVE SMOOTH",
"844.667 704.167 OFFCURVE",
"866 627.667 OFFCURVE",
"866 529 CURVE SMOOTH",
"866 430.333 OFFCURVE",
"844.667 353.833 OFFCURVE",
"802 299.5 CURVE SMOOTH",
"759.333 245.167 OFFCURVE",
"702 218 OFFCURVE",
"630 218 CURVE SMOOTH"
);
}
);
userData = {
assembly = "MPPEM[ ]	/* MeasurePixelPerEm */\012PUSHB[ ]	/* 1 value pushed */\01223 \012LT[ ]	/* LessThan */\012IF[ ]	/* If */\012NPUSHB[ ]	/* 10 values pushed */\0129 1 5 2 3 1 0 4 2 76 \012ELSE[ ]	/* Else */\012NPUSHB[ ]	/* 10 values pushed */\0129 1 5 2 3 1 1 4 2 76 \012EIF[ ]	/* EndIf */\012MPPEM[ ]	/* MeasurePixelPerEm */\012PUSHB[ ]	/* 1 value pushed */\01223 \012LT[ ]	/* LessThan */\012IF[ ]	/* If */\012NPUSHB[ ]	/* 25 values pushed */\0120 5 5 2 97 3 1 2 2 106 77 7 1 4 4 0 97 1 6 2 0 0 110 0 78 \012ELSE[ ]	/* Else */\012NPUSHB[ ]	/* 33 values pushed */\0120 2 2 106 77 0 5 5 3 97 0 3 3 112 77 0 1 1 104 77 7 1 4 4 0 97 6 1 0 0 110 0 78 \012EIF[ ]	/* EndIf */\012NPUSHB[ ]	/* 23 values pushed */\01222 21 1 0 28 26 21 32 22 32 14 12 8 7 6 5 0 20 1 20 8 12 22 \012CALL[ ]	/* CallFunction */";
};
width = 1222;
}
);
note = ascriptturn;
unicode = 0252;
},
{
glyphname = aturned;
lastChange = "2024-07-06 19:10:55 +0000";
layers = (
{
layerId = "EC312F70-CB40-4CEF-804A-742881A222CF";
paths = (
{
closed = 1;
nodes = (
"624.333 1074 OFFCURVE",
"559.667 1059 OFFCURVE",
"511 1029 CURVE SMOOTH",
"462.333 999 OFFCURVE",
"424 958.333 OFFCURVE",
"396 907 CURVE",
"392 907 LINE",
"392 982 LINE SMOOTH",
"392 1030 OFFCURVE",
"341 1056 OFFCURVE",
"248 1056 CURVE SMOOTH",
"155 1056 OFFCURVE",
"104 998 OFFCURVE",
"104 890 CURVE SMOOTH",
"104 340 LINE SMOOTH",
"104 227.333 OFFCURVE",
"143.667 138.833 OFFCURVE",
"223 74.5 CURVE SMOOTH",
"302.333 10.167 OFFCURVE",
"414.333 -22 OFFCURVE",
"559 -22 CURVE SMOOTH",
"704.333 -22 OFFCURVE",
"818.333 10.167 OFFCURVE",
"901 74.5 CURVE SMOOTH",
"943 107 OFFCURVE",
"975 145 OFFCURVE",
"997 189 CURVE SMOOTH",
"1039 273 OFFCURVE",
"979 334 OFFCURVE",
"890 334 CURVE SMOOTH",
"799 334 OFFCURVE",
"702 235 OFFCURVE",
"701.5 235 CURVE SMOOTH",
"667.833 209.667 OFFCURVE",
"623.333 197 OFFCURVE",
"568 197 CURVE SMOOTH",
"514 197 OFFCURVE",
"471.833 209.333 OFFCURVE",
"441.5 234 CURVE SMOOTH",
"411.167 258.667 OFFCURVE",
"396 290.333 OFFCURVE",
"396 329 CURVE SMOOTH",
"396 336 LINE SMOOTH",
"396 370 OFFCURVE",
"415.167 392 OFFCURVE",
"453.5 402 CURVE SMOOTH",
"491.833 412 OFFCURVE",
"559.333 422 OFFCURVE",
"656 432 CURVE SMOOTH",
"729.333 438.667 OFFCURVE",
"797.333 452.333 OFFCURVE",
"860 473 CURVE SMOOTH",
"922.667 493.667 OFFCURVE",
"973.167 526.5 OFFCURVE",
"1011.5 571.5 CURVE SMOOTH",
"1049.833 616.5 OFFCURVE",
"1069 678.667 OFFCURVE",
"1069 758 CURVE SMOOTH",
"1069 863.333 OFFCURVE",
"1034.667 942.333 OFFCURVE",
"966 995 CURVE SMOOTH",
"897.333 1047.667 OFFCURVE",
"810.333 1074 OFFCURVE",
"705 1074 CURVE SMOOTH"
);
},
{
closed = 1;
nodes = (
"673.333 869 OFFCURVE",
"712.833 858.5 OFFCURVE",
"742.5 837.5 CURVE SMOOTH",
"772.167 816.5 OFFCURVE",
"787 787.333 OFFCURVE",
"787 750 CURVE SMOOTH",
"787 708 OFFCURVE",
"769.333 676.5 OFFCURVE",
"734 655.5 CURVE SMOOTH",
"698.667 634.5 OFFCURVE",
"656 620 OFFCURVE",
"606 612 CURVE SMOOTH",
"558 604.667 OFFCURVE",
"514.833 597.167 OFFCURVE",
"476.5 589.5 CURVE SMOOTH",
"438.167 581.833 OFFCURVE",
"410.333 573.333 OFFCURVE",
"393 564 CURVE",
"393 670 LINE SMOOTH",
"393 727.333 OFFCURVE",
"413.667 774.833 OFFCURVE",
"455 812.5 CURVE SMOOTH",
"496.333 850.167 OFFCURVE",
"552.667 869 OFFCURVE",
"624 869 CURVE SMOOTH"
);
}
);
userData = {
assembly = "MPPEM[ ]	/* MeasurePixelPerEm */\012PUSHB[ ]	/* 1 value pushed */\01228 \012LT[ ]	/* LessThan */\012IF[ ]	/* If */\012NPUSHB[ ]	/* 10 values pushed */\01227 1 5 0 35 1 2 5 2 76 \012ELSE[ ]	/* Else */\012NPUSHB[ ]	/* 10 values pushed */\01227 1 5 4 35 1 2 5 2 76 \012EIF[ ]	/* EndIf */\012MPPEM[ ]	/* MeasurePixelPerEm */\012PUSHB[ ]	/* 1 value pushed */\01218 \012LT[ ]	/* LessThan */\012IF[ ]	/* If */\012NPUSHB[ ]	/* 31 values pushed */\0120 2 5 1 1 2 114 7 1 5 5 0 97 4 6 2 0 0 112 77 0 1 1 3 98 0 3 3 110 3 78 \012ELSE[ ]	/* Else */\012MPPEM[ ]	/* MeasurePixelPerEm */\012PUSHB[ ]	/* 1 value pushed */\01228 \012LT[ ]	/* LessThan */\012IF[ ]	/* If */\012NPUSHB[ ]	/* 32 values pushed */\0120 2 5 1 5 2 1 128 7 1 5 5 0 97 4 6 2 0 0 112 77 0 1 1 3 98 0 3 3 110 3 78 \012ELSE[ ]	/* Else */\012NPUSHB[ ]	/* 36 values pushed */\0120 2 5 1 5 2 1 128 0 4 4 106 77 7 1 5 5 0 97 6 1 0 0 112 77 0 1 1 3 98 0 3 3 110 3 78 \012EIF[ ]	/* EndIf */\012EIF[ ]	/* EndIf */\012NPUSHB[ ]	/* 23 values pushed */\01232 31 1 0 31 43 32 43 26 25 22 20 18 17 15 13 0 30 1 30 8 12 22 \012CALL[ ]	/* CallFunction */";
};
width = 1132;
}
);
leftKerningGroup = aturned;
note = aturn;
rightKerningGroup = aturned;
unicode = 0250;
},
{
glyphname = ae;
lastChange = "2024-07-06 19:10:55 +0000";
layers = (
{
layerId = "EC312F70-CB40-4CEF-804A-742881A222CF";
paths = (
{
closed = 1;
nodes = (
"538.667 -17 OFFCURVE",
"614 -3.833 OFFCURVE",
"686 22.5 CURVE SMOOTH",
"758 48.833 OFFCURVE",
"816.667 97 OFFCURVE",
"862 167 CURVE",
"901.333 109 OFFCURVE",
"954.333 62.667 OFFCURVE",
"1021 28 CURVE SMOOTH",
"1087.667 -6.667 OFFCURVE",
"1163.333 -24 OFFCURVE",
"1248 -24 CURVE SMOOTH",
"1333.333 -24 OFFCURVE",
"1411.333 -8.833 OFFCURVE",
"1482 21.5 CURVE SMOOTH",
"1552.667 51.833 OFFCURVE",
"1611.167 93.667 OFFCURVE",
"1657.5 147 CURVE SMOOTH",
"1681 174 OFFCURVE",
"1700 203 OFFCURVE",
"1715 233 CURVE SMOOTH",
"1741 290 OFFCURVE",
"1688 332 OFFCURVE",
"1604 332 CURVE SMOOTH",
"1516 332 OFFCURVE",
"1443 262 OFFCURVE",
"1402 235 CURVE SMOOTH",
"1401 235 OFFCURVE",
"1401 234 OFFCURVE",
"1400.5 234 CURVE SMOOTH",
"1362.167 209.333 OFFCURVE",
"1314.333 197 OFFCURVE",
"1257 197 CURVE SMOOTH",
"1179.667 197 OFFCURVE",
"1119.333 220.333 OFFCURVE",
"1076 267 CURVE SMOOTH",
"1032.667 313.667 OFFCURVE",
"1009.667 376 OFFCURVE",
"1007 454 CURVE",
"1592 454 LINE SMOOTH",
"1700 454 OFFCURVE",
"1758 482 OFFCURVE",
"1758 533 CURVE SMOOTH",
"1758 640.333 OFFCURVE",
"1736.167 735.167 OFFCURVE",
"1692.5 817.5 CURVE SMOOTH",
"1648.833 899.833 OFFCURVE",
"1588 964.167 OFFCURVE",
"1510 1010.5 CURVE SMOOTH",
"1432 1056.833 OFFCURVE",
"1341.333 1080 OFFCURVE",
"1238 1080 CURVE SMOOTH",
"1165.333 1080 OFFCURVE",
"1100.667 1066.667 OFFCURVE",
"1044 1040 CURVE SMOOTH",
"987.333 1013.333 OFFCURVE",
"938 976.667 OFFCURVE",
"896 930 CURVE",
"864 976.667 OFFCURVE",
"819.667 1013 OFFCURVE",
"763 1039 CURVE SMOOTH",
"706.333 1065 OFFCURVE",
"638.667 1078 OFFCURVE",
"560 1078 CURVE SMOOTH",
"466 1078 OFFCURVE",
"385.167 1062 OFFCURVE",
"317.5 1030 CURVE SMOOTH",
"249.833 998 OFFCURVE",
"197.333 955 OFFCURVE",
"160 901 CURVE SMOOTH",
"141 874 OFFCURVE",
"127 846 OFFCURVE",
"117 816 CURVE SMOOTH",
"97 760 OFFCURVE",
"155 722 OFFCURVE",
"243 722 CURVE SMOOTH",
"334 722 OFFCURVE",
"431 821 OFFCURVE",
"431 821 CURVE SMOOTH",
"465 846.333 OFFCURVE",
"509.333 859 OFFCURVE",
"564 859 CURVE SMOOTH",
"618 859 OFFCURVE",
"660.333 846.667 OFFCURVE",
"691 822 CURVE SMOOTH",
"721.667 797.333 OFFCURVE",
"737 765.667 OFFCURVE",
"737 727 CURVE SMOOTH",
"737 642 LINE",
"625 642 LINE SMOOTH",
"512.333 642 OFFCURVE",
"414 630 OFFCURVE",
"330 606 CURVE SMOOTH",
"246 582 OFFCURVE",
"180.667 544.667 OFFCURVE",
"134 494 CURVE SMOOTH",
"87.333 443.333 OFFCURVE",
"64 378 OFFCURVE",
"64 298 CURVE SMOOTH",
"64 198.667 OFFCURVE",
"98.833 121.333 OFFCURVE",
"168.5 66 CURVE SMOOTH",
"238.167 10.667 OFFCURVE",
"335.333 -17 OFFCURVE",
"460 -17 CURVE SMOOTH"
);
},
{
closed = 1;
nodes = (
"737 454 LINE",
"737 386 LINE SMOOTH",
"737 328.667 OFFCURVE",
"716.667 281.333 OFFCURVE",
"676 244 CURVE SMOOTH",
"635.333 206.667 OFFCURVE",
"579.667 188 OFFCURVE",
"509 188 CURVE SMOOTH",
"459.667 188 OFFCURVE",
"420.167 198.167 OFFCURVE",
"390.5 218.5 CURVE SMOOTH",
"360.833 238.833 OFFCURVE",
"346 269.333 OFFCURVE",
"346 310 CURVE SMOOTH",
"346 354.667 OFFCURVE",
"366.333 389.833 OFFCURVE",
"407 415.5 CURVE SMOOTH",
"447.667 441.167 OFFCURVE",
"504.667 454 OFFCURVE",
"578 454 CURVE SMOOTH"
);
},
{
closed = 1;
nodes = (
"1017 708 OFFCURVE",
"1041.667 760.167 OFFCURVE",
"1083 798.5 CURVE SMOOTH",
"1124.333 836.833 OFFCURVE",
"1178 856 OFFCURVE",
"1244 856 CURVE SMOOTH",
"1310 856 OFFCURVE",
"1363.833 836.833 OFFCURVE",
"1405.5 798.5 CURVE SMOOTH",
"1447.167 760.167 OFFCURVE",
"1472 708 OFFCURVE",
"1480 642 CURVE",
"1009 642 LINE"
);
}
);
userData = {
assembly = "NPUSHB[ ]	/* 97 values pushed */\01223 1 2 4 46 1 0 7 2 76 0 3 2 1 2 3 1 128 0 8 6 7 6 8 7 128 12 1 1 10 1 6 8 1 6 103 13 1 2 2 4 97 5 1 4 4 112 77 11 1 7 7 0 97 9 14 2 0 0 110 0 78 1 0 65 63 61 60 57 55 51 49 44 42 39 38 36 34 32 31 27 25 21 19 16 15 13 11 8 6 0 48 1 48 15 12 22 \012CALL[ ]	/* CallFunction */";
};
width = 1811;
}
);
leftKerningGroup = a;
note = ae;
rightKerningGroup = aturned;
unicode = 00E6;
},
{
glyphname = b;
lastChange = "2024-07-06 19:10:55 +0000";
layers = (
{
layerId = "EC312F70-CB40-4CEF-804A-742881A222CF";
paths = (
{
closed = 1;
nodes = (
"801 -22 OFFCURVE",
"881.167 1 OFFCURVE",
"949.5 47 CURVE SMOOTH",
"1017.833 93 OFFCURVE",
"1071 157.333 OFFCURVE",
"1109 240 CURVE SMOOTH",
"1147 322.667 OFFCURVE",
"1166 419 OFFCURVE",
"1166 529 CURVE SMOOTH",
"1166 637 OFFCURVE",
"1146.833 732.333 OFFCURVE",
"1108.5 815 CURVE SMOOTH",
"1070.167 897.667 OFFCURVE",
"1016.833 962.167 OFFCURVE",
"948.5 1008.5 CURVE SMOOTH",
"880.167 1054.833 OFFCURVE",
"801 1078 OFFCURVE",
"711 1078 CURVE SMOOTH",
"642.333 1078 OFFCURVE",
"581.833 1064.167 OFFCURVE",
"529.5 1036.5 CURVE SMOOTH",
"477.167 1008.833 OFFCURVE",
"434 966.667 OFFCURVE",
"400 910 CURVE",
"399 910 LINE",
"399 1324 LINE SMOOTH",
"399 1432 OFFCURVE",
"347 1490 OFFCURVE",
"252 1490 CURVE SMOOTH",
"157 1490 OFFCURVE",
"104 1431 OFFCURVE",
"104 1324 CURVE SMOOTH",
"104 166 LINE SMOOTH",
"104 58 OFFCURVE",
"155 0 OFFCURVE",
"250 0 CURVE SMOOTH",
"344 0 OFFCURVE",
"395 57 OFFCURVE",
"395 162 CURVE",
"396 162 LINE",
"426.667 100.667 OFFCURVE",
"469.167 54.667 OFFCURVE",
"523.5 24 CURVE SMOOTH",
"577.833 -6.667 OFFCURVE",
"639.667 -22 OFFCURVE",
"709 -22 CURVE SMOOTH"
);
},
{
closed = 1;
nodes = (
"558.333 218 OFFCURVE",
"498.333 246.167 OFFCURVE",
"453 302.5 CURVE SMOOTH",
"407.667 358.833 OFFCURVE",
"385 434.333 OFFCURVE",
"385 529 CURVE SMOOTH",
"385 623 OFFCURVE",
"407.667 698.333 OFFCURVE",
"453 755 CURVE SMOOTH",
"498.333 811.667 OFFCURVE",
"558.333 840 OFFCURVE",
"633 840 CURVE SMOOTH",
"704.333 840 OFFCURVE",
"761.5 812.833 OFFCURVE",
"804.5 758.5 CURVE SMOOTH",
"847.5 704.167 OFFCURVE",
"869 627.667 OFFCURVE",
"869 529 CURVE SMOOTH",
"869 430.333 OFFCURVE",
"847.5 353.833 OFFCURVE",
"804.5 299.5 CURVE SMOOTH",
"761.5 245.167 OFFCURVE",
"704.333 218 OFFCURVE",
"633 218 CURVE SMOOTH"
);
}
);
userData = {
assembly = "MPPEM[ ]	/* MeasurePixelPerEm */\012PUSHB[ ]	/* 1 value pushed */\01223 \012LT[ ]	/* LessThan */\012IF[ ]	/* If */\012NPUSHB[ ]	/* 10 values pushed */\0129 1 5 3 3 1 0 4 2 76 \012ELSE[ ]	/* Else */\012NPUSHB[ ]	/* 10 values pushed */\0129 1 5 3 3 1 1 4 2 76 \012EIF[ ]	/* EndIf */\012MPPEM[ ]	/* MeasurePixelPerEm */\012PUSHB[ ]	/* 1 value pushed */\01223 \012LT[ ]	/* LessThan */\012IF[ ]	/* If */\012NPUSHB[ ]	/* 29 values pushed */\0120 2 2 103 77 0 5 5 3 97 0 3 3 112 77 7 1 4 4 0 97 1 6 2 0 0 110 0 78 \012ELSE[ ]	/* Else */\012NPUSHB[ ]	/* 33 values pushed */\0120 2 2 103 77 0 5 5 3 97 0 3 3 112 77 0 1 1 104 77 7 1 4 4 0 97 6 1 0 0 110 0 78 \012EIF[ ]	/* EndIf */\012NPUSHB[ ]	/* 23 values pushed */\01222 21 1 0 28 26 21 32 22 32 14 12 8 7 6 5 0 20 1 20 8 12 22 \012CALL[ ]	/* CallFunction */";
};
width = 1224;
}
);
leftKerningGroup = B;
note = b;
rightKerningGroup = b;
unicode = 0062;
},
{
glyphname = bhook;
lastChange = "2024-07-06 19:10:55 +0000";
layers = (
{
layerId = "EC312F70-CB40-4CEF-804A-742881A222CF";
paths = (
{
closed = 1;
nodes = (
"801 -22 OFFCURVE",
"881.167 0.833 OFFCURVE",
"949.5 46.5 CURVE SMOOTH",
"1017.833 92.167 OFFCURVE",
"1071 156.167 OFFCURVE",
"1109 238.5 CURVE SMOOTH",
"1147 320.833 OFFCURVE",
"1166 416.333 OFFCURVE",
"1166 525 CURVE SMOOTH",
"1166 631.667 OFFCURVE",
"1146.833 725.5 OFFCURVE",
"1108.5 806.5 CURVE SMOOTH",
"1070.167 887.5 OFFCURVE",
"1016.833 950.833 OFFCURVE",
"948.5 996.5 CURVE SMOOTH",
"880.167 1042.167 OFFCURVE",
"801 1065 OFFCURVE",
"711 1065 CURVE SMOOTH",
"569.667 1065 OFFCURVE",
"466.667 1011 OFFCURVE",
"402 903 CURVE SMOOTH",
"399 898 LINE",
"399 1159 LINE SMOOTH",
"399 1221 OFFCURVE",
"432.333 1252 OFFCURVE",
"499 1252 CURVE SMOOTH",
"577 1252 OFFCURVE",
"619 1294 OFFCURVE",
"619 1371 CURVE SMOOTH",
"619 1448 OFFCURVE",
"562 1490 OFFCURVE",
"456 1490 CURVE SMOOTH",
"221.333 1490 OFFCURVE",
"104 1383.667 OFFCURVE",
"104 1171 CURVE SMOOTH",
"104 166 LINE SMOOTH",
"104 58 OFFCURVE",
"155 0 OFFCURVE",
"250 0 CURVE SMOOTH",
"344 0 OFFCURVE",
"395 56 OFFCURVE",
"395 158 CURVE",
"398 158 LINE",
"428 98.667 OFFCURVE",
"470 53.833 OFFCURVE",
"524 23.5 CURVE SMOOTH",
"578 -6.833 OFFCURVE",
"639.667 -22 OFFCURVE",
"709 -22 CURVE SMOOTH"
);
},
{
closed = 1;
nodes = (
"558.333 218 OFFCURVE",
"498.333 245.833 OFFCURVE",
"453 301.5 CURVE SMOOTH",
"407.667 357.167 OFFCURVE",
"385 431.667 OFFCURVE",
"385 525 CURVE SMOOTH",
"385 617.667 OFFCURVE",
"407.667 692 OFFCURVE",
"453 748 CURVE SMOOTH",
"498.333 804 OFFCURVE",
"558.333 832 OFFCURVE",
"633 832 CURVE SMOOTH",
"704.333 832 OFFCURVE",
"761.5 805.167 OFFCURVE",
"804.5 751.5 CURVE SMOOTH",
"847.5 697.833 OFFCURVE",
"869 622.333 OFFCURVE",
"869 525 CURVE SMOOTH",
"869 427 OFFCURVE",
"847.5 351.333 OFFCURVE",
"804.5 298 CURVE SMOOTH",
"761.5 244.667 OFFCURVE",
"704.333 218 OFFCURVE",
"633 218 CURVE SMOOTH"
);
}
);
userData = {
assembly = "MPPEM[ ]	/* MeasurePixelPerEm */\012PUSHB[ ]	/* 1 value pushed */\01223 \012LT[ ]	/* LessThan */\012IF[ ]	/* If */\012NPUSHB[ ]	/* 10 values pushed */\01215 1 6 4 3 1 0 5 2 76 \012ELSE[ ]	/* Else */\012NPUSHB[ ]	/* 10 values pushed */\01215 1 6 4 3 1 1 5 2 76 \012EIF[ ]	/* EndIf */\012MPPEM[ ]	/* MeasurePixelPerEm */\012PUSHB[ ]	/* 1 value pushed */\01223 \012LT[ ]	/* LessThan */\012IF[ ]	/* If */\012NPUSHB[ ]	/* 34 values pushed */\0120 3 3 2 95 0 2 2 103 77 0 6 6 4 97 0 4 4 106 77 8 1 5 5 0 97 1 7 2 0 0 110 0 78 \012ELSE[ ]	/* Else */\012NPUSHB[ ]	/* 38 values pushed */\0120 3 3 2 95 0 2 2 103 77 0 6 6 4 97 0 4 4 106 77 0 1 1 104 77 8 1 5 5 0 97 7 1 0 0 110 0 78 \012EIF[ ]	/* EndIf */\012NPUSHB[ ]	/* 25 values pushed */\01227 26 1 0 33 31 26 37 27 37 19 17 13 11 10 8 6 5 0 25 1 25 9 12 22 \012CALL[ ]	/* CallFunction */";
};
width = 1224;
}
);
leftKerningGroup = B;
note = uni0253;
rightKerningGroup = b;
unicode = 0253;
},
{
glyphname = bilabialpercussive;
lastChange = "2024-07-06 19:10:55 +0000";
layers = (
{
layerId = "EC312F70-CB40-4CEF-804A-742881A222CF";
paths = (
{
closed = 1;
nodes = (
"130 1458 OFFCURVE",
"111 1387 OFFCURVE",
"143 1272 CURVE SMOOTH",
"216 1012 LINE SMOOTH",
"243 917 OFFCURVE",
"283 872 OFFCURVE",
"339 872 CURVE SMOOTH",
"395 872 OFFCURVE",
"438 915 OFFCURVE",
"470 1005 CURVE SMOOTH",
"541 1204 LINE",
"612 1006 LINE SMOOTH",
"644 915 OFFCURVE",
"686 872 OFFCURVE",
"742 872 CURVE SMOOTH",
"798 872 OFFCURVE",
"838 918 OFFCURVE",
"864 1013 CURVE SMOOTH",
"936 1272 LINE SMOOTH",
"968 1387 OFFCURVE",
"949 1458 OFFCURVE",
"887 1458 CURVE SMOOTH",
"819 1458 OFFCURVE",
"775 1409 OFFCURVE",
"754 1311 CURVE SMOOTH",
"721 1154 LINE",
"662 1323 LINE SMOOTH",
"631 1414 OFFCURVE",
"591 1458 OFFCURVE",
"539 1458 CURVE SMOOTH",
"487 1458 OFFCURVE",
"448 1415 OFFCURVE",
"417 1322 CURVE SMOOTH",
"360 1151 LINE",
"326 1311 LINE SMOOTH",
"305 1410 OFFCURVE",
"261 1458 OFFCURVE",
"193 1458 CURVE SMOOTH"
);
},
{
closed = 1;
nodes = (
"130 584 OFFCURVE",
"111 513 OFFCURVE",
"143 398 CURVE SMOOTH",
"216 140 LINE SMOOTH",
"243 46 OFFCURVE",
"283 0 OFFCURVE",
"339 0 CURVE SMOOTH",
"395 0 OFFCURVE",
"438 43 OFFCURVE",
"470 133 CURVE SMOOTH",
"541 332 LINE",
"612 134 LINE SMOOTH",
"644 43 OFFCURVE",
"686 0 OFFCURVE",
"742 0 CURVE SMOOTH",
"798 0 OFFCURVE",
"838 46 OFFCURVE",
"864 141 CURVE SMOOTH",
"936 398 LINE SMOOTH",
"968 513 OFFCURVE",
"949 584 OFFCURVE",
"887 584 CURVE SMOOTH",
"819 584 OFFCURVE",
"775 536 OFFCURVE",
"754 437 CURVE SMOOTH",
"721 281 LINE",
"663 450 LINE SMOOTH",
"631 542 OFFCURVE",
"591 584 OFFCURVE",
"539 584 CURVE SMOOTH",
"487 584 OFFCURVE",
"448 541 OFFCURVE",
"417 449 CURVE SMOOTH",
"360 280 LINE",
"326 437 LINE SMOOTH",
"305 536 OFFCURVE",
"261 584 OFFCURVE",
"193 584 CURVE SMOOTH"
);
}
);
userData = {
assembly = "NPUSHB[ ]	/* 14 values pushed */\0129 4 1 3 2 0 22 17 14 3 7 5 2 76 \012MPPEM[ ]	/* MeasurePixelPerEm */\012PUSHB[ ]	/* 1 value pushed */\01232 \012LT[ ]	/* LessThan */\012IF[ ]	/* If */\012NPUSHB[ ]	/* 29 values pushed */\0123 1 2 2 0 95 10 4 1 3 0 0 103 77 11 9 6 3 5 5 7 95 8 1 7 7 104 7 78 \012ELSE[ ]	/* Else */\012NPUSHB[ ]	/* 27 values pushed */\01210 4 1 3 0 3 1 2 5 0 2 103 11 9 6 3 5 5 7 95 8 1 7 7 104 7 78 \012EIF[ ]	/* EndIf */\012NPUSHB[ ]	/* 27 values pushed */\01213 13 0 0 13 25 13 25 24 23 21 20 19 18 16 15 0 12 0 12 18 17 18 18 12 12 26 \012CALL[ ]	/* CallFunction */";
};
width = 1081;
}
);
note = uni02AC;
unicode = 02AC;
},
